STARTFONT 2.1
COMMENT
COMMENT Converted from OpenType font "ipaexm.ttf" by "..\otf2bdf.exe 3.0".
COMMENT
FONT -FreeType-IPAexMincho-Medium-R-Normal--32-320-72-72-P-279-ISO10646-1
SIZE 32 72 72
FONTBOUNDINGBOX 40 39 -8 -9
STARTPROPERTIES 19
FOUNDRY "FreeType"
FAMILY_NAME "IPAexMincho"
WEIGHT_NAME "Medium"
SLANT "R"
SETWIDTH_NAME "Normal"
ADD_STYLE_NAME ""
PIXEL_SIZE 32
POINT_SIZE 320
RESOLUTION_X 72
RESOLUTION_Y 72
SPACING "P"
AVERAGE_WIDTH 279
CHARSET_REGISTRY "ISO10646"
CHARSET_ENCODING "1"
FONT_ASCENT 28
FONT_DESCENT 3
COPYRIGHT "Copyright(c) Information-technology Promotion Agency, Japan (IPA), 2003-2019. You must accept "https://opensource.org/licenses/IPA/" to use this product."
_OTF_FONTFILE "ipaexm.ttf"
_OTF_PSNAME "IPAexMincho"
ENDPROPERTIES
CHARS 11691
STARTCHAR 0020
ENCODING 32
SWIDTH 281 0
DWIDTH 9 0
BBX 0 0 0 0
BITMAP
ENDCHAR
STARTCHAR 0021
ENCODING 33
SWIDTH 281 0
DWIDTH 9 0
BBX 4 23 3 0
BITMAP
C0
E0
E0
E0
E0
E0
E0
E0
E0
E0
60
40
40
40
40
40
00
00
00
60
F0
F0
E0
ENDCHAR
STARTCHAR 0022
ENCODING 34
SWIDTH 343 0
DWIDTH 11 0
BBX 7 8 2 15
BITMAP
E6
E6
E6
E6
E6
E6
46
46
ENDCHAR
STARTCHAR 0023
ENCODING 35
SWIDTH 625 0
DWIDTH 20 0
BBX 16 24 2 0
BITMAP
030C
0208
0218
0618
0618
0618
FFFF
0410
0C30
0C30
0C30
0C30
0820
FFFF
1860
1860
1860
1860
1040
3040
30C0
30C0
30C0
1040
ENDCHAR
STARTCHAR 0024
ENCODING 36
SWIDTH 625 0
DWIDTH 20 0
BBX 15 25 2 -1
BITMAP
0100
07C0
1930
3108
611C
611C
611C
6100
7100
3900
1F00
0F80
03F0
0178
011C
010E
0106
E106
E106
E106
610C
7118
1FF0
0100
0100
ENDCHAR
STARTCHAR 0025
ENCODING 37
SWIDTH 781 0
DWIDTH 25 0
BBX 21 23 2 0
BITMAP
1C0060
630040
6300C0
C18180
C18100
C18300
C18600
C18400
C18C00
631800
631000
3C21C0
006630
00C630
008C18
018C18
030C18
020C18
040C18
0C0C18
080630
100630
3003C0
ENDCHAR
STARTCHAR 0026
ENCODING 38
SWIDTH 718 0
DWIDTH 23 0
BBX 20 23 3 0
BITMAP
07C000
186000
183000
303000
303000
303000
302000
186000
18C000
0F8000
0E0FF0
1F03C0
330180
618100
41C100
C0E300
C07200
C03E00
C01C00
E00E00
783F00
3FE3C0
0F81F0
ENDCHAR
STARTCHAR 0027
ENCODING 39
SWIDTH 218 0
DWIDTH 7 0
BBX 3 8 2 15
BITMAP
E0
E0
E0
E0
E0
E0
40
40
ENDCHAR
STARTCHAR 0028
ENCODING 40
SWIDTH 375 0
DWIDTH 12 0
BBX 7 31 3 -7
BITMAP
04
0C
08
18
30
30
20
60
60
60
C0
C0
C0
C0
C0
C0
C0
C0
C0
C0
40
60
60
60
20
30
10
18
08
0C
06
ENDCHAR
STARTCHAR 0029
ENCODING 41
SWIDTH 375 0
DWIDTH 12 0
BBX 7 31 2 -7
BITMAP
C0
60
20
30
10
18
08
0C
0C
0C
06
06
06
06
06
06
06
06
06
06
0C
0C
0C
0C
18
18
30
30
60
40
C0
ENDCHAR
STARTCHAR 002A
ENCODING 42
SWIDTH 250 0
DWIDTH 8 0
BBX 8 8 0 15
BITMAP
18
18
DB
76
3C
FF
DB
18
ENDCHAR
STARTCHAR 002B
ENCODING 43
SWIDTH 687 0
DWIDTH 22 0
BBX 18 17 2 1
BITMAP
00C000
00C000
00C000
00C000
00C000
00C000
00C000
00C000
FFFFC0
00C000
00C000
00C000
00C000
00C000
00C000
00C000
00C000
ENDCHAR
STARTCHAR 002C
ENCODING 44
SWIDTH 250 0
DWIDTH 8 0
BBX 4 6 2 -4
BITMAP
E0
F0
70
30
60
C0
ENDCHAR
STARTCHAR 002D
ENCODING 45
SWIDTH 281 0
DWIDTH 9 0
BBX 7 2 1 8
BITMAP
FE
FE
ENDCHAR
STARTCHAR 002E
ENCODING 46
SWIDTH 250 0
DWIDTH 8 0
BBX 3 3 2 0
BITMAP
E0
E0
E0
ENDCHAR
STARTCHAR 002F
ENCODING 47
SWIDTH 500 0
DWIDTH 16 0
BBX 11 29 2 -5
BITMAP
0020
0020
0060
0060
0040
00C0
0080
0080
0180
0100
0300
0300
0200
0600
0400
0C00
0C00
0800
1800
1800
1000
3000
2000
6000
6000
4000
C000
C000
8000
ENDCHAR
STARTCHAR 0030
ENCODING 48
SWIDTH 625 0
DWIDTH 20 0
BBX 16 24 2 0
BITMAP
07C0
0C30
1818
300C
6004
6006
6006
C002
C003
C003
C003
C003
C003
C003
C003
C003
C003
6006
6006
6006
300C
1818
0C30
07E0
ENDCHAR
STARTCHAR 0031
ENCODING 49
SWIDTH 625 0
DWIDTH 20 0
BBX 11 24 4 0
BITMAP
0200
0E00
FE00
0600
0600
0600
0600
0600
0600
0600
0600
0600
0600
0600
0600
0600
0600
0600
0600
0600
0600
0600
0F00
7FE0
ENDCHAR
STARTCHAR 0032
ENCODING 50
SWIDTH 625 0
DWIDTH 20 0
BBX 14 24 3 0
BITMAP
0FC0
3870
6018
6018
C00C
F00C
F00C
700C
001C
0018
0030
0070
00C0
0380
0600
0C00
1800
3004
2004
4004
C004
C00C
FFFC
FFFC
ENDCHAR
STARTCHAR 0033
ENCODING 51
SWIDTH 625 0
DWIDTH 20 0
BBX 15 25 2 -1
BITMAP
07C0
1830
3018
600C
700C
700C
700C
000C
0018
0018
0070
0780
07E0
0018
000C
000E
0006
7006
F006
F006
C006
E00C
6018
3830
0FC0
ENDCHAR
STARTCHAR 0034
ENCODING 52
SWIDTH 625 0
DWIDTH 20 0
BBX 18 23 1 0
BITMAP
000800
001800
003800
007800
005800
009800
019800
031800
021800
041800
0C1800
181800
301800
201800
401800
FFFFC0
FFFFC0
001800
001800
001800
001800
001C00
00FF80
ENDCHAR
STARTCHAR 0035
ENCODING 53
SWIDTH 625 0
DWIDTH 20 0
BBX 15 24 3 -1
BITMAP
3FF8
3FF8
6000
6000
6000
6000
6000
6000
47C0
5830
7018
6008
400C
0006
0006
0006
7006
F006
F006
E00C
400C
6018
3870
0FC0
ENDCHAR
STARTCHAR 0036
ENCODING 54
SWIDTH 625 0
DWIDTH 20 0
BBX 15 25 3 -1
BITMAP
03E0
0C38
181C
303C
303C
603C
6000
6000
C000
C7C0
CC30
D818
F00C
F00C
E006
E006
E006
E006
6006
6006
700C
300C
3818
1C30
07E0
ENDCHAR
STARTCHAR 0037
ENCODING 55
SWIDTH 625 0
DWIDTH 20 0
BBX 15 23 3 0
BITMAP
7FFE
7FFE
E004
C00C
C008
8018
8010
0030
0020
0060
0040
00C0
0080
0180
0180
0180
0300
0300
0300
0700
0700
0700
0600
ENDCHAR
STARTCHAR 0038
ENCODING 56
SWIDTH 625 0
DWIDTH 20 0
BBX 15 25 2 -1
BITMAP
07E0
1C38
300C
3006
6006
6006
6006
6006
300C
3818
1E70
07C0
0FE0
1CF0
3038
601C
E00E
C006
C006
C006
C006
600C
600C
3830
0FC0
ENDCHAR
STARTCHAR 0039
ENCODING 57
SWIDTH 625 0
DWIDTH 20 0
BBX 15 25 2 -1
BITMAP
0FC0
1870
3038
6018
C01C
C00C
C00E
C00E
C00E
C00E
C00E
601E
2036
1876
0FC6
0006
0006
000C
000C
700C
7018
7018
7030
3860
0F80
ENDCHAR
STARTCHAR 003A
ENCODING 58
SWIDTH 281 0
DWIDTH 9 0
BBX 3 16 3 0
BITMAP
E0
E0
E0
00
00
00
00
00
00
00
00
00
00
E0
E0
E0
ENDCHAR
STARTCHAR 003B
ENCODING 59
SWIDTH 281 0
DWIDTH 9 0
BBX 5 19 2 -4
BITMAP
70
70
70
00
00
00
00
00
00
00
00
00
70
78
78
38
18
30
E0
ENDCHAR
STARTCHAR 003C
ENCODING 60
SWIDTH 687 0
DWIDTH 22 0
BBX 17 17 2 1
BITMAP
000080
000380
000F00
003C00
00E000
038000
0E0000
380000
E00000
E00000
3C0000
0F0000
03C000
007000
001C00
000700
000180
ENDCHAR
STARTCHAR 003D
ENCODING 61
SWIDTH 687 0
DWIDTH 22 0
BBX 17 8 2 6
BITMAP
FFFF80
000000
000000
000000
000000
000000
000000
FFFF80
ENDCHAR
STARTCHAR 003E
ENCODING 62
SWIDTH 687 0
DWIDTH 22 0
BBX 17 16 2 2
BITMAP
E00000
3C0000
0F0000
03C000
00F000
001C00
000700
000180
000380
000E00
003800
00E000
038000
1E0000
780000
E00000
ENDCHAR
STARTCHAR 003F
ENCODING 63
SWIDTH 500 0
DWIDTH 16 0
BBX 12 23 2 0
BITMAP
1F80
30C0
4060
C030
8030
E030
E030
0030
0060
00E0
01C0
0300
0600
0400
0400
0400
0400
0000
0000
0600
0F00
0F00
0F00
ENDCHAR
STARTCHAR 0040
ENCODING 64
SWIDTH 906 0
DWIDTH 29 0
BBX 24 23 2 0
BITMAP
007F80
0380E0
060018
0C000C
180F64
3031C2
6060C2
60C0C1
41C0C1
C18081
C18181
C30181
C30381
C30382
C30702
C30704
611B0C
60F318
3001E0
180000
0C0018
0780E0
00FF00
ENDCHAR
STARTCHAR 0041
ENCODING 65
SWIDTH 718 0
DWIDTH 23 0
BBX 23 23 0 0
BITMAP
001000
001800
003800
003800
006C00
004C00
004600
00C600
008600
018300
010300
010180
030180
020180
07FFC0
0600C0
0400E0
0C0060
080060
180030
180030
380038
FE01FE
ENDCHAR
STARTCHAR 0042
ENCODING 66
SWIDTH 718 0
DWIDTH 23 0
BBX 19 23 2 0
BITMAP
FFFC00
3C0700
180180
1800C0
1800C0
1800C0
1800C0
180180
180180
180600
1FF800
180E00
180180
1800C0
180060
180060
180060
180060
180060
1800C0
1801C0
3C0700
FFFC00
ENDCHAR
STARTCHAR 0043
ENCODING 67
SWIDTH 718 0
DWIDTH 23 0
BBX 21 24 1 0
BITMAP
00FC00
038310
0E00D0
1C0070
380030
300030
700010
700010
E00000
E00000
E00000
E00000
E00000
E00000
E00000
F00000
700000
700018
780010
3C0030
1E0060
0F81C0
07FF80
00FE00
ENDCHAR
STARTCHAR 0044
ENCODING 68
SWIDTH 781 0
DWIDTH 25 0
BBX 21 23 2 0
BITMAP
FFF800
3C0F00
180380
1800C0
1800E0
180070
180070
180030
180038
180038
180038
180038
180038
180038
180038
180038
180070
180070
1800E0
1800C0
180380
3C0F00
FFF800
ENDCHAR
STARTCHAR 0045
ENCODING 69
SWIDTH 687 0
DWIDTH 22 0
BBX 19 23 2 0
BITMAP
FFFFC0
3C01C0
1800C0
180040
180040
180040
180000
180800
180800
181800
1FF800
181800
180800
180800
180800
180000
180020
180060
180060
180040
1800C0
3C03C0
FFFFC0
ENDCHAR
STARTCHAR 0046
ENCODING 70
SWIDTH 625 0
DWIDTH 20 0
BBX 18 23 2 0
BITMAP
FFFFC0
3C03C0
1800C0
180040
180040
180040
180040
180800
180800
180800
181800
1FF800
181800
180800
180800
180000
180000
180000
180000
180000
180000
3C0000
FF8000
ENDCHAR
STARTCHAR 0047
ENCODING 71
SWIDTH 781 0
DWIDTH 25 0
BBX 23 24 1 0
BITMAP
00FC00
038310
0E00D0
1C0070
380030
300030
700010
700000
E00000
E00000
E00000
E00000
E00000
E001FE
E00078
E00030
700030
700030
700030
380030
1C0070
0E00F0
0781D0
00FE10
ENDCHAR
STARTCHAR 0048
ENCODING 72
SWIDTH 812 0
DWIDTH 26 0
BBX 22 23 2 0
BITMAP
FF03FC
3C00F0
180060
180060
180060
180060
180060
180060
180060
180060
1FFFE0
180060
180060
180060
180060
180060
180060
180060
180060
180060
180060
3C00F0
FF03FC
ENDCHAR
STARTCHAR 0049
ENCODING 73
SWIDTH 375 0
DWIDTH 12 0
BBX 8 23 2 0
BITMAP
FF
3C
18
18
18
18
18
18
18
18
18
18
18
18
18
18
18
18
18
18
18
3C
FF
ENDCHAR
STARTCHAR 004A
ENCODING 74
SWIDTH 468 0
DWIDTH 15 0
BBX 13 23 1 0
BITMAP
07F8
01E0
00C0
00C0
00C0
00C0
00C0
00C0
00C0
00C0
00C0
00C0
00C0
00C0
00C0
00C0
00C0
00C0
E0C0
E0C0
E180
4180
3E00
ENDCHAR
STARTCHAR 004B
ENCODING 75
SWIDTH 718 0
DWIDTH 23 0
BBX 21 23 2 0
BITMAP
FF0FF0
3C01C0
180100
180200
180400
180800
183000
186000
18C000
198000
1B8000
1EC000
1CE000
187000
183800
181800
180C00
180E00
180700
180380
1801C0
3C01E0
FF0FF8
ENDCHAR
STARTCHAR 004C
ENCODING 76
SWIDTH 593 0
DWIDTH 19 0
BBX 17 23 2 0
BITMAP
FF0000
3C0000
180000
180000
180000
180000
180000
180000
180000
180000
180000
180000
180000
180000
180000
180000
180080
180080
180080
180180
180180
3C0780
FFFF80
ENDCHAR
STARTCHAR 004D
ENCODING 77
SWIDTH 968 0
DWIDTH 31 0
BBX 27 23 2 0
BITMAP
FE0007E0
3E000F80
1F000F00
1B000B00
1B001B00
19801300
19801300
19C03300
18C02300
18C02300
18E06300
18604300
1860C300
1870C300
18308300
18318300
18190300
18190300
181F0300
180E0300
180E0300
3C0E0780
FF041FE0
ENDCHAR
STARTCHAR 004E
ENCODING 78
SWIDTH 812 0
DWIDTH 26 0
BBX 23 23 2 -1
BITMAP
FC01FE
3E0078
1E0030
1B0030
1B8030
198030
18C030
18E030
186030
187030
183030
181830
181C30
180C30
180630
180730
180330
1801B0
1801B0
1800F0
1800F0
3C0070
FF0030
ENDCHAR
STARTCHAR 004F
ENCODING 79
SWIDTH 812 0
DWIDTH 26 0
BBX 22 25 2 -1
BITMAP
00FC00
070300
0E01C0
1C00E0
380070
300030
700038
700038
E0001C
E0001C
E0001C
E0001C
E0001C
E0001C
E0001C
E0001C
E0001C
700038
700038
300030
380070
1C00E0
0E01C0
070380
00FC00
ENDCHAR
STARTCHAR 0050
ENCODING 80
SWIDTH 656 0
DWIDTH 21 0
BBX 18 23 2 0
BITMAP
FFFC00
3C0F00
180380
180180
1800C0
1800C0
1800C0
1800C0
180180
180380
180F00
1FF800
180000
180000
180000
180000
180000
180000
180000
180000
180000
3C0000
FF0000
ENDCHAR
STARTCHAR 0051
ENCODING 81
SWIDTH 812 0
DWIDTH 26 0
BBX 23 27 2 -3
BITMAP
00FC00
030300
0E01C0
1C00E0
380070
300030
700038
700038
E0001C
E0001C
E0001C
E0001C
E0001C
E0001C
E0001C
E0001C
E00018
707838
70FC38
318E30
390660
1D07C0
0D0380
078780
01FDC2
0000FE
00003C
ENDCHAR
STARTCHAR 0052
ENCODING 82
SWIDTH 687 0
DWIDTH 22 0
BBX 20 23 2 0
BITMAP
FFFC00
3C0700
180180
180180
1800C0
1800C0
1800C0
1800C0
180180
180380
180E00
1FF800
187000
181800
180C00
180E00
180600
180700
180300
180380
1801C0
3C01C0
FF00F0
ENDCHAR
STARTCHAR 0053
ENCODING 83
SWIDTH 625 0
DWIDTH 20 0
BBX 16 23 2 1
BITMAP
0FE2
383E
600E
4006
C006
C002
C002
E000
7000
3E00
1F80
03F0
00FC
001E
000E
8007
8003
8003
C003
E002
F006
9C1C
87F0
ENDCHAR
STARTCHAR 0054
ENCODING 84
SWIDTH 625 0
DWIDTH 20 0
BBX 20 23 0 0
BITMAP
7FFFE0
7060F0
606030
406030
C06010
806010
006000
006000
006000
006000
006000
006000
006000
006000
006000
006000
006000
006000
006000
006000
006000
00F000
03FC00
ENDCHAR
STARTCHAR 0055
ENCODING 85
SWIDTH 781 0
DWIDTH 25 0
BBX 24 23 1 0
BITMAP
FF00FF
3C003C
180018
180018
180018
180018
180018
180018
180018
180018
180018
180018
180018
180018
180018
180018
180018
1C0038
0C0030
0E0070
0781E0
03FFC0
00FF00
ENDCHAR
STARTCHAR 0056
ENCODING 86
SWIDTH 718 0
DWIDTH 23 0
BBX 23 23 0 0
BITMAP
FF00FE
3C0038
1C0030
1C0030
0E0060
0E0060
060040
0700C0
0700C0
030080
038180
018180
018300
01C300
00C200
00C600
00E600
006400
006C00
003800
003800
003800
001000
ENDCHAR
STARTCHAR 0057
ENCODING 87
SWIDTH 968 0
DWIDTH 31 0
BBX 31 23 0 0
BITMAP
FF0FF1FE
38038038
18018030
18018030
18018060
0C01C060
0C03C060
0C02C040
0602E0C0
060660C0
060460C0
03046080
030C3180
03083180
01883100
01983900
01901B00
00D01A00
00D01A00
00E00E00
00E00C00
00600C00
00400400
ENDCHAR
STARTCHAR 0058
ENCODING 88
SWIDTH 718 0
DWIDTH 23 0
BBX 23 23 0 0
BITMAP
7F81FE
1E0078
0E0060
0700C0
0301C0
038180
01C300
00C600
00E600
007C00
003800
003800
007C00
006E00
00C600
018700
010380
030180
0600C0
0C00E0
180070
380078
FF03FE
ENDCHAR
STARTCHAR 0059
ENCODING 89
SWIDTH 687 0
DWIDTH 22 0
BBX 22 23 0 0
BITMAP
FF83FC
3C0070
1C0060
0C00C0
0E0080
070180
030100
038300
018200
01C600
00CC00
006800
007800
003000
003000
003000
003000
003000
003000
003000
003000
007800
01FE00
ENDCHAR
STARTCHAR 005A
ENCODING 90
SWIDTH 625 0
DWIDTH 20 0
BBX 18 22 1 0
BITMAP
7FFF80
780380
600700
400600
400E00
401C00
001800
003800
007000
00E000
00C000
01C000
038000
070000
060000
0E0000
1C0040
180040
3800C0
7000C0
E001C0
FFFF80
ENDCHAR
STARTCHAR 005B
ENCODING 91
SWIDTH 343 0
DWIDTH 11 0
BBX 6 30 4 -6
BITMAP
FC
C0
C0
C0
C0
C0
C0
C0
C0
C0
C0
C0
C0
C0
C0
C0
C0
C0
C0
C0
C0
C0
C0
C0
C0
C0
C0
C0
C0
FC
ENDCHAR
STARTCHAR 005C
ENCODING 92
SWIDTH 500 0
DWIDTH 16 0
BBX 11 29 3 -5
BITMAP
8000
8000
C000
C000
4000
6000
2000
2000
3000
1000
1800
1800
0800
0C00
0400
0600
0600
0200
0300
0300
0100
0180
0080
00C0
00C0
0040
0060
0060
0020
ENDCHAR
STARTCHAR 005D
ENCODING 93
SWIDTH 343 0
DWIDTH 11 0
BBX 6 30 1 -6
BITMAP
FC
0C
0C
0C
0C
0C
0C
0C
0C
0C
0C
0C
0C
0C
0C
0C
0C
0C
0C
0C
0C
0C
0C
0C
0C
0C
0C
0C
0C
FC
ENDCHAR
STARTCHAR 005E
ENCODING 94
SWIDTH 500 0
DWIDTH 16 0
BBX 14 8 1 11
BITMAP
0300
0780
0CC0
1860
1020
3030
6018
C00C
ENDCHAR
STARTCHAR 005F
ENCODING 95
SWIDTH 500 0
DWIDTH 16 0
BBX 16 2 0 -4
BITMAP
FFFF
FFFF
ENDCHAR
STARTCHAR 0060
ENCODING 96
SWIDTH 500 0
DWIDTH 16 0
BBX 5 4 5 19
BITMAP
C0
E0
30
18
ENDCHAR
STARTCHAR 0061
ENCODING 97
SWIDTH 531 0
DWIDTH 17 0
BBX 15 16 2 0
BITMAP
0F80
30E0
6060
7030
7030
0030
03F0
1F30
7030
6030
C030
C030
C030
C070
60B2
3F1C
ENDCHAR
STARTCHAR 0062
ENCODING 98
SWIDTH 593 0
DWIDTH 19 0
BBX 17 24 0 -1
BITMAP
080000
F80000
180000
180000
180000
180000
180000
180000
18F800
1B0C00
1E0600
1C0300
180300
180180
180180
180180
180180
180180
180180
180300
1C0300
1E0600
1B0C00
10F800
ENDCHAR
STARTCHAR 0063
ENCODING 99
SWIDTH 531 0
DWIDTH 17 0
BBX 14 16 2 0
BITMAP
07C0
1830
3018
6038
6038
C000
C000
C000
C000
C000
E000
6000
700C
3838
1FF0
07C0
ENDCHAR
STARTCHAR 0064
ENCODING 100
SWIDTH 625 0
DWIDTH 20 0
BBX 17 24 2 0
BITMAP
000400
007C00
000C00
000C00
000C00
000C00
000C00
000C00
0F8C00
186C00
301C00
601C00
600C00
C00C00
C00C00
C00C00
C00C00
C00C00
C00C00
600C00
601C00
303C00
186C00
0F8F80
ENDCHAR
STARTCHAR 0065
ENCODING 101
SWIDTH 562 0
DWIDTH 18 0
BBX 14 16 2 0
BITMAP
0FC0
1870
3018
6018
600C
C00C
FFFC
C000
C000
C000
C000
6000
600C
3008
1C30
07C0
ENDCHAR
STARTCHAR 0066
ENCODING 102
SWIDTH 312 0
DWIDTH 10 0
BBX 12 23 1 0
BITMAP
03E0
0C70
1870
1800
1800
1800
1800
FF80
1800
1800
1800
1800
1800
1800
1800
1800
1800
1800
1800
1800
1800
3800
FF00
ENDCHAR
STARTCHAR 0067
ENCODING 103
SWIDTH 562 0
DWIDTH 18 0
BBX 15 24 2 -6
BITMAP
000E
003E
0FE0
3070
6030
C018
C018
C018
C018
6030
3060
3FC0
6000
6000
7800
1FE0
3FF8
703C
C00C
C00C
C00C
E018
7030
1FC0
ENDCHAR
STARTCHAR 0068
ENCODING 104
SWIDTH 625 0
DWIDTH 20 0
BBX 18 24 1 0
BITMAP
080000
F80000
180000
180000
180000
180000
180000
180000
18F000
1B1C00
1C0C00
1C0600
180600
180600
180600
180600
180600
180600
180600
180600
180600
180600
180600
FF3FC0
ENDCHAR
STARTCHAR 0069
ENCODING 105
SWIDTH 312 0
DWIDTH 10 0
BBX 8 23 1 0
BITMAP
38
38
38
00
00
00
00
F8
38
18
18
18
18
18
18
18
18
18
18
18
18
18
FF
ENDCHAR
STARTCHAR 006A
ENCODING 106
SWIDTH 312 0
DWIDTH 10 0
BBX 8 29 -2 -6
BITMAP
07
07
07
00
00
00
00
1F
03
03
03
03
03
03
03
03
03
03
03
03
03
03
03
03
03
E3
E3
E6
7C
ENDCHAR
STARTCHAR 006B
ENCODING 107
SWIDTH 562 0
DWIDTH 18 0
BBX 17 24 1 0
BITMAP
080000
F80000
180000
180000
180000
180000
180000
180000
187F00
180E00
181800
183000
186000
188000
1B0000
1F8000
1CC000
18E000
187000
183800
181800
180C00
180E00
FF3F80
ENDCHAR
STARTCHAR 006C
ENCODING 108
SWIDTH 281 0
DWIDTH 9 0
BBX 8 23 1 1
BITMAP
F8
78
18
18
18
18
18
18
18
18
18
18
18
18
18
18
18
18
18
18
18
18
FF
ENDCHAR
STARTCHAR 006D
ENCODING 109
SWIDTH 906 0
DWIDTH 29 0
BBX 27 16 1 0
BITMAP
F8F87C00
1B0C8600
1C0D0200
1C070300
18060300
18060300
18060300
18060300
18060300
18060300
18060300
18060300
18060300
18060300
380E0300
FF3FDFE0
ENDCHAR
STARTCHAR 006E
ENCODING 110
SWIDTH 625 0
DWIDTH 20 0
BBX 19 16 1 0
BITMAP
F8F800
1B0E00
1C0600
1C0300
180300
180300
180300
180300
180300
180300
180300
180300
180300
180300
380700
FF1FE0
ENDCHAR
STARTCHAR 006F
ENCODING 111
SWIDTH 593 0
DWIDTH 19 0
BBX 15 16 2 0
BITMAP
07C0
1830
3018
600C
600C
C006
C006
C006
C006
C006
C006
600C
600C
3018
1830
07C0
ENDCHAR
STARTCHAR 0070
ENCODING 112
SWIDTH 625 0
DWIDTH 20 0
BBX 17 22 1 -5
BITMAP
F8F800
1B0C00
1E0600
1C0300
180300
180180
180180
180180
180180
180180
180180
180300
1C0300
1C0600
1B0C00
18F800
180000
180000
180000
180000
180000
FF0000
ENDCHAR
STARTCHAR 0071
ENCODING 113
SWIDTH 593 0
DWIDTH 19 0
BBX 17 22 2 -5
BITMAP
0FC400
186C00
301C00
600C00
600C00
C00C00
C00C00
C00C00
C00C00
C00C00
C00C00
600C00
601C00
303C00
186C00
0F8C00
000C00
000C00
000C00
000C00
000C00
007F80
ENDCHAR
STARTCHAR 0072
ENCODING 114
SWIDTH 406 0
DWIDTH 13 0
BBX 12 16 1 0
BITMAP
F9F0
1B70
1A70
1C00
1800
1800
1800
1800
1800
1800
1800
1800
1800
1800
3800
FF00
ENDCHAR
STARTCHAR 0073
ENCODING 115
SWIDTH 468 0
DWIDTH 15 0
BBX 12 16 2 0
BITMAP
1FE0
60E0
C060
C020
C020
E000
7800
3F00
07C0
00E0
8070
8030
C030
C030
F060
9F80
ENDCHAR
STARTCHAR 0074
ENCODING 116
SWIDTH 343 0
DWIDTH 11 0
BBX 10 20 0 1
BITMAP
0800
0800
1800
3800
FFC0
1800
1800
1800
1800
1800
1800
1800
1800
1800
1800
1800
1800
1800
1C40
0F80
ENDCHAR
STARTCHAR 0075
ENCODING 117
SWIDTH 593 0
DWIDTH 19 0
BBX 19 16 0 0
BITMAP
F81F00
180300
180300
180300
180300
180300
180300
180300
180300
180300
180300
180300
180700
0C0F00
0E1B00
03E3E0
ENDCHAR
STARTCHAR 0076
ENCODING 118
SWIDTH 531 0
DWIDTH 17 0
BBX 17 16 0 0
BITMAP
FE1F80
380700
380600
180400
1C0C00
0C0800
0C0800
061800
061000
063000
032000
032000
016000
01C000
01C000
008000
ENDCHAR
STARTCHAR 0077
ENCODING 119
SWIDTH 781 0
DWIDTH 25 0
BBX 25 16 0 0
BITMAP
FE7F1F80
381C0600
380C0600
180C0400
1C0E0C00
0C1E0C00
0C160800
0C131800
06231000
06231000
06219000
0341A000
0341A000
0380A000
0180C000
01804000
ENDCHAR
STARTCHAR 0078
ENCODING 120
SWIDTH 531 0
DWIDTH 17 0
BBX 17 16 0 0
BITMAP
FE3F00
380C00
180800
0C1800
063000
036000
03C000
018000
01C000
036000
067000
043000
081800
100C00
300E00
FC3F80
ENDCHAR
STARTCHAR 0079
ENCODING 121
SWIDTH 531 0
DWIDTH 17 0
BBX 17 22 0 -6
BITMAP
FE1F80
380600
380600
180400
1C0C00
0C0800
0C0800
061800
061000
071000
032000
032000
01C000
01C000
00C000
008000
008000
010000
010000
390000
3A0000
3C0000
ENDCHAR
STARTCHAR 007A
ENCODING 122
SWIDTH 468 0
DWIDTH 15 0
BBX 13 16 1 0
BITMAP
7FF0
6030
4060
40E0
41C0
0180
0300
0700
0600
0C00
1C00
1808
3008
7018
E038
FFF8
ENDCHAR
STARTCHAR 007B
ENCODING 123
SWIDTH 343 0
DWIDTH 11 0
BBX 7 30 2 -6
BITMAP
1E
38
30
30
30
30
30
30
30
30
30
30
30
60
C0
E0
20
30
30
30
30
30
30
30
30
30
30
30
38
1E
ENDCHAR
STARTCHAR 007C
ENCODING 124
SWIDTH 187 0
DWIDTH 6 0
BBX 2 29 2 -6
BITMAP
C0
C0
C0
C0
C0
C0
C0
C0
C0
C0
C0
C0
C0
C0
C0
C0
C0
C0
C0
C0
C0
C0
C0
C0
C0
C0
C0
C0
C0
ENDCHAR
STARTCHAR 007D
ENCODING 125
SWIDTH 343 0
DWIDTH 11 0
BBX 7 30 2 -6
BITMAP
F0
30
18
18
18
18
18
18
18
18
18
18
18
0C
06
0E
08
18
18
18
18
18
18
18
18
18
18
18
38
F0
ENDCHAR
STARTCHAR 007E
ENCODING 126
SWIDTH 500 0
DWIDTH 16 0
BBX 9 3 4 20
BITMAP
7000
9880
8700
ENDCHAR
STARTCHAR 00A0
ENCODING 160
SWIDTH 281 0
DWIDTH 9 0
BBX 0 0 0 0
BITMAP
ENDCHAR
STARTCHAR 00A1
ENCODING 161
SWIDTH 281 0
DWIDTH 9 0
BBX 4 23 3 0
BITMAP
F0
F0
F0
60
00
00
40
40
40
40
40
40
60
E0
E0
E0
E0
E0
E0
E0
E0
E0
40
ENDCHAR
STARTCHAR 00A2
ENCODING 162
SWIDTH 562 0
DWIDTH 18 0
BBX 15 23 2 2
BITMAP
0020
0060
0040
07F0
1CD8
309C
609C
609C
C180
C100
C100
C300
C200
C200
6602
7404
3C08
1C10
0FE0
0800
1800
1000
1000
ENDCHAR
STARTCHAR 00A3
ENCODING 163
SWIDTH 750 0
DWIDTH 24 0
BBX 18 23 3 1
BITMAP
00F800
030600
060300
0C0700
0C0700
0C0000
0C0000
0C0000
060000
060000
7FFC00
030000
030000
018000
018000
018000
3D8000
478000
81C040
81F040
8338C0
431F80
3C0700
ENDCHAR
STARTCHAR 00A4
ENCODING 164
SWIDTH 625 0
DWIDTH 20 0
BBX 14 14 3 3
BITMAP
CF8C
7878
2010
4008
8004
8004
8004
8004
8004
4008
6018
7078
DFEC
8F84
ENDCHAR
STARTCHAR 00A5
ENCODING 165
SWIDTH 625 0
DWIDTH 20 0
BBX 20 23 0 0
BITMAP
FF07F0
3C00C0
1C0080
0C0180
0E0100
060200
070600
038400
018800
01D800
00D000
3FFFC0
006000
006000
3FFFC0
006000
006000
006000
006000
006000
006000
00F000
03FC00
ENDCHAR
STARTCHAR 00A6
ENCODING 166
SWIDTH 187 0
DWIDTH 6 0
BBX 2 29 2 -6
BITMAP
C0
C0
C0
C0
C0
C0
C0
C0
C0
C0
C0
C0
C0
00
00
00
00
C0
C0
C0
C0
C0
C0
C0
C0
C0
C0
C0
C0
ENDCHAR
STARTCHAR 00A7
ENCODING 167
SWIDTH 687 0
DWIDTH 22 0
BBX 14 29 4 -2
BITMAP
07C0
1860
3030
6038
6038
6038
7000
3800
3C00
1F00
17C0
61F0
C078
C01C
C01C
E00C
780C
3E08
0F98
03E0
00F0
0038
001C
F00C
F00C
E00C
6018
3030
0FC0
ENDCHAR
STARTCHAR 00A8
ENCODING 168
SWIDTH 500 0
DWIDTH 16 0
BBX 8 3 4 20
BITMAP
E7
E7
E7
ENDCHAR
STARTCHAR 00A9
ENCODING 169
SWIDTH 1000 0
DWIDTH 32 0
BBX 26 26 3 -1
BITMAP
003F0000
01C0E000
06001800
0C000C00
10000600
303F2300
20E1E100
41806080
43006080
830020C0
86000040
86000040
86000040
86000040
86000040
86000040
86003040
43002080
43006080
21804100
30C18300
103F0200
08000C00
06001800
0180E000
007F8000
ENDCHAR
STARTCHAR 00AA
ENCODING 170
SWIDTH 406 0
DWIDTH 13 0
BBX 11 13 1 10
BITMAP
3F00
7180
7180
0180
1F80
7180
6180
6180
63A0
3CE0
0000
0000
FFC0
ENDCHAR
STARTCHAR 00AB
ENCODING 171
SWIDTH 500 0
DWIDTH 16 0
BBX 11 13 3 4
BITMAP
1860
1040
30C0
6180
6180
C300
C700
C300
6180
2080
30C0
1040
0820
ENDCHAR
STARTCHAR 00AC
ENCODING 172
SWIDTH 687 0
DWIDTH 22 0
BBX 16 7 2 6
BITMAP
FFFF
0003
0003
0003
0003
0003
0003
ENDCHAR
STARTCHAR 00AD
ENCODING 173
SWIDTH 687 0
DWIDTH 22 0
BBX 17 1 2 10
BITMAP
FFFF80
ENDCHAR
STARTCHAR 00AE
ENCODING 174
SWIDTH 1000 0
DWIDTH 32 0
BBX 27 26 2 -1
BITMAP
003F8000
01C07000
03000800
0C000600
18000300
31FF8180
2060E080
40607040
40603040
80603060
80603020
80606020
807FC020
807F0020
80618020
8061C020
C060C040
40606040
40607040
20603080
31F83D00
18000300
0C000600
02000C00
01C07000
003F8000
ENDCHAR
STARTCHAR 00AF
ENCODING 175
SWIDTH 500 0
DWIDTH 16 0
BBX 8 1 4 20
BITMAP
FF
ENDCHAR
STARTCHAR 00B0
ENCODING 176
SWIDTH 312 0
DWIDTH 10 0
BBX 7 7 1 20
BITMAP
38
44
82
82
82
44
38
ENDCHAR
STARTCHAR 00B1
ENCODING 177
SWIDTH 687 0
DWIDTH 22 0
BBX 18 18 2 3
BITMAP
00C000
00C000
00C000
00C000
00C000
00C000
FFFFC0
00C000
00C000
00C000
00C000
00C000
00C000
00C000
00C000
000000
000000
FFFFC0
ENDCHAR
STARTCHAR 00B2
ENCODING 178
SWIDTH 375 0
DWIDTH 12 0
BBX 8 11 2 12
BITMAP
3C
C7
C3
C3
07
0E
18
20
41
83
FF
ENDCHAR
STARTCHAR 00B3
ENCODING 179
SWIDTH 375 0
DWIDTH 12 0
BBX 8 12 2 11
BITMAP
3C
C7
C3
C3
06
1C
06
03
C3
C3
C6
3C
ENDCHAR
STARTCHAR 00B4
ENCODING 180
SWIDTH 500 0
DWIDTH 16 0
BBX 5 5 7 18
BITMAP
10
38
70
60
80
ENDCHAR
STARTCHAR 00B6
ENCODING 182
SWIDTH 1000 0
DWIDTH 32 0
BBX 13 28 8 -2
BITMAP
1FF8
3E08
7E08
FE08
FE08
FE08
FE08
FE08
7E08
3E08
0E08
0208
0208
0208
0208
0208
0208
0208
0208
0208
0208
0208
0208
0208
0208
0208
0208
0208
ENDCHAR
STARTCHAR 00B7
ENCODING 183
SWIDTH 250 0
DWIDTH 8 0
BBX 3 3 2 8
BITMAP
E0
E0
E0
ENDCHAR
STARTCHAR 00B8
ENCODING 184
SWIDTH 500 0
DWIDTH 16 0
BBX 6 7 5 -7
BITMAP
20
60
78
0C
0C
1C
F8
ENDCHAR
STARTCHAR 00B9
ENCODING 185
SWIDTH 375 0
DWIDTH 12 0
BBX 6 12 3 11
BITMAP
10
F0
30
30
30
30
30
30
30
30
30
FC
ENDCHAR
STARTCHAR 00BA
ENCODING 186
SWIDTH 406 0
DWIDTH 13 0
BBX 10 13 2 10
BITMAP
1E00
6180
4080
C0C0
C0C0
C0C0
C0C0
4080
6180
1E00
0000
0000
FFC0
ENDCHAR
STARTCHAR 00BB
ENCODING 187
SWIDTH 500 0
DWIDTH 16 0
BBX 12 13 2 4
BITMAP
4100
6100
2080
30C0
1860
1860
1C70
1860
30C0
30C0
6180
4100
C200
ENDCHAR
STARTCHAR 00BC
ENCODING 188
SWIDTH 781 0
DWIDTH 25 0
BBX 20 23 3 0
BITMAP
700060
F000C0
300080
300180
300300
300600
300400
300C00
301800
303000
302000
FC6040
00C0C0
0081C0
010340
030240
060440
040C40
081840
181FF0
300040
200040
6001F0
ENDCHAR
STARTCHAR 00BD
ENCODING 189
SWIDTH 781 0
DWIDTH 25 0
BBX 20 23 3 0
BITMAP
700060
F000C0
300180
300100
300300
300600
300C00
300800
301800
303000
302000
FC63C0
00C460
018C30
010C30
030C30
060060
0400C0
080380
180600
300410
200810
600FF0
ENDCHAR
STARTCHAR 00BE
ENCODING 190
SWIDTH 781 0
DWIDTH 25 0
BBX 20 23 3 0
BITMAP
3C0060
C700C0
C30080
C30180
060300
3C0200
060400
030C00
C30800
C31000
C63000
7C6040
0040C0
00C1C0
018340
010240
030440
060C40
041840
0C1FF0
180040
100040
2001F0
ENDCHAR
STARTCHAR 00BF
ENCODING 191
SWIDTH 500 0
DWIDTH 16 0
BBX 13 23 2 0
BITMAP
0300
0780
0780
0300
0000
0000
0100
0300
0300
0200
0600
0C00
3800
7000
6000
C070
C078
C078
C018
C010
6030
3060
0F80
ENDCHAR
STARTCHAR 00C0
ENCODING 192
SWIDTH 718 0
DWIDTH 23 0
BBX 23 29 0 1
BITMAP
018000
01C000
00E000
003000
000000
000000
001000
001800
003800
003C00
006C00
004C00
004E00
00C600
008700
018300
018300
010380
030180
0201C0
07FFC0
0600C0
0400E0
0C0060
0C0070
180030
180030
380038
FE01FE
ENDCHAR
STARTCHAR 00C1
ENCODING 193
SWIDTH 718 0
DWIDTH 23 0
BBX 23 29 0 1
BITMAP
000200
000700
000C00
001800
000000
000000
001000
001800
003800
003C00
006C00
004C00
004E00
00C600
008700
018300
018300
010380
030180
0201C0
07FFC0
0600C0
0400E0
0C0060
0C0070
180030
180030
380038
FE01FE
ENDCHAR
STARTCHAR 00C2
ENCODING 194
SWIDTH 718 0
DWIDTH 23 0
BBX 23 28 0 1
BITMAP
003800
006C00
00C300
000000
000000
001000
001800
003800
003800
006C00
006C00
004E00
00C600
008600
018300
018300
010380
030180
020180
07FFC0
0600C0
0400E0
0C0060
0C0060
180030
180030
380038
FE01FE
ENDCHAR
STARTCHAR 00C3
ENCODING 195
SWIDTH 718 0
DWIDTH 23 0
BBX 23 28 0 0
BITMAP
00F000
00F880
011F80
000700
000000
001000
001800
003800
003800
006C00
006C00
004E00
00C600
008600
018300
018300
010380
030180
020180
07FFC0
0600C0
0400E0
0C0060
0C0060
180030
180030
380038
FE01FE
ENDCHAR
STARTCHAR 00C4
ENCODING 196
SWIDTH 718 0
DWIDTH 23 0
BBX 23 28 0 0
BITMAP
01C700
01C700
01C700
000000
000000
001000
001800
003800
003800
006C00
006C00
004E00
00C600
008600
018300
018300
010380
030180
020180
07FFC0
0600C0
0400E0
0C0060
0C0060
180030
180030
380038
FE01FE
ENDCHAR
STARTCHAR 00C5
ENCODING 197
SWIDTH 718 0
DWIDTH 23 0
BBX 23 29 0 0
BITMAP
003800
004400
004400
004400
003800
000000
001000
001800
003800
003C00
006C00
004C00
004E00
00C600
008700
018300
018300
010380
030180
0201C0
07FFC0
0600C0
0400E0
0C0060
0C0070
180030
180030
380038
FE01FE
ENDCHAR
STARTCHAR 00C6
ENCODING 198
SWIDTH 968 0
DWIDTH 31 0
BBX 29 23 0 0
BITMAP
007FFFF8
000D8078
000D8018
00098018
00198008
00198008
00318000
00318100
00618100
00618300
00C1FF00
00FF8300
01818100
01818100
03018100
03018000
06018008
06018008
0C018008
0C018008
18018018
3803C078
FF0FFFF8
ENDCHAR
STARTCHAR 00C7
ENCODING 199
SWIDTH 718 0
DWIDTH 23 0
BBX 21 32 1 -9
BITMAP
00FC00
038310
0E00D0
1C0070
380030
300030
700010
700010
E00000
E00000
E00000
E00000
E00000
E00000
E00000
E00000
700008
700018
700010
380030
1C0060
0E00C0
078180
01FE00
003000
006000
007800
001E00
000600
000600
000E00
00F800
ENDCHAR
STARTCHAR 00C8
ENCODING 200
SWIDTH 687 0
DWIDTH 22 0
BBX 19 29 2 1
BITMAP
060000
070000
018000
00E000
000000
000000
FFFFC0
3C01C0
1800C0
180040
180040
180040
180000
180800
180800
181800
1FF800
181800
180800
180800
180800
180000
180020
180060
180040
180040
1800C0
3C03C0
FFFFC0
ENDCHAR
STARTCHAR 00C9
ENCODING 201
SWIDTH 687 0
DWIDTH 22 0
BBX 19 29 2 1
BITMAP
000C00
001C00
003000
006000
000000
000000
FFFFC0
3C01C0
1800C0
180040
180040
180040
180000
180800
180800
181800
1FF800
181800
180800
180800
180800
180000
180020
180060
180040
180040
1800C0
3C03C0
FFFFC0
ENDCHAR
STARTCHAR 00CA
ENCODING 202
SWIDTH 687 0
DWIDTH 22 0
BBX 19 29 2 1
BITMAP
00E000
01F000
031800
020400
000000
000000
FFFFC0
3C01C0
1800C0
180040
180040
180040
180000
180800
180800
181800
1FF800
181800
180800
180800
180800
180000
180020
180060
180040
180040
1800C0
3C03C0
FFFFC0
ENDCHAR
STARTCHAR 00CB
ENCODING 203
SWIDTH 687 0
DWIDTH 22 0
BBX 19 28 2 0
BITMAP
070E00
070E00
070E00
000000
000000
FFFFC0
3C01C0
1800C0
180040
180040
180040
180000
180800
180800
181800
1FF800
181800
180800
180800
180800
180000
180020
180060
180040
180040
1800C0
3C03C0
FFFFC0
ENDCHAR
STARTCHAR 00CC
ENCODING 204
SWIDTH 375 0
DWIDTH 12 0
BBX 8 29 2 1
BITMAP
C0
E0
70
18
00
00
FF
3C
18
18
18
18
18
18
18
18
18
18
18
18
18
18
18
18
18
18
18
3C
FF
ENDCHAR
STARTCHAR 00CD
ENCODING 205
SWIDTH 375 0
DWIDTH 12 0
BBX 8 29 2 1
BITMAP
03
07
0E
18
10
00
FF
3C
18
18
18
18
18
18
18
18
18
18
18
18
18
18
18
18
18
18
18
3C
FF
ENDCHAR
STARTCHAR 00CE
ENCODING 206
SWIDTH 375 0
DWIDTH 12 0
BBX 8 29 2 1
BITMAP
18
3C
66
81
00
00
FF
3C
18
18
18
18
18
18
18
18
18
18
18
18
18
18
18
18
18
18
18
3C
FF
ENDCHAR
STARTCHAR 00CF
ENCODING 207
SWIDTH 375 0
DWIDTH 12 0
BBX 10 28 1 0
BITMAP
E1C0
E1C0
E1C0
0000
0000
7F80
1E00
0C00
0C00
0C00
0C00
0C00
0C00
0C00
0C00
0C00
0C00
0C00
0C00
0C00
0C00
0C00
0C00
0C00
0C00
0C00
1E00
7F80
ENDCHAR
STARTCHAR 00D0
ENCODING 208
SWIDTH 781 0
DWIDTH 25 0
BBX 21 23 2 0
BITMAP
FFF800
3C0F00
180380
1800C0
1800E0
180070
180070
180030
180038
180038
180038
FFE038
180038
180038
180038
180038
180070
180070
1800E0
1800C0
180380
3C0F00
FFFC00
ENDCHAR
STARTCHAR 00D1
ENCODING 209
SWIDTH 812 0
DWIDTH 26 0
BBX 23 28 2 -1
BITMAP
00E100
01FF00
001E00
000000
000000
FC01FE
3E0078
1E0030
1B0030
1B8030
198030
18C030
18E030
186030
187030
183030
181830
181C30
180C30
180630
180730
180330
1801B0
1801F0
1800F0
1800F0
3C0070
FF0030
ENDCHAR
STARTCHAR 00D2
ENCODING 210
SWIDTH 812 0
DWIDTH 26 0
BBX 22 29 2 1
BITMAP
010000
038000
00E000
007000
000000
00FC00
070380
0E01C0
1C00E0
380070
300030
700038
700038
E0001C
E0001C
E0001C
E0001C
E0001C
E0001C
E0001C
E0001C
700038
700038
300030
380070
1C00E0
0E01C0
070380
00FC00
ENDCHAR
STARTCHAR 00D3
ENCODING 211
SWIDTH 812 0
DWIDTH 26 0
BBX 22 29 2 1
BITMAP
000600
000E00
001C00
003000
002000
00FC00
070380
0E01C0
1C00E0
380070
300030
700038
700038
E0001C
E0001C
E0001C
E0001C
E0001C
E0001C
E0001C
E0001C
700038
700038
300030
380070
1C00E0
0E01C0
070380
00FC00
ENDCHAR
STARTCHAR 00D4
ENCODING 212
SWIDTH 812 0
DWIDTH 26 0
BBX 22 29 2 1
BITMAP
003000
00F800
01CC00
010200
000000
00FC00
070380
0E01C0
1C00E0
380070
300030
700038
700038
E0001C
E0001C
E0001C
E0001C
E0001C
E0001C
E0001C
E0001C
700038
700038
300030
380070
1C00E0
0E01C0
070380
00FC00
ENDCHAR
STARTCHAR 00D5
ENCODING 213
SWIDTH 812 0
DWIDTH 26 0
BBX 22 28 2 0
BITMAP
01E100
03FF00
001E00
000000
00FC00
070380
0E01C0
1C00E0
380070
300030
700038
700038
E0001C
E0001C
E0001C
E0001C
E0001C
E0001C
E0001C
E0001C
700038
700038
300030
380070
1C00E0
0E01C0
070380
00FC00
ENDCHAR
STARTCHAR 00D6
ENCODING 214
SWIDTH 812 0
DWIDTH 26 0
BBX 22 28 2 0
BITMAP
038700
038700
038700
000000
00FC00
070380
0E01C0
1C00E0
380070
300030
700038
700038
E0001C
E0001C
E0001C
E0001C
E0001C
E0001C
E0001C
E0001C
700038
700038
300030
380070
1C00E0
0E01C0
070380
00FC00
ENDCHAR
STARTCHAR 00D7
ENCODING 215
SWIDTH 687 0
DWIDTH 22 0
BBX 12 13 5 4
BITMAP
8010
C030
6060
30C0
1980
0F00
0600
0F00
1980
30C0
6060
C030
8010
ENDCHAR
STARTCHAR 00D8
ENCODING 216
SWIDTH 812 0
DWIDTH 26 0
BBX 22 24 2 -1
BITMAP
00FC00
070318
0E01B0
1C00E0
3800E0
3000B0
7001B8
700338
E00618
E00C1C
E0081C
E0101C
E0301C
E0601C
E0C01C
E1801C
610038
730038
760030
3C0070
3800E0
1C01C0
3F0380
61FC00
ENDCHAR
STARTCHAR 00D9
ENCODING 217
SWIDTH 781 0
DWIDTH 25 0
BBX 24 29 1 1
BITMAP
008000
01E000
007000
001800
000000
000000
FF00FF
3C003C
180018
180018
180018
180018
180018
180018
180018
180018
180018
180018
180018
180018
180018
180018
180018
1C0038
0C0030
0E0070
0781E0
03FFC0
00FF00
ENDCHAR
STARTCHAR 00DA
ENCODING 218
SWIDTH 781 0
DWIDTH 25 0
BBX 24 29 1 1
BITMAP
000300
000700
000E00
001800
001000
000000
FF00FF
3C003C
180018
180018
180018
180018
180018
180018
180018
180018
180018
180018
180018
180018
180018
180018
180018
1C0038
0C0030
0E0070
0781E0
03FFC0
00FF00
ENDCHAR
STARTCHAR 00DB
ENCODING 219
SWIDTH 781 0
DWIDTH 25 0
BBX 24 29 1 1
BITMAP
001800
003C00
00E700
008100
000000
000000
FF00FF
3C003C
180018
180018
180018
180018
180018
180018
180018
180018
180018
180018
180018
180018
180018
180018
180018
1C0038
0C0030
0E0070
0781E0
03FFC0
00FF00
ENDCHAR
STARTCHAR 00DC
ENCODING 220
SWIDTH 781 0
DWIDTH 25 0
BBX 24 28 1 0
BITMAP
01C380
01C380
01C380
000000
000000
FF00FF
3C003C
180018
180018
180018
180018
180018
180018
180018
180018
180018
180018
180018
180018
180018
180018
180018
1C0038
0C0030
0E0070
0781E0
03FFC0
00FF00
ENDCHAR
STARTCHAR 00DD
ENCODING 221
SWIDTH 687 0
DWIDTH 22 0
BBX 22 29 0 1
BITMAP
000300
000700
000C00
001800
000000
000000
FF83FC
3C0070
1C0060
0C00C0
0E0080
070180
030100
038300
018600
01C600
00CC00
006800
007800
003000
003000
003000
003000
003000
003000
003000
003000
007800
01FE00
ENDCHAR
STARTCHAR 00DE
ENCODING 222
SWIDTH 687 0
DWIDTH 22 0
BBX 19 23 2 0
BITMAP
FF0000
3C0000
180000
180000
1F0000
1FFE00
180780
1801C0
1800C0
180060
180060
180060
180060
180060
1800C0
180180
180700
1FFC00
180000
180000
180000
3C0000
FF0000
ENDCHAR
STARTCHAR 00DF
ENCODING 223
SWIDTH 562 0
DWIDTH 18 0
BBX 16 23 0 0
BITMAP
03F0
0638
0C1C
180C
180C
180C
180C
1818
1818
1860
18C0
1838
180C
1806
1807
1803
1803
1803
1803
1803
18C6
18CE
FE78
ENDCHAR
STARTCHAR 00E0
ENCODING 224
SWIDTH 531 0
DWIDTH 17 0
BBX 15 23 2 1
BITMAP
1800
1C00
0600
0100
0000
0000
0000
0F80
30E0
6060
7030
7030
0030
03F0
1E30
7030
6030
C030
C030
C030
C070
61B2
3F1C
ENDCHAR
STARTCHAR 00E1
ENCODING 225
SWIDTH 531 0
DWIDTH 17 0
BBX 15 23 2 1
BITMAP
00C0
01C0
0300
0400
0000
0000
0000
0F80
30E0
6060
7030
7030
0030
03F0
1E30
7030
6030
C030
C030
C030
C070
61B2
3F1C
ENDCHAR
STARTCHAR 00E2
ENCODING 226
SWIDTH 531 0
DWIDTH 17 0
BBX 15 23 2 0
BITMAP
0200
0F00
1D80
1040
0000
0000
0000
0F80
30E0
6060
7030
7030
0030
03F0
1E30
7030
6030
C030
C030
C030
C070
61B2
3F1C
ENDCHAR
STARTCHAR 00E3
ENCODING 227
SWIDTH 531 0
DWIDTH 17 0
BBX 15 23 2 0
BITMAP
1C00
3320
21C0
0000
0000
0000
0000
0F80
30E0
6060
7030
7030
0030
03F0
1E30
7030
6030
C030
C030
C030
C070
61B2
3F1C
ENDCHAR
STARTCHAR 00E4
ENCODING 228
SWIDTH 531 0
DWIDTH 17 0
BBX 15 23 2 0
BITMAP
38E0
38E0
38E0
0000
0000
0000
0000
0F80
30E0
6060
7030
7030
0030
03F0
1E30
7030
6030
C030
C030
C030
C070
61B2
3F1C
ENDCHAR
STARTCHAR 00E5
ENCODING 229
SWIDTH 531 0
DWIDTH 17 0
BBX 14 23 2 0
BITMAP
0700
0880
0880
0700
0000
0000
0000
0F80
30E0
6060
7030
7030
0030
03F0
1E30
7030
6030
C030
C030
C030
C070
61B0
3F1C
ENDCHAR
STARTCHAR 00E6
ENCODING 230
SWIDTH 843 0
DWIDTH 27 0
BBX 24 16 2 0
BITMAP
0F83F0
30EE18
70780C
703806
703006
003006
07FFFF
383000
603000
C03000
C03000
C03802
C03802
E04C06
618E0C
3F03F0
ENDCHAR
STARTCHAR 00E7
ENCODING 231
SWIDTH 531 0
DWIDTH 17 0
BBX 13 23 2 -8
BITMAP
0FC0
1830
3018
6038
6038
C000
C000
C000
C000
C000
C000
6000
7008
3838
1FF0
07C0
0300
0200
07C0
0060
0060
00E0
0F80
ENDCHAR
STARTCHAR 00E8
ENCODING 232
SWIDTH 562 0
DWIDTH 18 0
BBX 14 23 2 1
BITMAP
0C00
0E00
0300
0180
0000
0000
0000
0FC0
1870
3018
6018
600C
C00C
FFFC
C000
C000
C000
C000
6000
600C
3008
1C30
07E0
ENDCHAR
STARTCHAR 00E9
ENCODING 233
SWIDTH 562 0
DWIDTH 18 0
BBX 14 23 2 1
BITMAP
0060
00C0
0380
0200
0000
0000
0000
0FC0
1870
3018
6018
600C
C00C
FFFC
C000
C000
C000
C000
6000
600C
3008
1C30
07E0
ENDCHAR
STARTCHAR 00EA
ENCODING 234
SWIDTH 562 0
DWIDTH 18 0
BBX 14 23 2 0
BITMAP
0300
0780
0CC0
1820
0000
0000
0000
0FC0
1870
3018
6018
600C
C00C
FFFC
C000
C000
C000
C000
6000
600C
3008
1C30
07E0
ENDCHAR
STARTCHAR 00EB
ENCODING 235
SWIDTH 562 0
DWIDTH 18 0
BBX 14 23 2 0
BITMAP
1C70
1C70
1C70
0000
0000
0000
0000
0FC0
1870
3018
6018
600C
C00C
FFFC
C000
C000
C000
C000
6000
600C
3008
1C30
07E0
ENDCHAR
STARTCHAR 00EC
ENCODING 236
SWIDTH 312 0
DWIDTH 10 0
BBX 8 24 1 0
BITMAP
40
40
E0
30
18
00
00
00
F8
18
18
18
18
18
18
18
18
18
18
18
18
18
18
FF
ENDCHAR
STARTCHAR 00ED
ENCODING 237
SWIDTH 312 0
DWIDTH 10 0
BBX 8 23 1 1
BITMAP
06
0E
1C
30
00
00
00
F8
18
18
18
18
18
18
18
18
18
18
18
18
18
18
FF
ENDCHAR
STARTCHAR 00EE
ENCODING 238
SWIDTH 312 0
DWIDTH 10 0
BBX 8 22 1 1
BITMAP
38
7C
C6
80
00
00
F8
18
18
18
18
18
18
18
18
18
18
18
18
18
18
FF
ENDCHAR
STARTCHAR 00EF
ENCODING 239
SWIDTH 312 0
DWIDTH 10 0
BBX 8 23 1 0
BITMAP
E7
E7
E7
00
00
00
00
F8
18
18
18
18
18
18
18
18
18
18
18
18
18
18
FF
ENDCHAR
STARTCHAR 00F0
ENCODING 240
SWIDTH 562 0
DWIDTH 18 0
BBX 15 23 2 1
BITMAP
3CE0
0780
0780
0CC0
3060
0030
0038
07F8
183C
301C
600E
600E
C006
C006
C006
C006
C006
C006
600C
600C
3018
1830
07C0
ENDCHAR
STARTCHAR 00F1
ENCODING 241
SWIDTH 625 0
DWIDTH 20 0
BBX 19 23 1 0
BITMAP
038000
04C400
046400
003800
000000
000000
000000
F8F800
1B0E00
1C0600
1C0300
180300
180300
180300
180300
180300
180300
180300
180300
180300
180300
180300
FF1FE0
ENDCHAR
STARTCHAR 00F2
ENCODING 242
SWIDTH 593 0
DWIDTH 19 0
BBX 15 23 2 1
BITMAP
0C00
0E00
0300
0080
0000
0000
0000
07C0
1830
3018
600C
600C
C006
C006
C006
C006
C006
C006
600C
600C
3018
1830
07C0
ENDCHAR
STARTCHAR 00F3
ENCODING 243
SWIDTH 593 0
DWIDTH 19 0
BBX 15 23 2 1
BITMAP
0060
00E0
0180
0200
0000
0000
0000
07C0
1830
3018
600C
600C
C006
C006
C006
C006
C006
C006
600C
600C
3018
1830
07C0
ENDCHAR
STARTCHAR 00F4
ENCODING 244
SWIDTH 593 0
DWIDTH 19 0
BBX 15 23 2 0
BITMAP
0300
0780
0CC0
0820
0000
0000
0000
07C0
1830
3018
600C
600C
C006
C006
C006
C006
C006
C006
600C
600C
3018
1830
07C0
ENDCHAR
STARTCHAR 00F5
ENCODING 245
SWIDTH 593 0
DWIDTH 19 0
BBX 15 23 2 0
BITMAP
0E00
1990
10E0
0000
0000
0000
0000
07C0
1830
3018
600C
600C
C006
C006
C006
C006
C006
C006
600C
600C
3018
1830
07C0
ENDCHAR
STARTCHAR 00F6
ENCODING 246
SWIDTH 593 0
DWIDTH 19 0
BBX 15 23 2 0
BITMAP
1C70
1C70
1C70
0000
0000
0000
0000
07C0
1830
3018
600C
600C
C006
C006
C006
C006
C006
C006
600C
600C
3018
1830
07C0
ENDCHAR
STARTCHAR 00F7
ENCODING 247
SWIDTH 687 0
DWIDTH 22 0
BBX 17 14 2 3
BITMAP
00C000
01E000
01E000
00C000
000000
000000
FFFF80
000000
000000
000000
00C000
01E000
01E000
00C000
ENDCHAR
STARTCHAR 00F8
ENCODING 248
SWIDTH 593 0
DWIDTH 19 0
BBX 15 16 2 0
BITMAP
07EC
1838
3018
602C
606C
C0C6
C186
C106
C206
C606
CC06
780C
700C
3018
7830
CFC0
ENDCHAR
STARTCHAR 00F9
ENCODING 249
SWIDTH 593 0
DWIDTH 19 0
BBX 19 23 0 1
BITMAP
030000
038000
01C000
006000
000000
000000
000000
F81F00
180300
180300
180300
180300
180300
180300
180300
180300
180300
180300
180300
180700
0C0F00
0E1B00
03E3E0
ENDCHAR
STARTCHAR 00FA
ENCODING 250
SWIDTH 593 0
DWIDTH 19 0
BBX 19 23 0 1
BITMAP
001800
003800
006000
00C000
000000
000000
000000
F81F00
180300
180300
180300
180300
180300
180300
180300
180300
180300
180300
180300
180700
0C0F00
0E1B00
03E3E0
ENDCHAR
STARTCHAR 00FB
ENCODING 251
SWIDTH 593 0
DWIDTH 19 0
BBX 19 22 0 1
BITMAP
00E000
03F000
061800
000000
000000
000000
F81F00
180300
180300
180300
180300
180300
180300
180300
180300
180300
180300
180300
180700
0C0F00
0E1B00
03E3E0
ENDCHAR
STARTCHAR 00FC
ENCODING 252
SWIDTH 593 0
DWIDTH 19 0
BBX 19 23 0 0
BITMAP
071C00
071C00
071C00
000000
000000
000000
000000
F81F00
180300
180300
180300
180300
180300
180300
180300
180300
180300
180300
180300
180700
0C0F00
0E1B00
03E3E0
ENDCHAR
STARTCHAR 00FD
ENCODING 253
SWIDTH 531 0
DWIDTH 17 0
BBX 17 29 0 -5
BITMAP
003800
007000
00E000
008000
000000
000000
000000
FE1F80
380600
380600
180400
1C0C00
0C0800
0C0800
061800
061000
071000
032000
032000
01E000
01C000
00C000
008000
008000
010000
010000
390000
3A0000
1C0000
ENDCHAR
STARTCHAR 00FE
ENCODING 254
SWIDTH 593 0
DWIDTH 19 0
BBX 17 30 0 -6
BITMAP
080000
F80000
180000
180000
180000
180000
180000
180000
18F800
1B0C00
1E0600
1C0300
180300
180180
180180
180180
180180
180180
180180
180300
1C0300
1C0600
1B0C00
18F800
180000
180000
180000
180000
1C0000
FF0000
ENDCHAR
STARTCHAR 00FF
ENCODING 255
SWIDTH 531 0
DWIDTH 17 0
BBX 17 29 0 -6
BITMAP
073800
073800
073800
000000
000000
000000
000000
FE1F80
380600
380600
180400
1C0C00
0C0800
0C0800
061800
061000
071000
032000
032000
01E000
01C000
00C000
008000
008000
010000
010000
390000
3A0000
1C0000
ENDCHAR
STARTCHAR 0100
ENCODING 256
SWIDTH 718 0
DWIDTH 23 0
BBX 23 28 0 0
BITMAP
00FF00
000000
000000
000000
001000
001800
003800
003800
003C00
006C00
004E00
00C600
00C600
008700
018300
018300
030380
030180
0201C0
07FFC0
0600C0
0400E0
0C0060
0C0070
180030
180030
380038
FE01FE
ENDCHAR
STARTCHAR 0101
ENCODING 257
SWIDTH 531 0
DWIDTH 17 0
BBX 15 21 2 0
BITMAP
1FE0
0000
0000
0000
0000
0F80
30E0
6060
7030
7030
0030
07F0
1C30
7030
E030
C030
C030
C030
C070
61B2
3E1C
ENDCHAR
STARTCHAR 0102
ENCODING 258
SWIDTH 718 0
DWIDTH 23 0
BBX 23 28 0 1
BITMAP
018300
00FE00
007C00
000000
000000
001000
001800
003800
003800
006C00
006C00
004E00
00C600
008600
018300
018300
010380
030180
020180
07FFC0
0600C0
0400E0
0C0060
0C0060
180030
180030
380038
FE01FE
ENDCHAR
STARTCHAR 0103
ENCODING 259
SWIDTH 531 0
DWIDTH 17 0
BBX 15 23 2 0
BITMAP
1020
1040
0F80
0000
0000
0000
0000
0F80
30E0
6060
7030
7030
0030
07F0
1C30
7030
E030
C030
C030
C030
C070
61B2
3E1C
ENDCHAR
STARTCHAR 0104
ENCODING 260
SWIDTH 718 0
DWIDTH 23 0
BBX 23 30 0 -7
BITMAP
001000
001800
003800
003800
006C00
006C00
004E00
00C600
008600
018300
018300
010380
030180
020180
07FFC0
0600C0
0400E0
0C0060
0C0060
180030
180030
380038
FE01FE
000030
000060
0000C0
000180
000180
00018C
0000F0
ENDCHAR
STARTCHAR 0105
ENCODING 261
SWIDTH 531 0
DWIDTH 17 0
BBX 15 23 2 -7
BITMAP
0F80
30E0
6060
7030
7030
0030
03F0
1E30
7030
6030
C030
C030
C030
C070
61B2
3F14
0018
0030
0060
00C0
00C0
00C6
0078
ENDCHAR
STARTCHAR 0106
ENCODING 262
SWIDTH 718 0
DWIDTH 23 0
BBX 21 29 1 1
BITMAP
000600
000E00
001C00
003000
000000
00FC00
038310
0E00D0
1C0070
380030
300030
700010
700010
E00000
E00000
E00000
E00000
E00000
E00000
E00000
F00000
700008
700018
380010
3C0030
1E0060
0F81C0
07FF80
00FE00
ENDCHAR
STARTCHAR 0107
ENCODING 263
SWIDTH 531 0
DWIDTH 17 0
BBX 14 23 2 1
BITMAP
0060
00C0
0180
0200
0000
0000
0000
0FC0
1830
3018
6038
6038
C000
C000
C000
C000
C000
C000
6000
700C
3838
1FF0
07C0
ENDCHAR
STARTCHAR 0108
ENCODING 264
SWIDTH 718 0
DWIDTH 23 0
BBX 21 29 1 1
BITMAP
003800
007C00
00C600
010200
000000
00FC00
038310
0E00D0
1C0070
380030
300030
700010
700010
E00000
E00000
E00000
E00000
E00000
E00000
E00000
F00000
700008
700018
380010
3C0030
1E0060
0F81C0
07FF80
00FE00
ENDCHAR
STARTCHAR 0109
ENCODING 265
SWIDTH 531 0
DWIDTH 17 0
BBX 14 23 2 0
BITMAP
0300
0780
0CC0
0820
0000
0000
0000
0FC0
1830
3018
6038
6038
C000
C000
C000
C000
C000
C000
6000
700C
3838
1FF0
07C0
ENDCHAR
STARTCHAR 010C
ENCODING 268
SWIDTH 718 0
DWIDTH 23 0
BBX 21 29 1 0
BITMAP
010100
00C600
007C00
003800
000000
00FC00
038310
0E00D0
1C0070
380030
300030
700010
700010
E00000
E00000
E00000
E00000
E00000
E00000
E00000
F00000
700008
700018
380010
3C0030
1E0060
0F81C0
07FF80
00FE00
ENDCHAR
STARTCHAR 010D
ENCODING 269
SWIDTH 531 0
DWIDTH 17 0
BBX 14 23 2 1
BITMAP
1820
0CC0
0780
0300
0000
0000
0000
0FC0
1830
3018
6038
6038
C000
C000
C000
C000
C000
C000
6000
700C
3838
1FF0
07C0
ENDCHAR
STARTCHAR 010E
ENCODING 270
SWIDTH 781 0
DWIDTH 25 0
BBX 21 29 2 0
BITMAP
020400
018C00
00F800
007000
000000
000000
FFF800
3C0F00
180380
1800C0
1800E0
180070
180070
180030
180038
180038
180038
180038
180038
180038
180038
180038
180070
180070
1800E0
1801C0
180380
3C0F00
FFFC00
ENDCHAR
STARTCHAR 010F
ENCODING 271
SWIDTH 625 0
DWIDTH 20 0
BBX 19 24 2 0
BITMAP
0000E0
007CE0
000CE0
000C20
000C60
000CC0
000C00
000C00
0F8C00
186C00
301C00
601C00
600C00
C00C00
C00C00
C00C00
C00C00
C00C00
C00C00
600C00
601C00
303C00
186C00
0F8F80
ENDCHAR
STARTCHAR 0111
ENCODING 273
SWIDTH 625 0
DWIDTH 20 0
BBX 17 23 2 1
BITMAP
007C00
003C00
000C00
000C00
01FF00
000C00
000C00
0F8C00
186C00
301C00
601C00
600C00
C00C00
C00C00
C00C00
C00C00
C00C00
C00C00
600C00
601C00
303C00
186C00
0F8F80
ENDCHAR
STARTCHAR 0112
ENCODING 274
SWIDTH 687 0
DWIDTH 22 0
BBX 19 28 2 0
BITMAP
03FC00
000000
000000
000000
000000
FFFFC0
3C01C0
1800C0
180040
180040
180040
180000
180800
180800
181800
1FF800
181800
180800
180800
180800
180000
180020
180060
180040
180040
1800C0
3C03C0
FFFFC0
ENDCHAR
STARTCHAR 0113
ENCODING 275
SWIDTH 562 0
DWIDTH 18 0
BBX 14 21 2 0
BITMAP
1FE0
0000
0000
0000
0000
0FC0
1870
3018
6018
600C
C00C
FFFC
C000
C000
C000
C000
6004
600C
3008
1C30
07C0
ENDCHAR
STARTCHAR 0118
ENCODING 280
SWIDTH 687 0
DWIDTH 22 0
BBX 19 30 2 -7
BITMAP
FFFFC0
3C01C0
1800C0
180040
180040
180040
180000
180800
180800
181800
1FF800
181800
180800
180800
180800
180000
180020
180060
180040
180040
1800C0
3C03C0
FFFFC0
00C000
018000
030000
060000
060000
061000
03E000
ENDCHAR
STARTCHAR 0119
ENCODING 281
SWIDTH 562 0
DWIDTH 18 0
BBX 14 23 2 -7
BITMAP
0FC0
1870
3018
6018
600C
C00C
FFFC
C000
C000
C000
E000
6004
700C
3C38
1FF0
0380
0300
0700
0600
0C00
0C00
0C40
0780
ENDCHAR
STARTCHAR 011A
ENCODING 282
SWIDTH 687 0
DWIDTH 22 0
BBX 19 29 2 0
BITMAP
020400
031C00
01F000
00E000
000000
000000
FFFFC0
3C01C0
1800C0
180040
180040
180040
180000
180800
180800
181800
1FF800
181800
180800
180800
180800
180000
180020
180060
180040
180040
1800C0
3C03C0
FFFFC0
ENDCHAR
STARTCHAR 011B
ENCODING 283
SWIDTH 562 0
DWIDTH 18 0
BBX 14 23 2 1
BITMAP
0820
06C0
0380
0100
0000
0000
0000
0FC0
1870
3018
6018
600C
C00C
FFFC
C000
C000
C000
C000
6004
600C
3008
1C30
07C0
ENDCHAR
STARTCHAR 011C
ENCODING 284
SWIDTH 781 0
DWIDTH 25 0
BBX 23 29 1 1
BITMAP
003800
007C00
00C600
010200
000000
00FC00
038310
0E00D0
1C0070
380030
300030
700010
700000
E00000
E00000
E00000
E00000
E00000
E001FE
E00078
E00030
700030
700030
780030
380030
1C0070
0E00F0
078190
00FE10
ENDCHAR
STARTCHAR 011D
ENCODING 285
SWIDTH 562 0
DWIDTH 18 0
BBX 15 29 2 -6
BITMAP
0300
0780
0CC0
1060
0000
000E
003E
0FE0
3070
6038
C018
C018
C018
C018
6030
3060
3FC0
6000
6000
7800
1FE0
3038
601C
C00C
C00C
C00C
E018
7030
1FC0
ENDCHAR
STARTCHAR 0124
ENCODING 292
SWIDTH 812 0
DWIDTH 26 0
BBX 22 29 2 1
BITMAP
003000
007800
00CE00
010200
000000
000000
FF03FC
3C00F0
180060
180060
180060
180060
180060
180060
180060
180060
1FFFE0
180060
180060
180060
180060
180060
180060
180060
180060
180060
180060
3C00F0
FF03FC
ENDCHAR
STARTCHAR 0125
ENCODING 293
SWIDTH 625 0
DWIDTH 20 0
BBX 18 28 1 1
BITMAP
1C0000
360000
630000
000000
000000
F80000
180000
180000
180000
180000
180000
180000
18F000
1B1C00
1C0C00
1C0600
180600
180600
180600
180600
180600
180600
180600
180600
180600
180600
180600
FF3FC0
ENDCHAR
STARTCHAR 0127
ENCODING 295
SWIDTH 625 0
DWIDTH 20 0
BBX 18 23 1 1
BITMAP
F80000
780000
180000
180000
FF8000
180000
180000
18F000
1B1C00
1C0C00
1C0600
180600
180600
180600
180600
180600
180600
180600
180600
180600
180600
180600
FF3FC0
ENDCHAR
STARTCHAR 012A
ENCODING 298
SWIDTH 375 0
DWIDTH 12 0
BBX 8 28 2 0
BITMAP
FF
00
00
00
00
FF
3C
18
18
18
18
18
18
18
18
18
18
18
18
18
18
18
18
18
18
18
3C
FF
ENDCHAR
STARTCHAR 012B
ENCODING 299
SWIDTH 312 0
DWIDTH 10 0
BBX 9 21 0 0
BITMAP
FF00
0000
0000
0000
0000
7C00
1C00
0C00
0C00
0C00
0C00
0C00
0C00
0C00
0C00
0C00
0C00
0C00
0C00
0C00
7F80
ENDCHAR
STARTCHAR 0134
ENCODING 308
SWIDTH 468 0
DWIDTH 15 0
BBX 13 29 1 1
BITMAP
01C0
03E0
0630
0418
0000
0000
07F8
01E0
00C0
00C0
00C0
00C0
00C0
00C0
00C0
00C0
00C0
00C0
00C0
00C0
00C0
00C0
00C0
00C0
E0C0
E0C0
E080
4180
3E00
ENDCHAR
STARTCHAR 0135
ENCODING 309
SWIDTH 312 0
DWIDTH 10 0
BBX 10 28 -2 -5
BITMAP
0700
0D80
1840
0000
0000
0000
1F00
0700
0300
0300
0300
0300
0300
0300
0300
0300
0300
0300
0300
0300
0300
0300
0300
0300
E300
E300
E600
7C00
ENDCHAR
STARTCHAR 0139
ENCODING 313
SWIDTH 593 0
DWIDTH 19 0
BBX 17 29 2 1
BITMAP
010000
078000
0E0000
1C0000
000000
000000
FF0000
3C0000
180000
180000
180000
180000
180000
180000
180000
180000
180000
180000
180000
180000
180000
180000
180080
180080
180080
180180
180180
3C0780
FFFF80
ENDCHAR
STARTCHAR 013A
ENCODING 314
SWIDTH 281 0
DWIDTH 9 0
BBX 8 29 1 1
BITMAP
06
0E
1C
30
00
00
F8
38
18
18
18
18
18
18
18
18
18
18
18
18
18
18
18
18
18
18
18
18
FF
ENDCHAR
STARTCHAR 013D
ENCODING 317
SWIDTH 593 0
DWIDTH 19 0
BBX 17 24 2 0
BITMAP
001C00
FF1C00
3C1C00
180C00
180C00
183800
180000
180000
180000
180000
180000
180000
180000
180000
180000
180000
180000
180080
180080
180080
180180
180180
3C0780
FFFF80
ENDCHAR
STARTCHAR 013E
ENCODING 318
SWIDTH 312 0
DWIDTH 10 0
BBX 10 24 1 0
BITMAP
01C0
F9C0
39C0
1840
18C0
1980
1800
1800
1800
1800
1800
1800
1800
1800
1800
1800
1800
1800
1800
1800
1800
1800
1800
FF00
ENDCHAR
STARTCHAR 0141
ENCODING 321
SWIDTH 593 0
DWIDTH 19 0
BBX 17 23 2 0
BITMAP
FF0000
3C0000
180000
180000
180000
180000
180000
198000
1B0000
1E0000
1C0000
380000
780000
D80000
180000
180000
180080
180080
180080
180180
180180
3C0780
FFFF80
ENDCHAR
STARTCHAR 0142
ENCODING 322
SWIDTH 281 0
DWIDTH 9 0
BBX 8 24 1 0
BITMAP
08
F8
18
18
18
18
18
18
19
1B
1E
1C
38
78
98
18
18
18
18
18
18
18
18
FF
ENDCHAR
STARTCHAR 0143
ENCODING 323
SWIDTH 812 0
DWIDTH 26 0
BBX 23 29 2 1
BITMAP
000600
000E00
001C00
003000
000000
000000
FC01FE
3E0078
1E0030
1B0030
1B8030
198030
18C030
18E030
186030
183030
183030
181830
181C30
180C30
180630
180730
180330
1801B0
1801F0
1800F0
180070
3C0070
FF0030
ENDCHAR
STARTCHAR 0144
ENCODING 324
SWIDTH 625 0
DWIDTH 20 0
BBX 19 23 1 1
BITMAP
001800
003800
006000
00C000
000000
000000
000000
F8F800
1B0E00
1C0600
1C0300
180300
180300
180300
180300
180300
180300
180300
180300
180300
180300
180300
FF1FE0
ENDCHAR
STARTCHAR 0147
ENCODING 327
SWIDTH 812 0
DWIDTH 26 0
BBX 23 29 2 0
BITMAP
008200
00C400
007C00
003800
000000
000000
FC01FE
3E0078
1E0030
1B0030
1B8030
198030
18C030
18E030
186030
183030
183030
181830
181C30
180C30
180630
180730
180330
1801B0
1801F0
1800F0
180070
3C0070
FF0030
ENDCHAR
STARTCHAR 0148
ENCODING 328
SWIDTH 625 0
DWIDTH 20 0
BBX 19 23 1 1
BITMAP
060C00
03B800
00E000
004000
000000
000000
000000
F8F800
1B0E00
1C0600
1C0300
180300
180300
180300
180300
180300
180300
180300
180300
180300
180300
180300
FF1FE0
ENDCHAR
STARTCHAR 014B
ENCODING 331
SWIDTH 625 0
DWIDTH 20 0
BBX 16 22 1 -5
BITMAP
F8F8
1B0E
1C06
1C03
1803
1803
1803
1803
1803
1803
1803
1803
1803
1803
1803
FF03
0003
0003
00E3
00E3
00E6
007C
ENDCHAR
STARTCHAR 014C
ENCODING 332
SWIDTH 812 0
DWIDTH 26 0
BBX 22 28 2 0
BITMAP
01FE00
000000
000000
000000
00FC00
070380
0E01C0
1C00E0
380070
300030
700038
700038
E0001C
E0001C
E0001C
E0001C
E0001C
E0001C
E0001C
E0001C
700038
700038
300030
380070
1C00E0
0E01C0
070380
00FC00
ENDCHAR
STARTCHAR 014D
ENCODING 333
SWIDTH 593 0
DWIDTH 19 0
BBX 15 21 2 0
BITMAP
1FE0
0000
0000
0000
0000
07C0
1830
3018
600C
600C
C006
C006
C006
C006
C006
C006
600C
600C
3018
1870
0FC0
ENDCHAR
STARTCHAR 0150
ENCODING 336
SWIDTH 812 0
DWIDTH 26 0
BBX 22 29 2 1
BITMAP
002300
006700
00C400
008800
008000
00FC00
070380
0E01C0
1C00E0
380070
300030
700038
700038
E0001C
E0001C
E0001C
E0001C
E0001C
E0001C
E0001C
E0001C
700038
700038
300030
380070
1C00E0
0E01C0
070380
00FC00
ENDCHAR
STARTCHAR 0151
ENCODING 337
SWIDTH 593 0
DWIDTH 19 0
BBX 15 24 2 0
BITMAP
0010
0318
0230
0660
04C0
0000
0000
0000
07C0
1830
3018
600C
600C
C006
C006
C006
C006
C006
C006
600C
600C
3018
1870
0FC0
ENDCHAR
STARTCHAR 0152
ENCODING 338
SWIDTH 1031 0
DWIDTH 33 0
BBX 29 23 2 0
BITMAP
00FFFFF8
07038078
0E018018
18018018
38018008
70018008
70018000
E0018100
E0018100
E0018300
E001FF00
E0018300
E0018100
E0018100
E0018100
60018000
70018008
70018008
38018008
18018018
0E018018
0383C078
00FFFFF8
ENDCHAR
STARTCHAR 0153
ENCODING 339
SWIDTH 906 0
DWIDTH 29 0
BBX 25 16 2 0
BITMAP
0FC0FC00
18730600
303E0300
601C0180
601C0180
C00C0180
C00FFF80
C00C0000
C00C0000
C00C0000
C00C0000
E01C0080
601E0080
703F0180
38738300
0FC0FC00
ENDCHAR
STARTCHAR 0154
ENCODING 340
SWIDTH 687 0
DWIDTH 22 0
BBX 20 29 2 1
BITMAP
001800
003800
007000
00C000
008000
000000
FFFC00
3C0700
180180
1801C0
1800C0
1800C0
1800C0
1800C0
180180
180380
180E00
1FF000
187000
181800
180C00
180E00
180600
180700
180300
180380
1801C0
3C01C0
FF00F0
ENDCHAR
STARTCHAR 0155
ENCODING 341
SWIDTH 406 0
DWIDTH 13 0
BBX 12 23 1 1
BITMAP
0180
0380
0600
0C00
0000
0000
0000
F8F0
1970
1A70
1C00
1800
1800
1800
1800
1800
1800
1800
1800
1800
1800
1800
FF00
ENDCHAR
STARTCHAR 0158
ENCODING 344
SWIDTH 687 0
DWIDTH 22 0
BBX 20 29 2 0
BITMAP
040800
031800
01F000
00E000
000000
000000
FFFC00
3C0700
180180
1801C0
1800C0
1800C0
1800C0
1800C0
180180
180380
180E00
1FF000
187000
181800
180C00
180E00
180600
180700
180300
180380
1801C0
3C01C0
FF00F0
ENDCHAR
STARTCHAR 0159
ENCODING 345
SWIDTH 406 0
DWIDTH 13 0
BBX 12 23 1 1
BITMAP
2080
1B00
0E00
0400
0000
0000
0000
F8F0
1970
1A70
1C00
1800
1800
1800
1800
1800
1800
1800
1800
1800
1800
1800
FF00
ENDCHAR
STARTCHAR 015A
ENCODING 346
SWIDTH 625 0
DWIDTH 20 0
BBX 16 29 2 1
BITMAP
0020
0070
01C0
0380
0000
0000
0FE2
383E
600E
4006
C006
C002
C000
E000
7000
3E00
1FC0
03F0
007C
001E
0006
8007
8003
C003
C003
E002
F006
9C1C
87F0
ENDCHAR
STARTCHAR 015B
ENCODING 347
SWIDTH 468 0
DWIDTH 15 0
BBX 12 23 2 1
BITMAP
0180
0380
0600
0800
0000
0000
0000
1FE0
60E0
C060
C020
C020
E000
7800
3F00
07C0
00E0
8070
8030
C030
C030
F060
9F80
ENDCHAR
STARTCHAR 015C
ENCODING 348
SWIDTH 625 0
DWIDTH 20 0
BBX 16 29 2 1
BITMAP
0180
03C0
0E70
0810
0000
0000
0FE2
383E
600E
4006
C006
C002
C000
E000
7000
3E00
1FC0
03F0
007C
001E
0006
8007
8003
C003
C003
E002
F006
9C1C
87F0
ENDCHAR
STARTCHAR 015D
ENCODING 349
SWIDTH 468 0
DWIDTH 15 0
BBX 12 23 2 0
BITMAP
0600
0F00
1980
20C0
0000
0000
0000
1FE0
60E0
C060
C020
C020
E000
7800
3F00
07C0
00E0
8070
8030
C030
C030
F060
9F80
ENDCHAR
STARTCHAR 015E
ENCODING 350
SWIDTH 625 0
DWIDTH 20 0
BBX 16 30 2 -7
BITMAP
0FE2
383E
600E
4006
C006
C002
C000
E000
7000
3E00
1FC0
03F0
007C
001E
0006
8007
8003
C003
C003
E002
F006
9C1C
87F0
0000
0380
03C0
03C0
00C0
0180
0300
ENDCHAR
STARTCHAR 015F
ENCODING 351
SWIDTH 468 0
DWIDTH 15 0
BBX 12 23 2 -7
BITMAP
1FE0
60E0
C060
C020
C020
E000
7800
3F00
07C0
00E0
8070
8030
C030
C030
F060
9F80
0000
0700
0700
0700
0300
0200
0E00
ENDCHAR
STARTCHAR 0160
ENCODING 352
SWIDTH 625 0
DWIDTH 20 0
BBX 16 29 2 0
BITMAP
1010
0C60
07C0
0380
0000
0000
0FE2
383E
600E
4006
C006
C002
C002
E000
7000
3E00
1FC0
03F0
007C
001E
0006
8007
8003
8003
C003
E002
F006
9C1C
87F0
ENDCHAR
STARTCHAR 0161
ENCODING 353
SWIDTH 468 0
DWIDTH 15 0
BBX 12 23 2 0
BITMAP
2080
1B00
0E00
0400
0000
0000
0000
1FE0
60E0
C060
C020
C020
E000
7800
3F00
07C0
00E0
8070
8030
C030
C030
F0E0
9F80
ENDCHAR
STARTCHAR 0162
ENCODING 354
SWIDTH 625 0
DWIDTH 20 0
BBX 20 30 0 -8
BITMAP
7FFFE0
7060E0
606030
406030
C06030
806010
006000
006000
006000
006000
006000
006000
006000
006000
006000
006000
006000
006000
006000
006000
006000
00F000
03FC00
000000
00E000
00E000
00E000
002000
002000
00C000
ENDCHAR
STARTCHAR 0163
ENCODING 355
SWIDTH 343 0
DWIDTH 11 0
BBX 10 27 0 -7
BITMAP
0800
0800
1800
3800
FFC0
1800
1800
1800
1800
1800
1800
1800
1800
1800
1800
1800
1800
1840
1CC0
0F80
0000
0E00
0F00
0F00
0300
0200
0C00
ENDCHAR
STARTCHAR 0164
ENCODING 356
SWIDTH 625 0
DWIDTH 20 0
BBX 20 29 0 0
BITMAP
020400
019C00
00F000
006000
000000
000000
7FFFE0
7060E0
606030
406030
C06030
806010
006000
006000
006000
006000
006000
006000
006000
006000
006000
006000
006000
006000
006000
006000
006000
00F000
03FC00
ENDCHAR
STARTCHAR 0165
ENCODING 357
SWIDTH 343 0
DWIDTH 11 0
BBX 11 24 0 0
BITMAP
00E0
00E0
00E0
0060
0840
0980
1800
3800
FFC0
1800
1800
1800
1800
1800
1800
1800
1800
1800
1800
1800
1800
1840
1CC0
0F80
ENDCHAR
STARTCHAR 016A
ENCODING 362
SWIDTH 781 0
DWIDTH 25 0
BBX 24 28 1 0
BITMAP
00FF00
000000
000000
000000
000000
FF00FF
3C003C
180018
180018
180018
180018
180018
180018
180018
180018
180018
180018
180018
180018
180018
180018
180018
1C0038
0C0030
0E0070
0781E0
03FFC0
007F00
ENDCHAR
STARTCHAR 016B
ENCODING 363
SWIDTH 593 0
DWIDTH 19 0
BBX 19 21 0 0
BITMAP
07FC00
000000
000000
000000
000000
F81F00
380700
180300
180300
180300
180300
180300
180300
180300
180300
180300
180300
180700
0C0F00
0E1B00
03E3E0
ENDCHAR
STARTCHAR 016C
ENCODING 364
SWIDTH 781 0
DWIDTH 25 0
BBX 24 29 1 0
BITMAP
008100
00C300
007F00
003C00
000000
000000
FF00FF
3C003C
180018
180018
180018
180018
180018
180018
180018
180018
180018
180018
180018
180018
180018
180018
180018
1C0038
0C0030
0E0070
0781E0
03FFC0
007F00
ENDCHAR
STARTCHAR 016D
ENCODING 365
SWIDTH 593 0
DWIDTH 19 0
BBX 19 22 0 1
BITMAP
040800
021800
01F000
000000
000000
000000
780F00
F81F00
180300
180300
180300
180300
180300
180300
180300
180300
180300
180300
180700
1C0700
0E1B00
03E3E0
ENDCHAR
STARTCHAR 016E
ENCODING 366
SWIDTH 781 0
DWIDTH 25 0
BBX 24 29 1 0
BITMAP
001C00
002200
002200
002200
001C00
000000
FF00FF
3C003C
180018
180018
180018
180018
180018
180018
180018
180018
180018
180018
180018
180018
180018
180018
180018
1C0038
0C0030
0E0070
0781E0
03FFC0
007F00
ENDCHAR
STARTCHAR 016F
ENCODING 367
SWIDTH 593 0
DWIDTH 19 0
BBX 19 23 0 0
BITMAP
00E000
011000
011000
00E000
000000
000000
000000
F81F00
380700
180300
180300
180300
180300
180300
180300
180300
180300
180300
180300
180700
0C0F00
0E1B00
03E3E0
ENDCHAR
STARTCHAR 0170
ENCODING 368
SWIDTH 781 0
DWIDTH 25 0
BBX 24 29 1 1
BITMAP
001180
003380
006300
004400
004000
000000
FF00FF
3C003C
180018
180018
180018
180018
180018
180018
180018
180018
180018
180018
180018
180018
180018
180018
180018
1C0038
0C0030
0E0070
0781E0
03FFC0
007F00
ENDCHAR
STARTCHAR 0171
ENCODING 369
SWIDTH 593 0
DWIDTH 19 0
BBX 19 24 0 0
BITMAP
000400
00C600
018C00
019800
033000
000000
000000
000000
F81F00
380700
180300
180300
180300
180300
180300
180300
180300
180300
180300
180300
180700
1C0F00
0E1B00
03E3E0
ENDCHAR
STARTCHAR 0179
ENCODING 377
SWIDTH 625 0
DWIDTH 20 0
BBX 18 29 1 1
BITMAP
001800
003800
007000
00C000
008000
000000
7FFF80
780380
600700
400600
400E00
401C00
001800
003800
007000
006000
00E000
01C000
038000
030000
070000
0E0000
0C0040
1C0040
3800C0
3000C0
7001C0
E00380
FFFF80
ENDCHAR
STARTCHAR 017A
ENCODING 378
SWIDTH 468 0
DWIDTH 15 0
BBX 13 24 1 0
BITMAP
0040
00E0
01C0
0380
0200
0000
0000
0000
7FF0
6030
4060
40E0
41C0
0180
0380
0700
0600
0C00
1C00
1808
3008
7018
E038
FFF8
ENDCHAR
STARTCHAR 017B
ENCODING 379
SWIDTH 625 0
DWIDTH 20 0
BBX 18 29 1 0
BITMAP
00E000
00E000
00E000
000000
000000
000000
7FFF80
780380
600700
400600
400E00
401C00
001800
003800
007000
006000
00E000
01C000
038000
030000
070000
0E0000
0C0040
1C0040
3800C0
3000C0
7001C0
E00380
FFFF80
ENDCHAR
STARTCHAR 017C
ENCODING 380
SWIDTH 468 0
DWIDTH 15 0
BBX 13 23 1 0
BITMAP
0700
0700
0700
0000
0000
0000
0000
7FF0
6030
4060
40E0
41C0
0180
0380
0700
0600
0C00
1C00
1808
3008
7018
E038
FFF8
ENDCHAR
STARTCHAR 017D
ENCODING 381
SWIDTH 625 0
DWIDTH 20 0
BBX 18 29 1 0
BITMAP
040800
073800
01F000
00C000
000000
000000
7FFF80
780380
600700
400600
400E00
401C00
001800
003800
007000
006000
00E000
01C000
038000
030000
070000
0E0000
0C0040
1C0040
3800C0
3000C0
7001C0
E00380
FFFF80
ENDCHAR
STARTCHAR 017E
ENCODING 382
SWIDTH 468 0
DWIDTH 15 0
BBX 13 23 1 1
BITMAP
1860
0CC0
0780
0300
0000
0000
0000
7FF0
6030
4060
40E0
41C0
0180
0380
0700
0600
0C00
1C00
1808
3008
7018
E038
FFF8
ENDCHAR
STARTCHAR 0193
ENCODING 403
SWIDTH 781 0
DWIDTH 25 0
BBX 26 28 1 0
BITMAP
00000780
000008C0
000011C0
000011C0
00FC1000
03831000
0E00D000
1C007000
38003000
30003000
70001000
70000000
E0000000
E0000000
E0000000
E0000000
E0000000
E001FE00
E0007800
E0003000
70003000
70003000
78003000
38003000
1C007000
0E00F000
07819000
00FE1000
ENDCHAR
STARTCHAR 01C2
ENCODING 450
SWIDTH 500 0
DWIDTH 16 0
BBX 14 22 1 0
BITMAP
0300
0300
0300
0300
0300
0300
0300
FFFC
0300
0300
0300
0300
0300
FFFC
0300
0300
0300
0300
0300
0300
0300
0300
ENDCHAR
STARTCHAR 01CD
ENCODING 461
SWIDTH 718 0
DWIDTH 23 0
BBX 23 28 0 1
BITMAP
018300
006600
003C00
001800
000000
001000
001800
003800
003800
006C00
006C00
004E00
00C600
008600
018300
018300
010380
030180
020180
07FFC0
0600C0
0400E0
0C0060
0C0060
180030
180030
380038
FE01FE
ENDCHAR
STARTCHAR 01CE
ENCODING 462
SWIDTH 531 0
DWIDTH 17 0
BBX 15 23 2 1
BITMAP
1040
0D80
0700
0200
0000
0000
0000
0F80
30E0
6060
7030
7030
0030
03F0
1E30
7030
E030
C030
C030
C030
C070
61B2
3E1C
ENDCHAR
STARTCHAR 01D0
ENCODING 464
SWIDTH 312 0
DWIDTH 10 0
BBX 8 23 1 1
BITMAP
83
66
3C
18
00
00
00
F8
38
18
18
18
18
18
18
18
18
18
18
18
18
18
FF
ENDCHAR
STARTCHAR 01D1
ENCODING 465
SWIDTH 812 0
DWIDTH 26 0
BBX 22 29 2 0
BITMAP
010200
018E00
00FC00
003000
000000
00FC00
070380
0E01C0
1C00E0
380070
300030
700038
700038
E0001C
E0001C
E0001C
E0001C
E0001C
E0001C
E0001C
E0001C
700038
700038
300030
380070
1C00E0
0E01C0
070380
00FC00
ENDCHAR
STARTCHAR 01D2
ENCODING 466
SWIDTH 593 0
DWIDTH 19 0
BBX 15 23 2 1
BITMAP
0820
06C0
0380
0100
0000
0000
0000
07C0
1830
3018
600C
600C
C006
C006
C006
C006
C006
C006
600C
600C
3018
1830
07C0
ENDCHAR
STARTCHAR 01D4
ENCODING 468
SWIDTH 593 0
DWIDTH 19 0
BBX 19 23 0 1
BITMAP
060800
03B800
01E000
00C000
000000
000000
000000
F81F00
380700
180300
180300
180300
180300
180300
180300
180300
180300
180300
180300
180700
1C0F00
0E1B00
03E3E0
ENDCHAR
STARTCHAR 01D6
ENCODING 470
SWIDTH 593 0
DWIDTH 19 0
BBX 19 26 0 0
BITMAP
07F800
000000
000000
071C00
071C00
071C00
000000
000000
000000
000000
F81F00
380700
180300
180300
180300
180300
180300
180300
180300
180300
180300
180300
180700
0C0F00
0E1B00
03E3E0
ENDCHAR
STARTCHAR 01D8
ENCODING 472
SWIDTH 593 0
DWIDTH 19 0
BBX 19 28 0 0
BITMAP
001000
003800
007000
00C000
008000
071C00
071C00
071C00
000000
000000
000000
000000
F81F00
380700
180300
180300
180300
180300
180300
180300
180300
180300
180300
180300
180700
0C0F00
0E1B00
03E3E0
ENDCHAR
STARTCHAR 01DA
ENCODING 474
SWIDTH 593 0
DWIDTH 19 0
BBX 19 27 0 1
BITMAP
061800
03B000
01E000
00C000
071C00
071C00
071C00
000000
000000
000000
000000
F81F00
380700
180300
180300
180300
180300
180300
180300
180300
180300
180300
180300
180700
0C0F00
0E1B00
03E3E0
ENDCHAR
STARTCHAR 01DC
ENCODING 476
SWIDTH 593 0
DWIDTH 19 0
BBX 19 28 0 0
BITMAP
020000
070000
038000
00C000
000000
071C00
071C00
071C00
000000
000000
000000
000000
F81F00
380700
180300
180300
180300
180300
180300
180300
180300
180300
180300
180300
180700
0C0F00
0E1B00
03E3E0
ENDCHAR
STARTCHAR 01F8
ENCODING 504
SWIDTH 812 0
DWIDTH 26 0
BBX 23 29 2 1
BITMAP
018000
01C000
00E000
003000
000000
000000
FC01FE
3E0078
1E0030
1B0030
1B8030
198030
18C030
18E030
186030
183030
183030
181830
181C30
180C30
180630
180730
180330
1801B0
1801F0
1800F0
180070
3C0070
FF0030
ENDCHAR
STARTCHAR 01F9
ENCODING 505
SWIDTH 625 0
DWIDTH 20 0
BBX 19 23 1 1
BITMAP
0E0000
070000
038000
008000
000000
000000
000000
F8F800
1B0E00
1C0600
1C0300
180300
180300
180300
180300
180300
180300
180300
180300
180300
180300
180300
FF1FE0
ENDCHAR
STARTCHAR 01FD
ENCODING 509
SWIDTH 843 0
DWIDTH 27 0
BBX 24 23 2 1
BITMAP
000700
000E00
001C00
001000
000000
000000
000000
0F83F0
30EE18
70780C
703806
703006
003006
07FFFF
383000
603000
C03000
C03000
C03802
C03802
E04C04
61860C
3F03F0
ENDCHAR
STARTCHAR 0250
ENCODING 592
SWIDTH 531 0
DWIDTH 17 0
BBX 14 16 2 0
BITMAP
E3F0
3C18
380C
300C
300C
300C
3018
3030
3FE0
3800
3000
3038
3038
1818
1C30
07C0
ENDCHAR
STARTCHAR 0251
ENCODING 593
SWIDTH 593 0
DWIDTH 19 0
BBX 17 16 1 1
BITMAP
0FC400
186C00
301C00
601C00
600C00
C00C00
C00C00
C00C00
C00C00
C00C00
C00C00
601C00
601C00
303C00
186C80
0F8700
ENDCHAR
STARTCHAR 0252
ENCODING 594
SWIDTH 593 0
DWIDTH 19 0
BBX 16 16 1 0
BITMAP
E1F0
3618
3C0C
3806
3006
3003
3003
3003
3003
3003
3003
3006
3806
380C
3618
23F0
ENDCHAR
STARTCHAR 0253
ENCODING 595
SWIDTH 593 0
DWIDTH 19 0
BBX 14 23 3 0
BITMAP
0FC0
3030
6038
C038
C038
C000
C000
C7C0
D860
F030
E018
C018
C00C
C00C
C00C
C00C
C00C
C00C
C018
E018
F030
D860
87C0
ENDCHAR
STARTCHAR 0254
ENCODING 596
SWIDTH 531 0
DWIDTH 17 0
BBX 13 16 2 0
BITMAP
1F80
7FC0
E0E0
8070
0030
0018
0018
0018
0018
0018
E018
E030
E030
4060
60C0
1F00
ENDCHAR
STARTCHAR 0255
ENCODING 597
SWIDTH 531 0
DWIDTH 17 0
BBX 14 18 2 -3
BITMAP
07C0
1830
3018
6038
6038
C000
C000
C000
C000
C000
C078
6084
6104
3204
1E08
0FF0
0C00
0800
ENDCHAR
STARTCHAR 0256
ENCODING 598
SWIDTH 625 0
DWIDTH 20 0
BBX 20 30 2 -6
BITMAP
000400
007C00
000C00
000C00
000C00
000C00
000C00
000C00
0F8C00
186C00
301C00
601C00
600C00
C00C00
C00C00
C00C00
C00C00
C00C00
C00C00
600C00
601C00
303C00
186C00
0F8C00
000C00
000C00
000C70
000C70
000670
0003E0
ENDCHAR
STARTCHAR 0257
ENCODING 599
SWIDTH 625 0
DWIDTH 20 0
BBX 20 23 2 0
BITMAP
0003E0
000670
000C70
000C00
000C00
000C00
000C00
0F8C00
186C00
301C00
601C00
600C00
C00C00
C00C00
C00C00
C00C00
C00C00
C00C00
600C00
601C00
303C00
186C00
0F8F80
ENDCHAR
STARTCHAR 0258
ENCODING 600
SWIDTH 562 0
DWIDTH 18 0
BBX 14 16 2 0
BITMAP
0FC0
3870
6038
E018
C01C
C00C
FFFC
000C
000C
000C
001C
8018
C018
4030
30E0
0F80
ENDCHAR
STARTCHAR 0259
ENCODING 601
SWIDTH 562 0
DWIDTH 18 0
BBX 14 16 2 0
BITMAP
0F80
3060
4030
C018
0018
000C
000C
000C
FFFC
C00C
C00C
C018
6018
6030
3060
0FC0
ENDCHAR
STARTCHAR 025A
ENCODING 602
SWIDTH 781 0
DWIDTH 25 0
BBX 23 16 2 0
BITMAP
0FC000
3FF000
707840
601DC0
C00F40
800E60
803E60
006632
018634
07061C
1C0600
300600
380C00
180800
0E3000
03E000
ENDCHAR
STARTCHAR 025C
ENCODING 604
SWIDTH 531 0
DWIDTH 17 0
BBX 13 16 2 0
BITMAP
3FC0
40E0
0030
0030
0030
0060
1EC0
1FC0
0060
0030
0018
0018
0018
0030
C070
3FC0
ENDCHAR
STARTCHAR 025E
ENCODING 606
SWIDTH 562 0
DWIDTH 18 0
BBX 14 16 2 0
BITMAP
07E0
1FF8
381C
600C
400C
C00C
8F70
8FE0
8018
800C
800C
C00C
601C
7038
3FF0
0FC0
ENDCHAR
STARTCHAR 025F
ENCODING 607
SWIDTH 312 0
DWIDTH 10 0
BBX 12 22 -2 -6
BITMAP
0FF0
0180
0180
0180
0180
0180
0180
0180
0180
0180
0180
0180
0180
0180
0180
1FF0
0180
0180
0180
E100
E300
7C00
ENDCHAR
STARTCHAR 0260
ENCODING 608
SWIDTH 593 0
DWIDTH 19 0
BBX 20 29 2 -6
BITMAP
0003E0
000670
000C70
000C00
000C00
000C00
000C00
0FCC00
186C00
301C00
601C00
600C00
C00C00
C00C00
C00C00
C00C00
C00C00
C00C00
600C00
601C00
301C00
186C00
0F8C00
000C00
700C00
701C00
601800
307000
0FC000
ENDCHAR
STARTCHAR 0261
ENCODING 609
SWIDTH 593 0
DWIDTH 19 0
BBX 14 22 2 -5
BITMAP
0FC4
186C
301C
601C
600C
C00C
C00C
C00C
C00C
C00C
C00C
600C
601C
301C
186C
0F8C
000C
700C
701C
6018
3070
0FC0
ENDCHAR
STARTCHAR 0264
ENCODING 612
SWIDTH 593 0
DWIDTH 19 0
BBX 17 16 1 0
BITMAP
F00780
FC1C00
1E3000
076000
03C000
01C000
03E000
027000
063000
0C1800
0C1800
0C1800
0C1800
0C1800
063000
03E000
ENDCHAR
STARTCHAR 0265
ENCODING 613
SWIDTH 625 0
DWIDTH 20 0
BBX 19 22 0 -7
BITMAP
FF1FE0
180300
180300
180300
180300
180300
180300
180300
180300
180300
180300
180300
180700
0C0F00
0E1B00
03E300
000300
000300
000300
000300
000300
0003E0
ENDCHAR
STARTCHAR 0266
ENCODING 614
SWIDTH 625 0
DWIDTH 20 0
BBX 18 23 1 0
BITMAP
01F000
060C00
0C0600
180E00
180E00
180000
180000
18F000
1B1C00
1C0C00
1C0600
180600
180600
180600
180600
180600
180600
180600
180600
180600
180600
180600
FF3FC0
ENDCHAR
STARTCHAR 0267
ENCODING 615
SWIDTH 625 0
DWIDTH 20 0
BBX 15 29 1 -6
BITMAP
01F0
060C
0C06
180E
180E
1800
1800
18F0
1B1C
1C0C
1C06
1806
1806
1806
1806
1806
1806
1806
1806
1806
1806
1806
FF06
0006
0006
00C6
00C6
00CC
0078
ENDCHAR
STARTCHAR 0268
ENCODING 616
SWIDTH 343 0
DWIDTH 11 0
BBX 9 23 0 0
BITMAP
1C00
1C00
1C00
0000
0000
0000
0000
7C00
0C00
0C00
0C00
0C00
0C00
FF80
0C00
0C00
0C00
0C00
0C00
0C00
0C00
1C00
7F80
ENDCHAR
STARTCHAR 026C
ENCODING 620
SWIDTH 406 0
DWIDTH 13 0
BBX 11 23 1 1
BITMAP
1F00
0F00
0300
0300
0300
0300
7B00
8F00
8700
8300
7300
1FE0
0300
0300
0300
0300
0300
0300
0300
0300
0300
0300
1FE0
ENDCHAR
STARTCHAR 026D
ENCODING 621
SWIDTH 343 0
DWIDTH 11 0
BBX 11 29 1 -5
BITMAP
F800
3800
1800
1800
1800
1800
1800
1800
1800
1800
1800
1800
1800
1800
1800
1800
1800
1800
1800
1800
1800
1800
1800
1800
1800
18E0
18E0
0CE0
07C0
ENDCHAR
STARTCHAR 026E
ENCODING 622
SWIDTH 625 0
DWIDTH 20 0
BBX 18 31 1 -7
BITMAP
080000
F80000
180000
180000
180000
180000
180000
180000
1FFF80
180380
180700
180E00
180C00
181800
183000
186000
18C000
19FC00
180700
180380
180180
1800C0
1800C0
FF00C0
0000C0
0E00C0
0E00C0
0E0180
040180
030600
01FC00
ENDCHAR
STARTCHAR 026F
ENCODING 623
SWIDTH 906 0
DWIDTH 29 0
BBX 27 16 1 -1
BITMAP
FF7F9FE0
180C0300
180C0300
180C0300
180C0300
180C0300
180C0300
180C0300
180C0300
180C0300
180C0300
180C0300
181C0700
18160700
0C261B80
07C3E3E0
ENDCHAR
STARTCHAR 0270
ENCODING 624
SWIDTH 906 0
DWIDTH 29 0
BBX 27 23 1 -7
BITMAP
FF7F9FE0
180C0300
180C0300
180C0300
180C0300
180C0300
180C0300
180C0300
180C0300
180C0300
180C0300
180C0300
181C0700
1C160700
0C261B00
07C3E300
00000300
00000300
00000300
00000300
00000300
000003E0
000003C0
ENDCHAR
STARTCHAR 0271
ENCODING 625
SWIDTH 906 0
DWIDTH 29 0
BBX 24 22 1 -5
BITMAP
F8F87C
1B1C86
1C0D06
1C0703
180603
180603
180603
180603
180603
180603
180603
180603
180603
180603
180603
FF3FC3
000003
000003
000063
000063
000066
00003C
ENDCHAR
STARTCHAR 0272
ENCODING 626
SWIDTH 625 0
DWIDTH 20 0
BBX 22 22 -2 -5
BITMAP
1F1F00
0361C0
0380C0
038060
030060
030060
030060
030060
030060
030060
030060
030060
030060
030060
030060
0303FC
030000
030000
E30000
E30000
E60000
7C0000
ENDCHAR
STARTCHAR 0273
ENCODING 627
SWIDTH 625 0
DWIDTH 20 0
BBX 22 22 1 -5
BITMAP
F8F800
1B0E00
1C0600
1C0300
180300
180300
180300
180300
180300
180300
180300
180300
180300
180300
180300
FF0300
000300
000300
00031C
00031C
00019C
0000F8
ENDCHAR
STARTCHAR 0275
ENCODING 629
SWIDTH 593 0
DWIDTH 19 0
BBX 15 16 2 0
BITMAP
07C0
1830
3018
600C
600C
C00E
C006
FFFE
C006
C00E
E00E
600C
600C
3018
1830
07C0
ENDCHAR
STARTCHAR 0279
ENCODING 633
SWIDTH 406 0
DWIDTH 13 0
BBX 12 16 0 -1
BITMAP
0FF0
0180
0180
0180
0180
0180
0180
0180
0180
0180
0180
0380
0380
E580
E9C0
F1F0
ENDCHAR
STARTCHAR 027A
ENCODING 634
SWIDTH 406 0
DWIDTH 13 0
BBX 12 23 0 -1
BITMAP
0FF0
0180
0180
0180
0180
0180
0180
0180
0180
0180
0180
0180
0180
0180
0180
0180
0180
0180
0380
0380
E580
E9C0
F1F0
ENDCHAR
STARTCHAR 027B
ENCODING 635
SWIDTH 437 0
DWIDTH 14 0
BBX 15 22 0 -6
BITMAP
0FF0
0180
0180
0180
0180
0180
0180
0180
0180
0180
0180
0380
0380
E580
E980
F180
0180
0180
018E
018E
00CE
007C
ENDCHAR
STARTCHAR 027D
ENCODING 637
SWIDTH 406 0
DWIDTH 13 0
BBX 12 22 1 -5
BITMAP
F8F0
1970
1A70
1C00
1800
1800
1800
1800
1800
1800
1800
1800
1800
1800
1800
1800
1800
1800
18E0
18E0
0CE0
07C0
ENDCHAR
STARTCHAR 027E
ENCODING 638
SWIDTH 375 0
DWIDTH 12 0
BBX 11 16 1 0
BITMAP
07C0
0CE0
18E0
1800
1800
1800
1800
1800
1800
1800
1800
1800
1800
1800
1800
FF00
ENDCHAR
STARTCHAR 0281
ENCODING 641
SWIDTH 531 0
DWIDTH 17 0
BBX 15 16 2 0
BITMAP
FC1E
301C
3018
3030
3070
3060
30E0
3F80
3FE0
3030
3018
3018
3018
3018
3070
FFC0
ENDCHAR
STARTCHAR 0282
ENCODING 642
SWIDTH 468 0
DWIDTH 15 0
BBX 12 22 2 -5
BITMAP
1FE0
60E0
C060
C020
C020
E000
7800
1F00
03C0
00E0
8070
8030
C030
C030
F060
9F80
8000
8000
8E00
8E00
4E00
3C00
ENDCHAR
STARTCHAR 0283
ENCODING 643
SWIDTH 437 0
DWIDTH 14 0
BBX 12 30 1 -7
BITMAP
01E0
0330
0630
0600
0600
0600
0600
0600
0600
0600
0600
0600
0600
0600
0600
0600
0600
0600
0600
0600
0600
0600
0600
0600
0600
0600
0600
C400
CC00
7800
ENDCHAR
STARTCHAR 0284
ENCODING 644
SWIDTH 312 0
DWIDTH 10 0
BBX 15 29 -2 -6
BITMAP
007C
018E
010E
0300
0300
0300
0300
0300
0300
0300
0300
0300
0300
0300
0300
0300
0300
0300
0300
0300
0300
0300
1FF0
0300
0300
E300
E300
E600
7C00
ENDCHAR
STARTCHAR 0288
ENCODING 648
SWIDTH 343 0
DWIDTH 11 0
BBX 11 26 0 -5
BITMAP
0800
0800
1800
3800
FFC0
1800
1800
1800
1800
1800
1800
1800
1800
1800
1800
1800
1800
1800
1800
1800
1800
1800
18E0
18E0
0CE0
07C0
ENDCHAR
STARTCHAR 0289
ENCODING 649
SWIDTH 625 0
DWIDTH 20 0
BBX 18 16 1 1
BITMAP
F83E00
180E00
180600
180600
180600
180600
FFFFC0
180600
180600
180600
180600
180600
180E00
0C0E00
0E3600
07C7C0
ENDCHAR
STARTCHAR 028A
ENCODING 650
SWIDTH 625 0
DWIDTH 20 0
BBX 16 16 2 0
BITMAP
FC3F
0810
1818
300C
300C
6006
6006
6006
6006
6006
6006
6006
300C
181C
1C38
07E0
ENDCHAR
STARTCHAR 028B
ENCODING 651
SWIDTH 562 0
DWIDTH 18 0
BBX 16 17 0 0
BITMAP
0006
F807
1807
1803
1803
1803
1803
1803
1803
1803
1802
1806
1806
180C
0C0C
0E18
03E0
ENDCHAR
STARTCHAR 028C
ENCODING 652
SWIDTH 531 0
DWIDTH 17 0
BBX 17 16 0 1
BITMAP
008000
01C000
01C000
016000
036000
023000
063000
043000
041800
0C1800
080C00
180C00
100400
100600
300700
FC3F80
ENDCHAR
STARTCHAR 028D
ENCODING 653
SWIDTH 781 0
DWIDTH 25 0
BBX 25 16 0 1
BITMAP
01804000
0180C000
0380E000
02C1E000
02C12000
06C13000
04623000
04621800
0C761800
08341800
08340C00
18380C00
10180400
10180600
301C0600
FC7F3F80
ENDCHAR
STARTCHAR 028E
ENCODING 654
SWIDTH 531 0
DWIDTH 17 0
BBX 17 23 0 0
BITMAP
001C00
003E00
006E00
006E00
004000
00C000
008000
008000
01C000
01C000
03C000
026000
026000
063000
043000
0C3800
0C1800
081800
180C00
100C00
100600
300600
FC3F80
ENDCHAR
STARTCHAR 0290
ENCODING 656
SWIDTH 562 0
DWIDTH 18 0
BBX 18 22 1 -6
BITMAP
7FF800
603000
407000
40E000
40C000
018000
038000
030000
060000
0E0000
0C0000
180800
380800
700800
601800
FFF800
000800
000800
0009C0
0009C0
000DC0
000780
ENDCHAR
STARTCHAR 0291
ENCODING 657
SWIDTH 500 0
DWIDTH 16 0
BBX 15 19 1 -3
BITMAP
7FF0
6030
4060
40E0
41C0
0180
0380
0700
0600
0C00
1C3C
1842
3082
7102
E306
FFF8
0600
0400
0400
ENDCHAR
STARTCHAR 0292
ENCODING 658
SWIDTH 500 0
DWIDTH 16 0
BBX 14 23 1 -7
BITMAP
7FF8
6038
4070
40E0
40C0
0180
0300
0600
0FC0
1870
1038
0018
000C
000C
000C
000C
000C
E00C
E00C
E018
6030
7060
1FC0
ENDCHAR
STARTCHAR 0294
ENCODING 660
SWIDTH 500 0
DWIDTH 16 0
BBX 13 23 2 0
BITMAP
1F80
3060
4030
C018
E018
E018
0018
0018
0030
0060
0780
0600
0600
0600
0600
0600
0600
0600
0600
0600
0600
0600
3FC0
ENDCHAR
STARTCHAR 0295
ENCODING 661
SWIDTH 500 0
DWIDTH 16 0
BBX 13 23 1 0
BITMAP
0FC0
3020
6010
C018
C038
C038
C000
C000
6000
3000
0F00
0300
0300
0300
0300
0300
0300
0300
0300
0300
0300
0300
1FE0
ENDCHAR
STARTCHAR 0298
ENCODING 664
SWIDTH 625 0
DWIDTH 20 0
BBX 16 16 2 0
BITMAP
07E0
1818
300C
6006
4002
8001
8181
83C1
83C1
8181
8003
4002
6006
300C
1838
07E0
ENDCHAR
STARTCHAR 029D
ENCODING 669
SWIDTH 312 0
DWIDTH 10 0
BBX 11 29 -3 -6
BITMAP
0380
0380
0380
0000
0000
0000
0000
0F80
0180
0180
0180
0180
0180
0180
0180
0180
0180
0180
0180
0180
0180
0180
0180
3D80
C380
81C0
81A0
4300
3E00
ENDCHAR
STARTCHAR 02A1
ENCODING 673
SWIDTH 500 0
DWIDTH 16 0
BBX 13 23 2 0
BITMAP
1F80
7060
C030
C018
E018
E018
0018
0018
0030
00E0
0780
0600
0600
3FC0
0600
0600
0600
0600
0600
0600
0600
0F00
3FC0
ENDCHAR
STARTCHAR 02A2
ENCODING 674
SWIDTH 500 0
DWIDTH 16 0
BBX 13 23 1 0
BITMAP
0FC0
3020
6010
C018
C038
C038
C000
C000
6000
3800
0F00
0300
0300
1FE0
0300
0300
0300
0300
0300
0300
0300
0780
1FE0
ENDCHAR
STARTCHAR 02BB
ENCODING 699
SWIDTH 1000 0
DWIDTH 32 0
BBX 4 9 25 18
BITMAP
10
30
60
40
C0
F0
F0
F0
60
ENDCHAR
STARTCHAR 02BC
ENCODING 700
SWIDTH 1000 0
DWIDTH 32 0
BBX 4 8 3 17
BITMAP
60
F0
F0
70
20
60
40
80
ENDCHAR
STARTCHAR 02C6
ENCODING 710
SWIDTH 500 0
DWIDTH 16 0
BBX 8 3 4 19
BITMAP
3C
66
C3
ENDCHAR
STARTCHAR 02C7
ENCODING 711
SWIDTH 500 0
DWIDTH 16 0
BBX 8 4 4 20
BITMAP
C3
66
3C
18
ENDCHAR
STARTCHAR 02C8
ENCODING 712
SWIDTH 187 0
DWIDTH 6 0
BBX 2 13 2 11
BITMAP
C0
C0
C0
C0
C0
C0
C0
C0
C0
C0
C0
C0
C0
ENDCHAR
STARTCHAR 02CC
ENCODING 716
SWIDTH 187 0
DWIDTH 6 0
BBX 2 12 2 -6
BITMAP
C0
C0
C0
C0
C0
C0
C0
C0
C0
C0
C0
C0
ENDCHAR
STARTCHAR 02D0
ENCODING 720
SWIDTH 281 0
DWIDTH 9 0
BBX 3 14 3 1
BITMAP
E0
E0
40
40
00
00
00
00
00
00
40
40
E0
E0
ENDCHAR
STARTCHAR 02D1
ENCODING 721
SWIDTH 281 0
DWIDTH 9 0
BBX 3 4 3 11
BITMAP
E0
E0
40
40
ENDCHAR
STARTCHAR 02D8
ENCODING 728
SWIDTH 500 0
DWIDTH 16 0
BBX 8 4 4 19
BITMAP
81
81
42
3C
ENDCHAR
STARTCHAR 02D9
ENCODING 729
SWIDTH 500 0
DWIDTH 16 0
BBX 3 3 6 20
BITMAP
E0
E0
E0
ENDCHAR
STARTCHAR 02DB
ENCODING 731
SWIDTH 500 0
DWIDTH 16 0
BBX 7 8 5 -7
BITMAP
18
30
60
C0
C0
C6
FC
78
ENDCHAR
STARTCHAR 02DC
ENCODING 732
SWIDTH 500 0
DWIDTH 16 0
BBX 9 3 4 20
BITMAP
7000
9880
8700
ENDCHAR
STARTCHAR 02DD
ENCODING 733
SWIDTH 500 0
DWIDTH 16 0
BBX 9 4 4 19
BITMAP
3380
6300
4600
CC00
ENDCHAR
STARTCHAR 02DE
ENCODING 734
SWIDTH 500 0
DWIDTH 16 0
BBX 7 8 5 0
BITMAP
10
F0
30
30
30
32
32
1C
ENDCHAR
STARTCHAR 02E5
ENCODING 741
SWIDTH 500 0
DWIDTH 16 0
BBX 8 22 1 0
BITMAP
FF
03
03
03
03
03
03
03
03
03
03
03
03
03
03
03
03
03
03
03
03
03
ENDCHAR
STARTCHAR 02E6
ENCODING 742
SWIDTH 500 0
DWIDTH 16 0
BBX 8 22 1 2
BITMAP
03
03
03
03
03
FF
03
03
03
03
03
03
03
03
03
03
03
03
03
03
03
03
ENDCHAR
STARTCHAR 02E7
ENCODING 743
SWIDTH 500 0
DWIDTH 16 0
BBX 8 23 1 0
BITMAP
03
03
03
03
03
03
03
03
03
03
03
FF
03
03
03
03
03
03
03
03
03
03
03
ENDCHAR
STARTCHAR 02E8
ENCODING 744
SWIDTH 500 0
DWIDTH 16 0
BBX 8 22 1 0
BITMAP
03
03
03
03
03
03
03
03
03
03
03
03
03
03
03
03
FF
03
03
03
03
03
ENDCHAR
STARTCHAR 02E9
ENCODING 745
SWIDTH 500 0
DWIDTH 16 0
BBX 8 22 1 1
BITMAP
03
03
03
03
03
03
03
03
03
03
03
03
03
03
03
03
03
03
03
03
03
FF
ENDCHAR
STARTCHAR 0300
ENCODING 768
SWIDTH 500 0
DWIDTH 16 0
BBX 5 4 5 19
BITMAP
C0
E0
30
18
ENDCHAR
STARTCHAR 0301
ENCODING 769
SWIDTH 500 0
DWIDTH 16 0
BBX 5 5 7 18
BITMAP
10
38
70
60
80
ENDCHAR
STARTCHAR 0302
ENCODING 770
SWIDTH 500 0
DWIDTH 16 0
BBX 8 3 4 19
BITMAP
3C
66
C3
ENDCHAR
STARTCHAR 0303
ENCODING 771
SWIDTH 500 0
DWIDTH 16 0
BBX 9 3 4 20
BITMAP
7000
9880
8700
ENDCHAR
STARTCHAR 0304
ENCODING 772
SWIDTH 500 0
DWIDTH 16 0
BBX 8 1 4 20
BITMAP
FF
ENDCHAR
STARTCHAR 0305
ENCODING 773
SWIDTH 500 0
DWIDTH 16 0
BBX 8 1 4 20
BITMAP
FF
ENDCHAR
STARTCHAR 0306
ENCODING 774
SWIDTH 500 0
DWIDTH 16 0
BBX 8 4 4 19
BITMAP
81
81
42
3C
ENDCHAR
STARTCHAR 0308
ENCODING 776
SWIDTH 500 0
DWIDTH 16 0
BBX 8 3 4 20
BITMAP
E7
E7
E7
ENDCHAR
STARTCHAR 030B
ENCODING 779
SWIDTH 500 0
DWIDTH 16 0
BBX 9 4 4 19
BITMAP
3380
6300
4600
CC00
ENDCHAR
STARTCHAR 030C
ENCODING 780
SWIDTH 500 0
DWIDTH 16 0
BBX 8 4 4 20
BITMAP
C3
66
3C
18
ENDCHAR
STARTCHAR 030F
ENCODING 783
SWIDTH 500 0
DWIDTH 16 0
BBX 9 4 3 19
BITMAP
E600
6300
3100
1980
ENDCHAR
STARTCHAR 0318
ENCODING 792
SWIDTH 500 0
DWIDTH 16 0
BBX 4 7 6 -9
BITMAP
10
10
10
F0
10
10
10
ENDCHAR
STARTCHAR 0319
ENCODING 793
SWIDTH 500 0
DWIDTH 16 0
BBX 4 7 6 -9
BITMAP
80
80
80
F0
80
80
80
ENDCHAR
STARTCHAR 031A
ENCODING 794
SWIDTH 500 0
DWIDTH 16 0
BBX 6 8 3 15
BITMAP
FC
04
04
04
04
04
04
04
ENDCHAR
STARTCHAR 031C
ENCODING 796
SWIDTH 500 0
DWIDTH 16 0
BBX 4 8 6 -9
BITMAP
30
70
C0
80
80
C0
70
10
ENDCHAR
STARTCHAR 031D
ENCODING 797
SWIDTH 500 0
DWIDTH 16 0
BBX 7 4 4 -5
BITMAP
10
10
10
FE
ENDCHAR
STARTCHAR 031E
ENCODING 798
SWIDTH 500 0
DWIDTH 16 0
BBX 7 4 4 -8
BITMAP
FE
10
10
10
ENDCHAR
STARTCHAR 031F
ENCODING 799
SWIDTH 500 0
DWIDTH 16 0
BBX 7 7 4 -9
BITMAP
10
10
10
FE
10
10
10
ENDCHAR
STARTCHAR 0320
ENCODING 800
SWIDTH 500 0
DWIDTH 16 0
BBX 8 1 4 -4
BITMAP
FF
ENDCHAR
STARTCHAR 0324
ENCODING 804
SWIDTH 500 0
DWIDTH 16 0
BBX 8 3 4 -4
BITMAP
E7
E7
E7
ENDCHAR
STARTCHAR 0325
ENCODING 805
SWIDTH 500 0
DWIDTH 16 0
BBX 5 4 6 -6
BITMAP
70
88
88
70
ENDCHAR
STARTCHAR 0327
ENCODING 807
SWIDTH 500 0
DWIDTH 16 0
BBX 6 7 5 -7
BITMAP
20
60
78
0C
0C
1C
F8
ENDCHAR
STARTCHAR 0329
ENCODING 809
SWIDTH 500 0
DWIDTH 16 0
BBX 1 8 7 -8
BITMAP
80
80
80
80
80
80
80
80
ENDCHAR
STARTCHAR 032A
ENCODING 810
SWIDTH 500 0
DWIDTH 16 0
BBX 8 4 4 -8
BITMAP
FF
81
81
81
ENDCHAR
STARTCHAR 032C
ENCODING 812
SWIDTH 500 0
DWIDTH 16 0
BBX 7 4 5 -6
BITMAP
02
CC
78
30
ENDCHAR
STARTCHAR 032F
ENCODING 815
SWIDTH 500 0
DWIDTH 16 0
BBX 8 4 4 -5
BITMAP
3C
42
81
81
ENDCHAR
STARTCHAR 0330
ENCODING 816
SWIDTH 500 0
DWIDTH 16 0
BBX 8 2 4 -5
BITMAP
78
8F
ENDCHAR
STARTCHAR 0332
ENCODING 818
SWIDTH 500 0
DWIDTH 16 0
BBX 16 2 0 -4
BITMAP
FFFF
FFFF
ENDCHAR
STARTCHAR 0334
ENCODING 820
SWIDTH 500 0
DWIDTH 16 0
BBX 9 3 4 8
BITMAP
7000
9980
8700
ENDCHAR
STARTCHAR 0336
ENCODING 822
SWIDTH 906 0
DWIDTH 29 0
BBX 29 1 0 12
BITMAP
FFFFFFF8
ENDCHAR
STARTCHAR 0339
ENCODING 825
SWIDTH 500 0
DWIDTH 16 0
BBX 4 8 6 -9
BITMAP
80
E0
10
10
10
30
E0
80
ENDCHAR
STARTCHAR 033A
ENCODING 826
SWIDTH 500 0
DWIDTH 16 0
BBX 8 4 4 -6
BITMAP
81
81
81
FF
ENDCHAR
STARTCHAR 033B
ENCODING 827
SWIDTH 500 0
DWIDTH 16 0
BBX 8 4 4 -7
BITMAP
FF
81
81
FF
ENDCHAR
STARTCHAR 033C
ENCODING 828
SWIDTH 500 0
DWIDTH 16 0
BBX 8 2 4 -5
BITMAP
7E
99
ENDCHAR
STARTCHAR 033D
ENCODING 829
SWIDTH 500 0
DWIDTH 16 0
BBX 6 6 5 18
BITMAP
84
CC
78
30
78
CC
ENDCHAR
STARTCHAR 0361
ENCODING 865
SWIDTH 0 0
DWIDTH 0 0
BBX 16 4 -8 24
BITMAP
07E0
381C
6006
8001
ENDCHAR
STARTCHAR 0391
ENCODING 913
SWIDTH 1000 0
DWIDTH 32 0
BBX 25 22 4 3
BITMAP
00180000
00180000
003C0000
002C0000
006E0000
00460000
00C60000
00830000
00830000
01838000
01018000
0301C000
0200C000
07FFE000
04006000
0C006000
08007000
08003000
18003800
10001800
30001C00
FE00FF80
ENDCHAR
STARTCHAR 0392
ENCODING 914
SWIDTH 1000 0
DWIDTH 32 0
BBX 19 22 6 2
BITMAP
FFFC00
180700
180180
1800C0
1800C0
1800C0
1800C0
180180
180380
180E00
1FF800
180700
1801C0
1800C0
180060
180060
180060
180060
1800E0
1800C0
180380
FFFE00
ENDCHAR
STARTCHAR 0393
ENCODING 915
SWIDTH 1000 0
DWIDTH 32 0
BBX 18 22 7 2
BITMAP
FFFFC0
3C03C0
1800C0
1800C0
180040
180040
180000
180000
180000
180000
180000
180000
180000
180000
180000
180000
180000
180000
180000
180000
380000
FF0000
ENDCHAR
STARTCHAR 0394
ENCODING 916
SWIDTH 1000 0
DWIDTH 32 0
BBX 22 23 5 2
BITMAP
003000
003000
007000
005800
005800
008C00
008C00
018E00
010600
030700
020300
060380
040180
0C0180
0800C0
0800C0
1000E0
100060
300070
200030
600038
7FFFF8
FFFFFC
ENDCHAR
STARTCHAR 0395
ENCODING 917
SWIDTH 1000 0
DWIDTH 32 0
BBX 19 22 6 2
BITMAP
FFFFC0
1C01C0
1800C0
180040
180040
180040
180000
180400
180400
180C00
1FFC00
180C00
180400
180400
180400
180000
180020
180020
180060
180060
1C01E0
FFFFE0
ENDCHAR
STARTCHAR 0396
ENCODING 918
SWIDTH 1000 0
DWIDTH 32 0
BBX 18 22 7 2
BITMAP
7FFFC0
700180
600380
400700
400E00
400C00
001C00
003800
007000
00E000
00C000
01C000
038000
070000
060000
0E0040
1C0040
380040
3000C0
7000C0
E003C0
FFFFC0
ENDCHAR
STARTCHAR 0397
ENCODING 919
SWIDTH 1000 0
DWIDTH 32 0
BBX 22 22 5 2
BITMAP
FF03FC
180060
180060
180060
180060
180060
180060
180060
180060
180060
1FFFE0
180060
180060
180060
180060
180060
180060
180060
180060
180060
180060
FF03FC
ENDCHAR
STARTCHAR 0398
ENCODING 920
SWIDTH 1000 0
DWIDTH 32 0
BBX 22 23 5 1
BITMAP
00FC00
070380
0E01C0
1C00E0
380070
700038
700038
600018
E4009C
E4009C
E7FF9C
E7FF9C
E4009C
E4009C
E0001C
700018
700038
700038
380070
1C0060
0E00C0
070380
01FE00
ENDCHAR
STARTCHAR 0399
ENCODING 921
SWIDTH 1000 0
DWIDTH 32 0
BBX 8 22 12 2
BITMAP
FF
3C
18
18
18
18
18
18
18
18
18
18
18
18
18
18
18
18
18
18
38
FF
ENDCHAR
STARTCHAR 039A
ENCODING 922
SWIDTH 1000 0
DWIDTH 32 0
BBX 23 22 5 2
BITMAP
FF0FF0
1801C0
180100
180200
180400
180800
181000
182000
184000
18E000
197000
1A3800
1C1800
180C00
180E00
180700
180380
1801C0
1800E0
180060
180070
FF03FE
ENDCHAR
STARTCHAR 039B
ENCODING 923
SWIDTH 1000 0
DWIDTH 32 0
BBX 24 23 4 2
BITMAP
001000
001800
001800
003C00
002C00
006E00
004600
004600
00C700
008300
018380
010380
030180
0301C0
0200C0
0600E0
0400E0
0C0060
0C0070
080030
180038
38003C
FF01FF
ENDCHAR
STARTCHAR 039C
ENCODING 924
SWIDTH 1000 0
DWIDTH 32 0
BBX 26 22 3 2
BITMAP
FC000FC0
1C000E00
1E000E00
16001600
16001600
13003600
13002600
13802600
11804600
11804600
10C0C600
10C08600
10E08600
10610600
10610600
10330600
10320600
103A0600
101C0600
101C0600
100C0600
FE083FC0
ENDCHAR
STARTCHAR 039D
ENCODING 925
SWIDTH 1000 0
DWIDTH 32 0
BBX 24 23 4 1
BITMAP
FC007F
1C0008
1E0008
170008
138008
11C008
10E008
10E008
107008
103808
101C08
101E08
100E08
100708
100388
1001C8
1001E8
1000F8
100078
100038
100018
FE0018
000008
ENDCHAR
STARTCHAR 039E
ENCODING 926
SWIDTH 1000 0
DWIDTH 32 0
BBX 18 22 7 2
BITMAP
7FFF80
7FFF80
400080
400080
400080
000000
000000
000000
080400
080400
0FFC00
0FFC00
080400
080400
000000
000000
000000
800040
800040
800040
FFFFC0
FFFFC0
ENDCHAR
STARTCHAR 039F
ENCODING 927
SWIDTH 1000 0
DWIDTH 32 0
BBX 22 23 5 1
BITMAP
00FC00
070380
0E01C0
1C00E0
380070
700038
700038
600018
E0001C
E0001C
E0001C
E0001C
E0001C
E0001C
E0001C
600038
700038
700038
380070
1C00E0
0E01C0
070380
01FE00
ENDCHAR
STARTCHAR 03A0
ENCODING 928
SWIDTH 1000 0
DWIDTH 32 0
BBX 22 22 5 2
BITMAP
FFFFFC
1C0060
180060
180060
180060
180060
180060
180060
180060
180060
180060
180060
180060
180060
180060
180060
180060
180060
180060
180060
180060
FF03FC
ENDCHAR
STARTCHAR 03A1
ENCODING 929
SWIDTH 1000 0
DWIDTH 32 0
BBX 19 22 7 2
BITMAP
FFFC00
180780
1801C0
1801C0
1800E0
1800E0
1800E0
1800E0
1801C0
1803C0
180F00
1FFC00
180000
180000
180000
180000
180000
180000
180000
180000
180000
FF0000
ENDCHAR
STARTCHAR 03A3
ENCODING 931
SWIDTH 1000 0
DWIDTH 32 0
BBX 20 22 6 2
BITMAP
FFFFE0
7000E0
380060
1C0020
0E0020
070000
038000
01C000
00E000
007000
003000
002000
004000
008000
010000
020010
040010
080010
100030
200070
7FFFF0
FFFFF0
ENDCHAR
STARTCHAR 03A4
ENCODING 932
SWIDTH 1000 0
DWIDTH 32 0
BBX 20 22 6 2
BITMAP
FFFFF0
E06070
C06030
806010
806010
806010
006000
006000
006000
006000
006000
006000
006000
006000
006000
006000
006000
006000
006000
006000
006000
03FC00
ENDCHAR
STARTCHAR 03A5
ENCODING 933
SWIDTH 1000 0
DWIDTH 32 0
BBX 20 22 6 2
BITMAP
1E0780
3F9FC0
619860
C0F030
806010
806010
006000
006000
006000
006000
006000
006000
006000
006000
006000
006000
006000
006000
006000
006000
006000
03FC00
ENDCHAR
STARTCHAR 03A6
ENCODING 934
SWIDTH 1000 0
DWIDTH 32 0
BBX 20 22 6 2
BITMAP
03FC00
006000
006000
006000
0FFE00
1C6380
3060C0
7060E0
E06070
E06070
E06070
E06070
E06070
E06070
7060E0
3060C0
1C6380
0F6F00
00F000
006000
006000
03FC00
ENDCHAR
STARTCHAR 03A7
ENCODING 935
SWIDTH 1000 0
DWIDTH 32 0
BBX 24 22 4 2
BITMAP
7FC1FC
1E0070
0E0060
0700C0
038080
01C100
00C300
00E600
007400
003800
001800
003C00
006E00
004700
008380
010180
0201C0
0600E0
0C0070
180038
38003C
FF01FF
ENDCHAR
STARTCHAR 03A8
ENCODING 936
SWIDTH 1000 0
DWIDTH 32 0
BBX 24 22 4 2
BITMAP
70FF0E
F8181F
981819
1C1838
0C1830
0C1830
0C1830
0C1830
0C1830
0C1830
0C1830
0C1830
061860
061860
0318C0
00DF80
003800
001800
001800
001800
001800
00FF00
ENDCHAR
STARTCHAR 03A9
ENCODING 937
SWIDTH 1000 0
DWIDTH 32 0
BBX 20 22 6 2
BITMAP
01F800
0F0F00
1C0380
3801C0
7000E0
7000E0
E00070
E00070
E00070
E00070
E00070
E00070
E00070
7000E0
7000E0
3801C0
1C0380
8E0710
830C10
810810
FF0FF0
FF0FF0
ENDCHAR
STARTCHAR 03B1
ENCODING 945
SWIDTH 1000 0
DWIDTH 32 0
BBX 18 16 7 1
BITMAP
01E180
073100
0C1B00
181B00
181A00
301E00
601C00
601800
E01800
C01800
C03800
C07800
C05840
C09840
630C80
3C0F00
ENDCHAR
STARTCHAR 03B2
ENCODING 946
SWIDTH 1000 0
DWIDTH 32 0
BBX 15 27 7 -4
BITMAP
00F0
01FC
030C
0206
0606
0406
0C06
0806
080C
1BC8
1BF0
11D0
1018
3008
300C
200C
200C
600C
600C
6018
6038
7870
C7C0
C000
C000
C000
C000
ENDCHAR
STARTCHAR 03B3
ENCODING 947
SWIDTH 1000 0
DWIDTH 32 0
BBX 18 20 6 -3
BITMAP
1C01C0
3E0180
630380
C10300
018600
008600
008C00
008800
00D800
005000
007000
006000
006000
004000
00C000
00C000
01C000
01C000
01C000
018000
ENDCHAR
STARTCHAR 03B4
ENCODING 948
SWIDTH 1000 0
DWIDTH 32 0
BBX 14 23 9 1
BITMAP
0FC0
1070
103C
100C
0800
0C00
0700
0180
0660
1830
3010
6018
6018
6018
C018
C018
C038
C030
C070
C060
60C0
2180
1F00
ENDCHAR
STARTCHAR 03B5
ENCODING 949
SWIDTH 1000 0
DWIDTH 32 0
BBX 13 16 9 1
BITMAP
0FC0
3FF0
7818
6000
6000
6000
3F80
3F80
6000
C000
C000
C000
C008
6010
7060
1F80
ENDCHAR
STARTCHAR 03B6
ENCODING 950
SWIDTH 1000 0
DWIDTH 32 0
BBX 15 27 8 -2
BITMAP
060E
0C3C
0C78
0CF0
07C0
0200
0600
0C00
1800
1000
3000
2000
6000
4000
C000
C000
C000
C000
E000
7800
3F00
0FC0
00F0
0030
0C10
0E20
03C0
ENDCHAR
STARTCHAR 03B7
ENCODING 951
SWIDTH 1000 0
DWIDTH 32 0
BBX 15 20 7 -3
BITMAP
387C
CD8E
8706
0606
0606
0406
0C06
0C0C
080C
180C
180C
3818
3018
3018
7018
0030
0030
0030
0030
0070
ENDCHAR
STARTCHAR 03B8
ENCODING 952
SWIDTH 1000 0
DWIDTH 32 0
BBX 14 23 9 1
BITMAP
01E0
0630
0C18
0808
180C
300C
300C
600C
600C
600C
FFFC
C01C
C018
C018
C038
C038
C030
C070
C060
40C0
61C0
2380
1E00
ENDCHAR
STARTCHAR 03B9
ENCODING 953
SWIDTH 1000 0
DWIDTH 32 0
BBX 9 15 11 2
BITMAP
1C00
1800
1800
3000
3000
6000
6000
6000
4000
C000
C000
C180
E300
7E00
3C00
ENDCHAR
STARTCHAR 03BA
ENCODING 954
SWIDTH 1000 0
DWIDTH 32 0
BBX 16 16 8 1
BITMAP
0C07
0C1F
0C38
18E0
1980
1B00
1400
3F80
3180
3180
6180
6180
6182
C0C6
C0FC
C070
ENDCHAR
STARTCHAR 03BB
ENCODING 955
SWIDTH 1000 0
DWIDTH 32 0
BBX 16 23 7 1
BITMAP
0380
07C0
08C0
0040
0040
0040
0040
0040
0040
00C0
00C0
01C0
0340
0340
0640
0C40
0C40
1840
3840
3061
6063
E03E
C01C
ENDCHAR
STARTCHAR 03BC
ENCODING 956
SWIDTH 1000 0
DWIDTH 32 0
BBX 19 20 6 -3
BITMAP
020100
070380
060300
040300
0C0700
080600
080600
100600
100C00
100C00
300C00
301C20
383C20
2C6440
6FE780
678300
600000
400000
C00000
C00000
ENDCHAR
STARTCHAR 03BD
ENCODING 957
SWIDTH 1000 0
DWIDTH 32 0
BBX 16 16 8 0
BITMAP
7006
F807
9C07
0C01
0C01
0C01
0C02
0C06
0C04
0C1C
0C38
08F0
1BC0
1F80
1E00
1800
ENDCHAR
STARTCHAR 03BE
ENCODING 958
SWIDTH 1000 0
DWIDTH 32 0
BBX 12 28 10 -3
BITMAP
0800
3070
31E0
1F80
0400
0800
1800
1000
3000
3000
3000
1BE0
0FC0
3000
6000
6000
C000
C000
C000
C000
E000
7E00
1F80
01C0
00C0
60C0
7180
3F00
ENDCHAR
STARTCHAR 03BF
ENCODING 959
SWIDTH 1000 0
DWIDTH 32 0
BBX 14 16 9 1
BITMAP
07C0
1C30
3018
3018
600C
600C
C00C
C00C
C00C
C00C
C018
C018
6038
6030
30E0
0F80
ENDCHAR
STARTCHAR 03C0
ENCODING 960
SWIDTH 1000 0
DWIDTH 32 0
BBX 17 17 8 2
BITMAP
000180
3FFF00
7FFE00
C62000
842000
042000
0C6000
084000
084000
18C000
18C000
10C000
30C000
30C200
60E600
607C00
E03800
ENDCHAR
STARTCHAR 03C1
ENCODING 961
SWIDTH 1000 0
DWIDTH 32 0
BBX 16 20 7 -3
BITMAP
00F8
030C
0606
0C02
0803
1803
1803
3803
3803
3806
2806
6C0C
6618
63F0
6000
6000
C000
C000
C000
C000
ENDCHAR
STARTCHAR 03C2
ENCODING 962
SWIDTH 500 0
DWIDTH 16 0
BBX 14 22 1 -6
BITMAP
07E0
1C30
3018
300C
601C
601C
601C
6000
6000
3000
3800
1C00
0E00
0700
0380
01C0
00C0
00C0
C0C0
E0C0
6180
3E00
ENDCHAR
STARTCHAR 03C3
ENCODING 963
SWIDTH 1000 0
DWIDTH 32 0
BBX 16 16 9 1
BITMAP
07FF
181F
3010
2008
6008
400C
C00C
C00C
C00C
C00C
C01C
C018
6038
6070
30E0
0F80
ENDCHAR
STARTCHAR 03C4
ENCODING 964
SWIDTH 1000 0
DWIDTH 32 0
BBX 16 17 8 2
BITMAP
0001
3FFF
7FFE
C080
8100
0100
0300
0200
0600
0600
0400
0C00
0C00
0C10
0E30
07E0
03C0
ENDCHAR
STARTCHAR 03C5
ENCODING 965
SWIDTH 1000 0
DWIDTH 32 0
BBX 16 16 7 1
BITMAP
3C0C
460E
860F
0607
0603
0E01
0C01
1C01
1801
3802
3002
3002
3004
3808
1C30
07C0
ENDCHAR
STARTCHAR 03C6
ENCODING 966
SWIDTH 1000 0
DWIDTH 32 0
BBX 18 26 7 -3
BITMAP
001C00
001800
001800
001000
001000
003000
01F800
0E2600
182380
306180
6040C0
E040C0
C040C0
C080C0
C080C0
C080C0
C18180
610380
210700
191C00
07F000
020000
020000
060000
060000
0E0000
ENDCHAR
STARTCHAR 03C7
ENCODING 967
SWIDTH 1000 0
DWIDTH 32 0
BBX 17 21 7 -4
BITMAP
1E0300
3F0700
430600
010C00
019C00
019800
00B000
00F000
00E000
00C000
01C000
01C000
034000
064000
0E4000
0C4080
186100
383300
303E00
601C00
E00000
ENDCHAR
STARTCHAR 03C8
ENCODING 968
SWIDTH 1000 0
DWIDTH 32 0
BBX 18 25 7 -3
BITMAP
001C00
001800
001800
001800
021000
043100
083180
102080
302080
6060C0
6060C0
C040C0
C040C0
C0C0C0
C081C0
C08180
608380
718700
390E00
0FF800
030000
030000
020000
060000
060000
ENDCHAR
STARTCHAR 03C9
ENCODING 969
SWIDTH 1000 0
DWIDTH 32 0
BBX 20 16 6 2
BITMAP
0200C0
040040
080060
100020
300030
601030
603030
C07030
C07030
C06030
C06030
C04060
E0C060
61A0C0
7F3180
1E1F00
ENDCHAR
STARTCHAR 0401
ENCODING 1025
SWIDTH 1000 0
DWIDTH 32 0
BBX 19 26 6 2
BITMAP
0E0700
0E0700
0E0700
000000
FFFFC0
1C01C0
1800C0
180040
180040
180040
180000
180400
180400
180C00
1FFC00
180C00
180400
180400
180400
180000
180020
180020
180060
180060
1C01E0
FFFFE0
ENDCHAR
STARTCHAR 0410
ENCODING 1040
SWIDTH 1000 0
DWIDTH 32 0
BBX 25 22 4 3
BITMAP
00180000
00180000
003C0000
002C0000
006E0000
00460000
00C60000
00830000
00830000
01838000
01018000
0301C000
0200C000
07FFE000
04006000
0C006000
08007000
08003000
18003800
10001800
30001C00
FE00FF80
ENDCHAR
STARTCHAR 0411
ENCODING 1041
SWIDTH 1000 0
DWIDTH 32 0
BBX 20 22 6 2
BITMAP
FFFFC0
1C01C0
1800C0
180040
180040
180040
180000
180000
180000
180000
1FFE00
180380
1800E0
180060
180030
180030
180030
180030
180060
1800E0
180180
FFFE00
ENDCHAR
STARTCHAR 0412
ENCODING 1042
SWIDTH 1000 0
DWIDTH 32 0
BBX 19 22 6 2
BITMAP
FFFC00
180700
180180
1800C0
1800C0
1800C0
1800C0
180180
180380
180E00
1FF800
180700
1801C0
1800C0
180060
180060
180060
180060
1800E0
1800C0
180380
FFFE00
ENDCHAR
STARTCHAR 0413
ENCODING 1043
SWIDTH 1000 0
DWIDTH 32 0
BBX 18 22 7 2
BITMAP
FFFFC0
3C03C0
1800C0
1800C0
180040
180040
180000
180000
180000
180000
180000
180000
180000
180000
180000
180000
180000
180000
180000
180000
380000
FF0000
ENDCHAR
STARTCHAR 0414
ENCODING 1044
SWIDTH 1000 0
DWIDTH 32 0
BBX 22 26 5 -3
BITMAP
0FFFFC
0100E0
010060
010060
010060
010060
010060
010060
010060
020060
020060
020060
020060
040060
040060
040060
080060
080060
100060
300060
200060
FFFFFC
E0000C
C00004
800004
800004
ENDCHAR
STARTCHAR 0415
ENCODING 1045
SWIDTH 1000 0
DWIDTH 32 0
BBX 19 22 6 2
BITMAP
FFFFC0
1C01C0
1800C0
180040
180040
180040
180000
180400
180400
180C00
1FFC00
180C00
180400
180400
180400
180000
180020
180020
180060
180060
1C01E0
FFFFE0
ENDCHAR
STARTCHAR 0416
ENCODING 1046
SWIDTH 1000 0
DWIDTH 32 0
BBX 28 22 2 2
BITMAP
383FC1C0
640602E0
740602E0
720604E0
02060400
02060400
01060C00
01060800
00861000
00462000
007FE000
00E67000
00C63000
01861800
03861C00
03060C00
06060600
0E060700
1C060380
18060180
380601C0
FE3FC7F0
ENDCHAR
STARTCHAR 0417
ENCODING 1047
SWIDTH 1000 0
DWIDTH 32 0
BBX 17 23 8 1
BITMAP
07F000
3C0C00
700600
600300
400300
000300
000300
000700
000600
001C00
07E000
001C00
000600
000300
000180
000180
800180
800180
C00380
E00300
E00600
381C00
0FF000
ENDCHAR
STARTCHAR 0418
ENCODING 1048
SWIDTH 1000 0
DWIDTH 32 0
BBX 22 22 5 2
BITMAP
FF03FC
180060
180060
180060
180060
1800E0
180160
180260
180C60
181860
183060
186060
18C060
190060
1A0060
1C0060
180060
180060
180060
180060
180060
FF03FC
ENDCHAR
STARTCHAR 0419
ENCODING 1049
SWIDTH 1000 0
DWIDTH 32 0
BBX 22 26 5 2
BITMAP
038700
038700
010200
00FC00
FF03FC
180060
180060
180060
180060
1800E0
180160
180260
180C60
181860
183060
186060
18C060
190060
1A0060
1C0060
180060
180060
180060
180060
180060
FF03FC
ENDCHAR
STARTCHAR 041A
ENCODING 1050
SWIDTH 1000 0
DWIDTH 32 0
BBX 23 22 5 3
BITMAP
FF00F0
180178
180278
180278
180600
180400
180800
181800
183000
18E000
1F7000
183800
181800
180C00
180E00
180700
180380
1801C0
1800E0
180060
180070
FF03FE
ENDCHAR
STARTCHAR 041B
ENCODING 1051
SWIDTH 1000 0
DWIDTH 32 0
BBX 23 23 4 1
BITMAP
03FFFE
006030
006030
006030
006030
004030
004030
004030
004030
004030
004030
004030
004030
004030
00C030
00C030
70C030
F08030
F08030
818030
C10030
4301FE
3C0000
ENDCHAR
STARTCHAR 041C
ENCODING 1052
SWIDTH 1000 0
DWIDTH 32 0
BBX 28 22 2 2
BITMAP
3F000FC0
07000F00
07800F00
05801700
05801700
08C03300
08C02300
08E02300
08604300
08604300
0870C300
08308300
08388300
08190380
08190180
101E0180
100E0180
100E0180
10040180
10040180
18000180
FF001FF0
ENDCHAR
STARTCHAR 041D
ENCODING 1053
SWIDTH 1000 0
DWIDTH 32 0
BBX 22 22 5 2
BITMAP
FF03FC
180060
180060
180060
180060
180060
180060
180060
180060
180060
1FFFE0
180060
180060
180060
180060
180060
180060
180060
180060
180060
180060
FF03FC
ENDCHAR
STARTCHAR 041E
ENCODING 1054
SWIDTH 1000 0
DWIDTH 32 0
BBX 22 23 5 1
BITMAP
00FC00
070380
0E01C0
1C00E0
380070
700038
700038
600018
E0001C
E0001C
E0001C
E0001C
E0001C
E0001C
E0001C
600038
700038
700038
380070
1C00E0
0E01C0
070380
01FE00
ENDCHAR
STARTCHAR 041F
ENCODING 1055
SWIDTH 1000 0
DWIDTH 32 0
BBX 22 22 5 2
BITMAP
FFFFFC
1C0060
180060
180060
180060
180060
180060
180060
180060
180060
180060
180060
180060
180060
180060
180060
180060
180060
180060
180060
180060
FF03FC
ENDCHAR
STARTCHAR 0420
ENCODING 1056
SWIDTH 1000 0
DWIDTH 32 0
BBX 19 22 7 2
BITMAP
FFFC00
180780
1801C0
1801C0
1800E0
1800E0
1800E0
1800E0
1801C0
1803C0
180F00
1FFC00
180000
180000
180000
180000
180000
180000
180000
180000
180000
FF0000
ENDCHAR
STARTCHAR 0421
ENCODING 1057
SWIDTH 1000 0
DWIDTH 32 0
BBX 21 23 5 1
BITMAP
00FF00
0381E0
0E0070
180030
380010
300010
700000
600000
E00000
E00000
E00000
E00000
E00000
E00000
E00000
700008
700008
700018
380018
1C0038
0E0078
0781E0
00FF00
ENDCHAR
STARTCHAR 0422
ENCODING 1058
SWIDTH 1000 0
DWIDTH 32 0
BBX 20 22 6 2
BITMAP
FFFFF0
E06070
C06030
806010
806010
806010
006000
006000
006000
006000
006000
006000
006000
006000
006000
006000
006000
006000
006000
006000
006000
03FC00
ENDCHAR
STARTCHAR 0423
ENCODING 1059
SWIDTH 1000 0
DWIDTH 32 0
BBX 22 23 5 1
BITMAP
FF83FC
1C0060
0C0060
060040
0600C0
030080
030180
018100
01C300
00C200
00E200
006400
007400
003800
001800
001800
001000
383000
782000
784000
70C000
318000
1F0000
ENDCHAR
STARTCHAR 0424
ENCODING 1060
SWIDTH 1000 0
DWIDTH 32 0
BBX 20 22 6 2
BITMAP
03FC00
006000
006000
006000
0FFE00
1C6380
3060C0
7060E0
E06070
E06070
E06070
E06070
E06070
E06070
7060E0
3060C0
1C6380
0F6F00
00F000
006000
006000
03FC00
ENDCHAR
STARTCHAR 0425
ENCODING 1061
SWIDTH 1000 0
DWIDTH 32 0
BBX 24 22 4 2
BITMAP
7FC1FC
1E0070
0E0060
0700C0
038080
01C100
00C300
00E600
007400
003800
001800
003C00
006E00
004700
008380
010180
0201C0
0600E0
0C0070
180038
38003C
FF01FF
ENDCHAR
STARTCHAR 0426
ENCODING 1062
SWIDTH 1000 0
DWIDTH 32 0
BBX 23 26 4 -3
BITMAP
FF01FE
180030
180030
180030
180030
180030
180030
180030
180030
180030
180030
180030
180030
180030
180030
180030
180030
180030
180030
180030
1C0070
FFFFFE
000006
000002
000002
000002
ENDCHAR
STARTCHAR 0427
ENCODING 1063
SWIDTH 1000 0
DWIDTH 32 0
BBX 21 22 5 2
BITMAP
FF07F8
1800C0
1800C0
1800C0
1800C0
1800C0
1800C0
1800C0
1800C0
1800C0
1800C0
0801C0
0C03C0
060EC0
01F8C0
0000C0
0000C0
0000C0
0000C0
0000C0
0000C0
0007F8
ENDCHAR
STARTCHAR 0428
ENCODING 1064
SWIDTH 1000 0
DWIDTH 32 0
BBX 28 22 2 2
BITMAP
FF3FCFF0
18060180
18060180
18060180
18060180
18060180
18060180
18060180
18060180
18060180
18060180
18060180
18060180
18060180
18060180
18060180
18060180
18060180
18060180
18060180
18060180
FFFFFFF0
ENDCHAR
STARTCHAR 0429
ENCODING 1065
SWIDTH 1000 0
DWIDTH 32 0
BBX 28 26 2 -3
BITMAP
FF3FDFE0
18060300
18060300
18060300
18060300
18060300
18060300
18060300
18060300
18060300
18060300
18060300
18060300
18060300
18060300
18060300
18060300
18060300
18060300
18060300
18060380
FFFFFFF0
00000070
00000030
00000010
00000010
ENDCHAR
STARTCHAR 042A
ENCODING 1066
SWIDTH 1000 0
DWIDTH 32 0
BBX 24 22 4 2
BITMAP
FFF800
E1C000
C0C000
80C000
80C000
80C000
00C000
00C000
00C000
00C000
00FFE0
00C03C
00C00E
00C00E
00C007
00C007
00C007
00C007
00C00F
00C00E
00C03C
07FFF0
ENDCHAR
STARTCHAR 042B
ENCODING 1067
SWIDTH 1000 0
DWIDTH 32 0
BBX 26 22 3 2
BITMAP
FF003FC0
18000600
18000600
18000600
18000600
18000600
18000600
18000600
18000600
18000600
1FF80600
180F0600
18038600
18038600
1801C600
1801C600
1801C600
1801C600
18038600
18038600
18070600
FFFC3FC0
ENDCHAR
STARTCHAR 042C
ENCODING 1068
SWIDTH 1000 0
DWIDTH 32 0
BBX 19 22 6 2
BITMAP
FF0000
180000
180000
180000
180000
180000
180000
180000
180000
180000
1FFC00
180780
1801C0
1801C0
1800E0
1800E0
1800E0
1800E0
1801E0
1801C0
180780
FFFE00
ENDCHAR
STARTCHAR 042D
ENCODING 1069
SWIDTH 1000 0
DWIDTH 32 0
BBX 21 23 6 1
BITMAP
07F800
3C0F00
700380
6000C0
4000E0
400070
000030
000030
03C038
0FE038
187878
001FF8
000FB8
000038
000038
800030
800070
C00070
C000E0
E001C0
F00380
3C0F00
07F800
ENDCHAR
STARTCHAR 042E
ENCODING 1070
SWIDTH 1000 0
DWIDTH 32 0
BBX 26 23 2 1
BITMAP
FF01F000
18061C00
180C0600
18180700
18300300
18300380
18700380
186001C0
186001C0
186001C0
1FE001C0
186001C0
186001C0
186001C0
186001C0
186001C0
18300380
18300380
18300380
18180700
180C0E00
FF061C00
0001F000
ENDCHAR
STARTCHAR 042F
ENCODING 1071
SWIDTH 1000 0
DWIDTH 32 0
BBX 21 23 5 1
BITMAP
01FFF8
0700C0
0E00C0
1C00C0
1C00C0
1C00C0
1C00C0
1C00C0
0E00C0
0700C0
01FFC0
0060C0
00E0C0
00C0C0
01C0C0
0380C0
0300C0
0700C0
0E00C0
1C00C0
3800C0
E007F8
800000
ENDCHAR
STARTCHAR 0430
ENCODING 1072
SWIDTH 1000 0
DWIDTH 32 0
BBX 16 16 9 1
BITMAP
1FC0
70E0
7070
7030
7030
0030
03F0
1C30
3030
6030
C030
C030
C030
C073
61BE
3E1C
ENDCHAR
STARTCHAR 0431
ENCODING 1073
SWIDTH 1000 0
DWIDTH 32 0
BBX 16 23 8 2
BITMAP
0002
0006
01FC
0FF0
1C00
3000
2000
67E0
4C38
F00C
E006
E006
C003
C003
C003
C003
C003
C003
6006
6006
300C
1C38
07E0
ENDCHAR
STARTCHAR 0432
ENCODING 1074
SWIDTH 1000 0
DWIDTH 32 0
BBX 16 15 7 2
BITMAP
FFF8
180C
1806
1806
1806
1806
180C
1FF0
180E
1803
1803
1803
1803
180E
FFF8
ENDCHAR
STARTCHAR 0433
ENCODING 1075
SWIDTH 1000 0
DWIDTH 32 0
BBX 15 15 8 2
BITMAP
FFFE
180E
1806
1802
1802
1802
1800
1800
1800
1800
1800
1800
1800
1800
FF00
ENDCHAR
STARTCHAR 0434
ENCODING 1076
SWIDTH 1000 0
DWIDTH 32 0
BBX 18 19 7 -3
BITMAP
1FFFC0
020600
020600
020600
020600
040600
040600
040600
040600
080600
080600
100600
100600
200600
FFFFC0
C000C0
800040
800040
800040
ENDCHAR
STARTCHAR 0435
ENCODING 1077
SWIDTH 1000 0
DWIDTH 32 0
BBX 15 16 8 1
BITMAP
07E0
1C38
301C
700C
600E
E006
FFFE
E000
E000
E000
E000
7002
7004
380C
1C18
07E0
ENDCHAR
STARTCHAR 0436
ENCODING 1078
SWIDTH 1000 0
DWIDTH 32 0
BBX 26 15 3 2
BITMAP
383F0600
3C0C0F00
3A0C1700
020C1000
010C2000
018C6000
01EDE000
019E6000
030C3000
020C1000
060C1800
0C0C0C00
080C0400
180C0600
FE3F1FC0
ENDCHAR
STARTCHAR 0437
ENCODING 1079
SWIDTH 1000 0
DWIDTH 32 0
BBX 13 16 10 1
BITMAP
1F80
7060
6030
4030
4030
0030
00E0
0FC0
0070
0038
8018
8018
C018
C030
F070
1FC0
ENDCHAR
STARTCHAR 0438
ENCODING 1080
SWIDTH 1000 0
DWIDTH 32 0
BBX 18 15 7 2
BITMAP
FE1FC0
180600
180600
180E00
181600
182600
184600
188600
198600
1B0600
1E0600
1C0600
180600
180600
FE1FC0
ENDCHAR
STARTCHAR 0439
ENCODING 1081
SWIDTH 1000 0
DWIDTH 32 0
BBX 18 21 7 2
BITMAP
061800
061800
061800
021000
01E000
000000
FE1FC0
180600
180600
180E00
181600
182600
184600
188600
198600
1B0600
1E0600
1C0600
180600
180600
FE1FC0
ENDCHAR
STARTCHAR 043A
ENCODING 1082
SWIDTH 1000 0
DWIDTH 32 0
BBX 19 15 7 2
BITMAP
FF0380
180780
180980
181800
181000
186000
1FE000
187000
183000
181800
181C00
180E00
180600
180700
FF1FE0
ENDCHAR
STARTCHAR 043B
ENCODING 1083
SWIDTH 1000 0
DWIDTH 32 0
BBX 20 16 5 1
BITMAP
07FFF0
008180
008180
008180
008180
008180
008180
008180
008180
008180
010180
E10180
E10180
C30180
620FF0
3C0000
ENDCHAR
STARTCHAR 043C
ENCODING 1084
SWIDTH 1000 0
DWIDTH 32 0
BBX 22 15 5 2
BITMAP
FC00FC
1C00E0
160160
160160
130260
130260
130660
118460
118460
10C860
10C860
107060
107060
106060
FE23FC
ENDCHAR
STARTCHAR 043D
ENCODING 1085
SWIDTH 1000 0
DWIDTH 32 0
BBX 18 15 7 2
BITMAP
FE1FC0
180600
180600
180600
180600
180600
180600
1FFE00
180600
180600
180600
180600
180600
180600
FE1FC0
ENDCHAR
STARTCHAR 043E
ENCODING 1086
SWIDTH 1000 0
DWIDTH 32 0
BBX 16 16 8 1
BITMAP
07E0
1C38
300C
6006
6006
C003
C003
C003
C003
C003
C003
6006
600E
300C
1C38
07E0
ENDCHAR
STARTCHAR 043F
ENCODING 1087
SWIDTH 1000 0
DWIDTH 32 0
BBX 18 15 7 2
BITMAP
FFFFC0
180600
180600
180600
180600
180600
180600
180600
180600
180600
180600
180600
180600
180600
FE1FC0
ENDCHAR
STARTCHAR 0440
ENCODING 1088
SWIDTH 1000 0
DWIDTH 32 0
BBX 17 21 7 -3
BITMAP
080000
F9F800
1E0C00
1C0600
180300
180180
180180
180180
180180
180180
180180
180300
1C0700
1E0E00
19F800
180000
180000
180000
180000
180000
FF0000
ENDCHAR
STARTCHAR 0441
ENCODING 1089
SWIDTH 1000 0
DWIDTH 32 0
BBX 14 16 9 1
BITMAP
07C0
1830
3038
6038
6038
C000
C000
C000
C000
C000
C000
6004
6008
3018
1830
07C0
ENDCHAR
STARTCHAR 0442
ENCODING 1090
SWIDTH 1000 0
DWIDTH 32 0
BBX 14 15 9 2
BITMAP
FFFC
C30C
8304
8304
8304
0300
0300
0300
0300
0300
0300
0300
0300
0300
0FC0
ENDCHAR
STARTCHAR 0443
ENCODING 1091
SWIDTH 1000 0
DWIDTH 32 0
BBX 19 20 7 -3
BITMAP
FF1FE0
380380
180300
0C0200
0C0600
060400
060C00
030800
030800
019000
01D000
00E000
00E000
004000
004000
00C000
008000
398000
3B0000
1E0000
ENDCHAR
STARTCHAR 0444
ENCODING 1092
SWIDTH 1000 0
DWIDTH 32 0
BBX 18 28 7 -3
BITMAP
00C000
07C000
00C000
00C000
00C000
00C000
00C000
00C000
1FFE00
30C300
60C180
60C180
C0C0C0
C0C0C0
C0C0C0
C0C0C0
C0C0C0
C0C0C0
C0C0C0
60C180
60C180
31E300
1EDE00
00C000
00C000
00C000
00C000
07F800
ENDCHAR
STARTCHAR 0445
ENCODING 1093
SWIDTH 1000 0
DWIDTH 32 0
BBX 20 15 6 2
BITMAP
7F9FE0
0C0300
060200
030400
038800
01D000
00E000
006000
00B000
011800
020C00
040600
080300
380380
FE0FF0
ENDCHAR
STARTCHAR 0446
ENCODING 1094
SWIDTH 1000 0
DWIDTH 32 0
BBX 19 19 6 -3
BITMAP
FF1FC0
180300
180300
180300
180300
180300
180300
180300
180300
180300
180300
180300
180300
180300
FFFFE0
000060
000020
000020
000020
ENDCHAR
STARTCHAR 0447
ENCODING 1095
SWIDTH 1000 0
DWIDTH 32 0
BBX 18 15 7 2
BITMAP
FE3FC0
380600
380600
300600
300600
100600
180600
180600
0C1E00
07E600
000600
000600
000600
000600
003FC0
ENDCHAR
STARTCHAR 0448
ENCODING 1096
SWIDTH 1000 0
DWIDTH 32 0
BBX 25 15 4 2
BITMAP
FE7E3F80
18180C00
18180C00
18180C00
18180C00
18180C00
18180C00
18180C00
18180C00
18180C00
18180C00
18180C00
18180C00
18180C00
FFFFFF80
ENDCHAR
STARTCHAR 0449
ENCODING 1097
SWIDTH 1000 0
DWIDTH 32 0
BBX 25 19 4 -3
BITMAP
FE7E3F00
18180C00
18180C00
18180C00
18180C00
18180C00
18180C00
18180C00
18180C00
18180C00
18180C00
18180C00
18180C00
18180C00
FFFFFF80
00000180
00000080
00000080
00000080
ENDCHAR
STARTCHAR 044A
ENCODING 1098
SWIDTH 1000 0
DWIDTH 32 0
BBX 18 15 7 2
BITMAP
FFC000
CE0000
860000
860000
060000
060000
060000
07FE00
060380
0600C0
0600C0
0600C0
0600C0
060380
3FFE00
ENDCHAR
STARTCHAR 044B
ENCODING 1099
SWIDTH 1000 0
DWIDTH 32 0
BBX 24 15 4 2
BITMAP
FF00FF
180018
180018
180018
180018
180018
180018
1FF818
180E18
180318
180318
180318
180318
180E18
FFF8FF
ENDCHAR
STARTCHAR 044C
ENCODING 1100
SWIDTH 1000 0
DWIDTH 32 0
BBX 16 15 8 2
BITMAP
FF00
1800
1800
1800
1800
1800
1800
1FF8
180E
1803
1803
1803
1803
180E
FFF8
ENDCHAR
STARTCHAR 044D
ENCODING 1101
SWIDTH 1000 0
DWIDTH 32 0
BBX 16 16 8 1
BITMAP
0FE0
7838
601C
400E
4006
0007
0E07
318F
00F7
0007
0007
000E
800E
601C
3038
0FE0
ENDCHAR
STARTCHAR 044E
ENCODING 1102
SWIDTH 1000 0
DWIDTH 32 0
BBX 24 16 4 1
BITMAP
FF07E0
181C18
18380C
183006
187006
186003
186003
1FE003
186003
186003
186003
187006
183006
18380C
FF1C18
0007E0
ENDCHAR
STARTCHAR 044F
ENCODING 1103
SWIDTH 1000 0
DWIDTH 32 0
BBX 17 16 8 1
BITMAP
0FFF80
380C00
600C00
600C00
600C00
600C00
380C00
0FFC00
070C00
060C00
0E0C00
0C0C00
180C00
300C00
E07F80
800000
ENDCHAR
STARTCHAR 0451
ENCODING 1105
SWIDTH 1000 0
DWIDTH 32 0
BBX 15 22 8 1
BITMAP
1C38
1C38
1C38
0000
0000
0000
07E0
1C38
301C
700C
600E
E006
FFFE
E000
E000
E000
E000
7002
7004
380C
1C18
07E0
ENDCHAR
STARTCHAR 1E3E
ENCODING 7742
SWIDTH 968 0
DWIDTH 31 0
BBX 27 29 2 1
BITMAP
00018000
00038000
00070000
000C0000
00080000
00000000
FE0007E0
3E000F80
1F000F00
1B000B00
1B001B00
19801300
19801300
19803300
18C02300
18C02300
18E06300
18604300
1860C300
1870C300
18308300
18318300
18190300
18190300
181F0300
180E0300
180E0300
3C0E0780
FF041FE0
ENDCHAR
STARTCHAR 1E3F
ENCODING 7743
SWIDTH 906 0
DWIDTH 29 0
BBX 27 23 1 1
BITMAP
00018000
00038000
00060000
000C0000
00000000
00000000
00000000
F8F87C00
1B1C8600
1C0D0600
1C070300
18060300
18060300
18060300
18060300
18060300
18060300
18060300
18060300
18060300
18060300
18060300
FF3FDFE0
ENDCHAR
STARTCHAR 1F70
ENCODING 8048
SWIDTH 593 0
DWIDTH 19 0
BBX 17 23 1 1
BITMAP
0C0000
0E0000
030000
018000
000000
000000
000000
0FC400
186C00
301C00
601C00
600C00
C00C00
C00C00
C00C00
C00C00
C00C00
C00C00
601C00
601C00
303C00
186C80
0F8700
ENDCHAR
STARTCHAR 1F71
ENCODING 8049
SWIDTH 593 0
DWIDTH 19 0
BBX 17 24 1 0
BITMAP
002000
007000
00E000
01C000
010000
000000
000000
000000
0FC400
186C00
301C00
601C00
600C00
C00C00
C00C00
C00C00
C00C00
C00C00
C00C00
601C00
601C00
303C00
186C80
0F8700
ENDCHAR
STARTCHAR 1F72
ENCODING 8050
SWIDTH 531 0
DWIDTH 17 0
BBX 13 23 2 1
BITMAP
1800
1C00
0600
0200
0000
0000
0000
0FE0
3810
6000
6000
6000
6000
3BC0
1FC0
7000
6000
C000
C000
C000
E008
7038
1FC0
ENDCHAR
STARTCHAR 1F73
ENCODING 8051
SWIDTH 531 0
DWIDTH 17 0
BBX 13 23 2 1
BITMAP
0060
00C0
0180
0200
0000
0000
0000
0FE0
3810
6000
6000
6000
6000
3BC0
1FC0
7000
6000
C000
C000
C000
E008
7038
1FC0
ENDCHAR
STARTCHAR 2002
ENCODING 8194
SWIDTH 500 0
DWIDTH 16 0
BBX 0 0 0 0
BITMAP
ENDCHAR
STARTCHAR 2003
ENCODING 8195
SWIDTH 1000 0
DWIDTH 32 0
BBX 0 0 0 0
BITMAP
ENDCHAR
STARTCHAR 2010
ENCODING 8208
SWIDTH 281 0
DWIDTH 9 0
BBX 7 2 1 8
BITMAP
FE
FE
ENDCHAR
STARTCHAR 2011
ENCODING 8209
SWIDTH 281 0
DWIDTH 9 0
BBX 7 2 1 8
BITMAP
FE
FE
ENDCHAR
STARTCHAR 2012
ENCODING 8210
SWIDTH 281 0
DWIDTH 9 0
BBX 7 2 1 8
BITMAP
FE
FE
ENDCHAR
STARTCHAR 2013
ENCODING 8211
SWIDTH 562 0
DWIDTH 18 0
BBX 14 1 2 9
BITMAP
FFFC
ENDCHAR
STARTCHAR 2014
ENCODING 8212
SWIDTH 906 0
DWIDTH 29 0
BBX 29 1 0 12
BITMAP
FFFFFFF8
ENDCHAR
STARTCHAR 2015
ENCODING 8213
SWIDTH 1000 0
DWIDTH 32 0
BBX 28 1 2 12
BITMAP
FFFFFFF0
ENDCHAR
STARTCHAR 2016
ENCODING 8214
SWIDTH 1000 0
DWIDTH 32 0
BBX 6 32 13 -3
BITMAP
CC
CC
CC
CC
CC
CC
CC
CC
CC
CC
CC
CC
CC
CC
CC
CC
CC
CC
CC
CC
CC
CC
CC
CC
CC
CC
CC
CC
CC
CC
CC
CC
ENDCHAR
STARTCHAR 2018
ENCODING 8216
SWIDTH 1000 0
DWIDTH 32 0
BBX 4 9 25 18
BITMAP
10
30
60
40
C0
F0
F0
F0
60
ENDCHAR
STARTCHAR 2019
ENCODING 8217
SWIDTH 1000 0
DWIDTH 32 0
BBX 4 8 3 17
BITMAP
60
F0
F0
70
20
60
40
80
ENDCHAR
STARTCHAR 201C
ENCODING 8220
SWIDTH 1000 0
DWIDTH 32 0
BBX 10 9 19 18
BITMAP
1040
20C0
6180
4100
C300
F3C0
F3C0
F3C0
6180
ENDCHAR
STARTCHAR 201D
ENCODING 8221
SWIDTH 1000 0
DWIDTH 32 0
BBX 10 8 3 17
BITMAP
6180
F3C0
F3C0
71C0
20C0
6080
4100
8200
ENDCHAR
STARTCHAR 2020
ENCODING 8224
SWIDTH 1000 0
DWIDTH 32 0
BBX 14 28 9 -3
BITMAP
0300
0780
0780
0780
0780
7338
FFFC
FFFC
7338
0700
0780
0780
0780
0780
0300
0300
0300
0300
0300
0300
0300
0300
0300
0300
0300
0300
0300
0300
ENDCHAR
STARTCHAR 2021
ENCODING 8225
SWIDTH 1000 0
DWIDTH 32 0
BBX 12 30 10 -3
BITMAP
0F00
0F00
0F00
0E00
E670
FFF0
FFF0
F6F0
0F00
0600
0600
0600
0600
0600
0400
0400
0600
0600
0600
0600
0600
0600
F6F0
FFF0
F6F0
0600
0F00
0F00
0F00
0F00
ENDCHAR
STARTCHAR 2022
ENCODING 8226
SWIDTH 343 0
DWIDTH 11 0
BBX 5 5 3 8
BITMAP
70
F8
F8
F8
70
ENDCHAR
STARTCHAR 2025
ENCODING 8229
SWIDTH 1000 0
DWIDTH 32 0
BBX 20 4 6 10
BITMAP
600060
F000F0
F000F0
600060
ENDCHAR
STARTCHAR 2026
ENCODING 8230
SWIDTH 1000 0
DWIDTH 32 0
BBX 26 4 3 10
BITMAP
600C0180
F01E03C0
F01E03C0
600C0180
ENDCHAR
STARTCHAR 2030
ENCODING 8240
SWIDTH 1000 0
DWIDTH 32 0
BBX 28 29 2 -3
BITMAP
00018000
00010000
3C030000
63020000
63060000
C1840000
C18C0000
C1880000
C1980000
C1900000
C1B00000
43200000
63600000
3E400000
00C00000
00800000
019E03C0
01318660
03318420
0260CC30
0660CC30
0460CC30
0C60CC30
0860CC30
1860CC30
10218420
30318660
201F03C0
20000000
ENDCHAR
STARTCHAR 2032
ENCODING 8242
SWIDTH 250 0
DWIDTH 8 0
BBX 4 8 2 18
BITMAP
30
60
60
40
40
C0
80
80
ENDCHAR
STARTCHAR 2033
ENCODING 8243
SWIDTH 406 0
DWIDTH 13 0
BBX 9 8 2 18
BITMAP
3180
6300
6300
4200
4200
C600
8400
8800
ENDCHAR
STARTCHAR 203B
ENCODING 8251
SWIDTH 1000 0
DWIDTH 32 0
BBX 26 25 3 -1
BITMAP
400E0080
601F0180
301F0300
181E0600
0C0C0C00
06001800
03003000
01806000
00C0C000
00618000
70330380
F81E07C0
F80C07C0
F81E07C0
70330380
00618000
00C0C000
01806000
03003000
06001800
0C0E0C00
181F0600
301F0300
601F0180
C00E00C0
ENDCHAR
STARTCHAR 203C
ENCODING 8252
SWIDTH 468 0
DWIDTH 15 0
BBX 9 23 3 0
BITMAP
C300
E380
E380
E380
E380
E380
E380
E380
E380
E300
6300
4300
4100
4100
4100
4100
0000
0000
0000
6300
F780
F780
F780
ENDCHAR
STARTCHAR 203E
ENCODING 8254
SWIDTH 500 0
DWIDTH 16 0
BBX 8 1 4 20
BITMAP
FF
ENDCHAR
STARTCHAR 203F
ENCODING 8255
SWIDTH 437 0
DWIDTH 14 0
BBX 14 3 0 -4
BITMAP
8004
7038
0FC0
ENDCHAR
STARTCHAR 2042
ENCODING 8258
SWIDTH 1000 0
DWIDTH 32 0
BBX 22 24 5 0
BITMAP
003000
003000
033600
01BE00
006800
007000
01AC00
033600
003000
003000
000000
000000
000000
180060
180060
D9866C
EB875C
3E01F0
1C00E0
6B0358
C9864C
180060
180060
180060
ENDCHAR
STARTCHAR 2047
ENCODING 8263
SWIDTH 937 0
DWIDTH 30 0
BBX 27 23 2 0
BITMAP
1F803E00
30C0C380
406180C0
C03300E0
80330060
E0338060
E0338060
E0338060
006000C0
00E001C0
01C00300
03000600
06000C00
04001800
04001000
04001000
04001000
00000000
00000000
06001800
0F003C00
0F003C00
07001C00
ENDCHAR
STARTCHAR 2048
ENCODING 8264
SWIDTH 718 0
DWIDTH 23 0
BBX 18 23 2 0
BITMAP
1F8180
30C1C0
4061C0
C031C0
8031C0
E031C0
E031C0
E031C0
0061C0
00E180
01C180
030180
060080
040080
040080
040080
040000
000000
000000
060180
0F03C0
0F03C0
0703C0
ENDCHAR
STARTCHAR 2049
ENCODING 8265
SWIDTH 718 0
DWIDTH 23 0
BBX 18 23 3 0
BITMAP
C07C00
E18300
E30180
E200C0
E600C0
E700C0
E700C0
E700C0
E00180
E00380
600700
400C00
401800
401000
403000
402000
002000
000000
000000
603000
F07800
F07800
F03800
ENDCHAR
STARTCHAR 2051
ENCODING 8273
SWIDTH 1000 0
DWIDTH 32 0
BBX 9 25 11 0
BITMAP
0C00
0C00
0C00
CD80
7B00
0C00
7F00
CD80
0C00
0C00
0C00
0000
0000
0000
0000
0C00
0C00
CD80
EF80
1A00
1C00
6B00
CD80
0C00
0C00
ENDCHAR
STARTCHAR 205A
ENCODING 8282
SWIDTH 1000 0
DWIDTH 32 0
BBX 4 20 14 2
BITMAP
60
F0
F0
60
00
00
00
00
00
00
00
00
00
00
00
00
60
F0
F0
60
ENDCHAR
STARTCHAR 205D
ENCODING 8285
SWIDTH 1000 0
DWIDTH 32 0
BBX 4 25 14 0
BITMAP
60
F0
F0
60
00
00
00
00
00
00
00
60
F0
F0
60
00
00
00
00
00
00
60
F0
F0
60
ENDCHAR
STARTCHAR 20AC
ENCODING 8364
SWIDTH 625 0
DWIDTH 20 0
BBX 17 24 1 0
BITMAP
00F800
038680
060380
0E0180
0C0180
180080
180080
380000
380000
300000
FFF800
300000
300000
FFF800
300000
300000
380000
380000
180080
1C0080
0C0180
0E0100
030600
00F800
ENDCHAR
STARTCHAR 2103
ENCODING 8451
SWIDTH 1000 0
DWIDTH 32 0
BBX 26 26 2 1
BITMAP
30000000
48000000
8407F000
841C0C80
84380780
C8700380
78E00180
01C00080
01C00080
01C00080
03800000
03800000
03800000
03800000
03800000
03800000
03800000
03800000
01C00040
01C00040
01C00080
00E00080
00700100
00380200
001E0C00
0007F000
ENDCHAR
STARTCHAR 210F
ENCODING 8463
SWIDTH 562 0
DWIDTH 18 0
BBX 15 23 1 1
BITMAP
1E00
0600
0600
0FE0
3C00
0C00
0C00
0878
19FC
1B8C
1B0C
160C
3C0C
3818
3818
3018
7030
6030
6030
6062
6064
C07C
C070
ENDCHAR
STARTCHAR 2113
ENCODING 8467
SWIDTH 1000 0
DWIDTH 32 0
BBX 15 24 8 0
BITMAP
0038
00CC
018C
010C
030C
020C
060C
061C
0C18
0C18
0C30
0C30
1860
1860
18C0
1980
1B00
1E00
1C02
3806
C804
0C08
0630
03C0
ENDCHAR
STARTCHAR 2116
ENCODING 8470
SWIDTH 1000 0
DWIDTH 32 0
BBX 28 23 2 1
BITMAP
F07C0000
38100000
38100000
38100000
2C100000
2C100000
26100000
26103C00
26106600
2310C300
23108300
21918180
21918180
20D18180
20D18180
20D18180
20718180
20718180
20318180
20308300
2030C370
F8106670
00103C70
ENDCHAR
STARTCHAR 2121
ENCODING 8481
SWIDTH 1000 0
DWIDTH 32 0
BBX 28 22 2 2
BITMAP
FFE00000
CC600000
8C200000
8C200000
8C200000
0C000000
0C3FCF80
0C184600
0C184600
0C180600
0C180600
0C188600
0C188600
0C1F8600
0C188600
0C188600
0C180600
0C180610
0C182610
0C186610
0C186630
3FBFEFF0
ENDCHAR
STARTCHAR 2127
ENCODING 8487
SWIDTH 843 0
DWIDTH 27 0
BBX 23 23 2 0
BITMAP
7FC7FC
7FC7FC
C18206
C30106
860182
8C00C2
9C0062
180060
380070
380070
700038
700038
700038
700038
700038
700038
700038
380070
380070
1C00E0
0E01C0
070780
00FC00
ENDCHAR
STARTCHAR 212B
ENCODING 8491
SWIDTH 1000 0
DWIDTH 32 0
BBX 23 25 4 2
BITMAP
003C00
006600
004200
004600
003C00
000000
003800
003C00
002C00
006C00
004600
00C600
008700
018300
010300
010180
030180
03FFC0
0600C0
0400E0
040060
0C0060
080030
180038
FF01FE
ENDCHAR
STARTCHAR 2135
ENCODING 8501
SWIDTH 687 0
DWIDTH 22 0
BBX 18 23 2 0
BITMAP
100200
200600
400600
C00300
C00380
E002C0
E002C0
7804C0
3C0800
1E1800
1F9000
63E000
60F000
607C00
601E00
300F00
300380
300380
180180
180180
180100
700300
C00200
ENDCHAR
STARTCHAR 2153
ENCODING 8531
SWIDTH 781 0
DWIDTH 25 0
BBX 20 23 3 0
BITMAP
700060
F000C0
300180
300100
300300
300600
300C00
300800
301800
303000
302000
FC63C0
00CC70
018C30
010C30
030030
0603C0
0400E0
080030
180C30
300C30
200870
6007C0
ENDCHAR
STARTCHAR 2154
ENCODING 8532
SWIDTH 781 0
DWIDTH 25 0
BBX 21 23 2 0
BITMAP
3C0060
C70040
C300C0
C30180
070100
0E0300
180600
200400
410C00
831800
FF33C0
002630
006618
00C618
008018
018030
0301E0
020030
040018
0C0618
180618
100430
3003E0
ENDCHAR
STARTCHAR 2155
ENCODING 8533
SWIDTH 781 0
DWIDTH 25 0
BBX 20 23 3 0
BITMAP
F00040
F000C0
300180
300100
300300
300600
300C00
300800
301800
303000
782000
FC47E0
00C400
018400
010C00
030FC0
060C60
040030
080030
180C30
300C30
200C60
6007C0
ENDCHAR
STARTCHAR 2160
ENCODING 8544
SWIDTH 1000 0
DWIDTH 32 0
BBX 8 22 12 2
BITMAP
FF
3C
18
18
18
18
18
18
18
18
18
18
18
18
18
18
18
18
18
18
38
FF
ENDCHAR
STARTCHAR 2161
ENCODING 8545
SWIDTH 1000 0
DWIDTH 32 0
BBX 18 22 7 2
BITMAP
FFFFC0
180600
180600
180600
180600
180600
180600
180600
180600
180600
180600
180600
180600
180600
180600
180600
180600
180600
180600
180600
180600
FFFFC0
ENDCHAR
STARTCHAR 2162
ENCODING 8546
SWIDTH 1000 0
DWIDTH 32 0
BBX 26 22 3 2
BITMAP
FFFFFFC0
180C0600
180C0600
180C0600
180C0600
180C0600
180C0600
180C0600
180C0600
180C0600
180C0600
180C0600
180C0600
180C0600
180C0600
180C0600
180C0600
180C0600
180C0600
180C0600
180C0600
FFFFFFC0
ENDCHAR
STARTCHAR 2163
ENCODING 8547
SWIDTH 1000 0
DWIDTH 32 0
BBX 27 22 3 1
BITMAP
FFFE0FE0
18700180
18700180
18300100
18380100
18180300
18180200
181C0200
180C0400
180C0400
180E0400
18060800
18060800
18071800
18031000
18031000
1803B000
1801A000
1801A000
1800E000
1800C000
FF00C000
ENDCHAR
STARTCHAR 2164
ENCODING 8548
SWIDTH 1000 0
DWIDTH 32 0
BBX 24 23 4 1
BITMAP
FF80FF
3C001C
1C0018
0C0010
0E0030
060020
070020
070060
030040
0380C0
018080
01C080
01C180
00C100
00E100
006200
007200
003600
003400
003C00
001C00
001800
000800
ENDCHAR
STARTCHAR 2165
ENCODING 8549
SWIDTH 1000 0
DWIDTH 32 0
BBX 27 22 2 1
BITMAP
FF07FFE0
3800C300
3800C300
18008300
1C018300
1C010300
0C010300
0E030300
06020300
06020300
07060300
03040300
03040300
038C0300
01880300
01880300
01D80300
00D00300
00D00300
00600300
00600300
00601FE0
ENDCHAR
STARTCHAR 2166
ENCODING 8550
SWIDTH 1000 0
DWIDTH 32 0
BBX 30 23 1 1
BITMAP
FF0FFFFC
38011860
18011860
18011860
1C021860
1C021860
0C021860
0C041860
0E041860
06041860
06081860
07081860
03081860
03101860
03101860
01901860
01A01860
01A01860
01E01860
00C01860
00C01860
00C0FFFC
00400000
ENDCHAR
STARTCHAR 2167
ENCODING 8551
SWIDTH 1000 0
DWIDTH 32 0
BBX 30 23 1 1
BITMAP
FE3FFFFC
70066630
30046630
30046630
180C6630
18086630
18086630
0C086630
0C106630
0C106630
0C106630
06106630
06206630
06206630
03206630
03606630
03406630
03406630
01C06630
01806630
01806630
0081FFFC
00800000
ENDCHAR
STARTCHAR 2168
ENCODING 8552
SWIDTH 1000 0
DWIDTH 32 0
BBX 27 22 3 2
BITMAP
FFFF9FC0
181C0700
180C0600
180E0C00
18060800
18071800
18031000
1803B000
1801A000
1800E000
1800E000
1800E000
1801F000
18013000
18021800
18061800
18040C00
18080600
18080600
18100300
18300380
FFFE1FE0
ENDCHAR
STARTCHAR 2169
ENCODING 8553
SWIDTH 1000 0
DWIDTH 32 0
BBX 24 22 4 2
BITMAP
7FC1FC
1E0070
0E0060
0700C0
038080
01C100
00C300
00E600
007400
003800
001800
003C00
006E00
004700
008380
010180
0201C0
0600E0
0C0070
180038
38003C
FF01FF
ENDCHAR
STARTCHAR 216A
ENCODING 8554
SWIDTH 1000 0
DWIDTH 32 0
BBX 27 22 2 2
BITMAP
7F9FFFE0
1C030300
0C020300
06040300
06040300
03080300
03980300
01900300
01F00300
00E00300
00600300
00F00300
00B00300
01B80300
01180300
020C0300
060E0300
04060300
0C070300
18030300
18038300
FF0FFFE0
ENDCHAR
STARTCHAR 216B
ENCODING 8555
SWIDTH 1000 0
DWIDTH 32 0
BBX 30 22 1 2
BITMAP
FF1FFFFC
1C061C60
0C041860
0E0C1860
06081860
07181860
03101860
01B01860
01A01860
00C01860
00E01860
00E01860
01F01860
01301860
02181860
02181860
040C1860
080E1860
08061860
10031860
300398E0
FE1FFFFC
ENDCHAR
STARTCHAR 2170
ENCODING 8560
SWIDTH 1000 0
DWIDTH 32 0
BBX 8 22 12 3
BITMAP
38
38
38
00
00
00
08
F8
18
18
18
18
18
18
18
18
18
18
18
18
18
FF
ENDCHAR
STARTCHAR 2171
ENCODING 8561
SWIDTH 1000 0
DWIDTH 32 0
BBX 18 22 7 3
BITMAP
380E00
380E00
380E00
000000
000000
000000
080200
F83E00
180600
180600
180600
180600
180600
180600
180600
180600
180600
180600
180600
180600
180600
FF3FC0
ENDCHAR
STARTCHAR 2172
ENCODING 8562
SWIDTH 1000 0
DWIDTH 32 0
BBX 24 22 4 3
BITMAP
383838
383838
383838
000000
000000
000000
080808
F8F8F8
181818
181818
181818
181818
181818
181818
181818
181818
181818
181818
181818
181818
181818
FFFFFF
ENDCHAR
STARTCHAR 2173
ENCODING 8563
SWIDTH 1000 0
DWIDTH 32 0
BBX 24 23 5 2
BITMAP
380000
380000
380000
000000
000000
000000
080000
F9FC3F
18700E
18300C
183808
181818
181810
180C10
180C30
180E20
180660
180640
180340
180380
180380
FF0180
000100
ENDCHAR
STARTCHAR 2174
ENCODING 8564
SWIDTH 1000 0
DWIDTH 32 0
BBX 18 15 7 1
BITMAP
FE0FC0
380300
180200
1C0200
0C0400
0C0400
060800
060800
071800
031000
03B000
01A000
01E000
00C000
00C000
ENDCHAR
STARTCHAR 2175
ENCODING 8565
SWIDTH 1000 0
DWIDTH 32 0
BBX 25 23 3 2
BITMAP
00001C00
00001C00
00001C00
00000000
00000000
00000000
00000400
FE1FFC00
38060C00
18060C00
1C040C00
0C0C0C00
0C080C00
0E180C00
06100C00
06100C00
03300C00
03200C00
03E00C00
01C00C00
01C00C00
00807F80
00800000
ENDCHAR
STARTCHAR 2176
ENCODING 8566
SWIDTH 1000 0
DWIDTH 32 0
BBX 29 23 2 2
BITMAP
000071C0
000071C0
000071C0
00000000
00000000
00000000
00001040
FE1FF3C0
380630C0
180430C0
1C0430C0
0C0830C0
0C0830C0
0E1830C0
061030C0
061030C0
032030C0
032030C0
03E030C0
01C030C0
01C030C0
0081FFF8
00800000
ENDCHAR
STARTCHAR 2177
ENCODING 8567
SWIDTH 1000 0
DWIDTH 32 0
BBX 29 23 1 1
BITMAP
0001CEE0
0001CEE0
0001CEE0
00000000
00000000
00000000
00000000
00004220
FE3FDFE0
3804C660
1804C660
1808C660
1C08C660
0C08C660
0C10C660
0E10C660
0620C660
0620C660
0340C660
0340C660
03C0C660
0180C660
0183FFF8
ENDCHAR
STARTCHAR 2178
ENCODING 8568
SWIDTH 1000 0
DWIDTH 32 0
BBX 25 22 5 3
BITMAP
38000000
38000000
38000000
00000000
00000000
00000000
08000000
F8FE7E00
181C1800
180C1000
18062000
18066000
18034000
18018000
18018000
1802C000
18066000
180C7000
18083000
18101800
18301C00
FFFC7F80
ENDCHAR
STARTCHAR 2179
ENCODING 8569
SWIDTH 1000 0
DWIDTH 32 0
BBX 20 15 6 2
BITMAP
7F9FE0
0C0300
060200
030400
038800
01D000
00E000
006000
00B000
011800
020C00
040600
080300
380380
FE0FF0
ENDCHAR
STARTCHAR 217A
ENCODING 8570
SWIDTH 1000 0
DWIDTH 32 0
BBX 25 22 3 3
BITMAP
00001C00
00001C00
00001C00
00000000
00000000
00000000
00000400
7F3F7C00
1C0C0C00
0C080C00
06100C00
03200C00
01C00C00
01C00C00
01C00C00
01600C00
02700C00
04300C00
08180C00
181C0C00
300E0C00
FC3FFF80
ENDCHAR
STARTCHAR 217B
ENCODING 8571
SWIDTH 1000 0
DWIDTH 32 0
BBX 29 22 2 3
BITMAP
000071C0
000071C0
000071C0
00000000
00000000
00000000
00001040
7F3FF3C0
1C0C30C0
0C0830C0
061030C0
032030C0
03C030C0
01C030C0
01C030C0
016030C0
027030C0
043030C0
081830C0
180C30C0
300E30C0
FC3FFFF8
ENDCHAR
STARTCHAR 2190
ENCODING 8592
SWIDTH 1000 0
DWIDTH 32 0
BBX 28 11 2 7
BITMAP
03800000
06000000
0C000000
38000000
70000000
FFFFFFF0
70000000
38000000
0C000000
06000000
03800000
ENDCHAR
STARTCHAR 2191
ENCODING 8593
SWIDTH 1000 0
DWIDTH 32 0
BBX 12 28 10 -1
BITMAP
0600
0F00
0F00
1F80
36C0
6660
C630
8610
0600
0600
0600
0600
0600
0600
0600
0600
0600
0600
0600
0600
0600
0600
0600
0600
0600
0600
0600
0600
ENDCHAR
STARTCHAR 2192
ENCODING 8594
SWIDTH 1000 0
DWIDTH 32 0
BBX 28 11 2 7
BITMAP
00001C00
00000600
00000300
000001C0
000000E0
FFFFFFF0
000000E0
000001C0
00000300
00000600
00001C00
ENDCHAR
STARTCHAR 2193
ENCODING 8595
SWIDTH 1000 0
DWIDTH 32 0
BBX 12 28 10 -2
BITMAP
0600
0600
0600
0600
0600
0600
0600
0600
0600
0600
0600
0600
0600
0600
0600
0600
0600
0600
0600
8610
C630
C630
6660
36C0
1F80
0F00
0600
0400
ENDCHAR
STARTCHAR 2194
ENCODING 8596
SWIDTH 750 0
DWIDTH 24 0
BBX 20 13 2 4
BITMAP
040400
0C0600
1C0300
180180
3000C0
600060
FFFFF0
600060
3000C0
180180
0C0300
0E0600
040400
ENDCHAR
STARTCHAR 2196
ENCODING 8598
SWIDTH 1000 0
DWIDTH 32 0
BBX 22 22 5 1
BITMAP
FF8000
FFC000
F00000
D80000
CC0000
460000
430000
418000
40C000
406000
003000
001800
000C00
000600
000300
000180
0000C0
000060
000030
000018
00000C
000004
ENDCHAR
STARTCHAR 2197
ENCODING 8599
SWIDTH 1000 0
DWIDTH 32 0
BBX 22 22 5 1
BITMAP
0007FC
000FFC
00003C
00006C
0000CC
00018C
000308
000608
000C08
001810
003000
006000
00C000
018000
030000
060000
0C0000
180000
300000
600000
C00000
800000
ENDCHAR
STARTCHAR 2198
ENCODING 8600
SWIDTH 1000 0
DWIDTH 32 0
BBX 23 23 4 0
BITMAP
400000
E00000
700000
380000
1C0000
0E0000
070000
038000
01C000
00E000
007000
003800
001C00
000E08
000704
000384
0001C4
0000E6
000076
00003E
00001E
0007FE
00007E
ENDCHAR
STARTCHAR 2199
ENCODING 8601
SWIDTH 1000 0
DWIDTH 32 0
BBX 23 23 5 0
BITMAP
000004
00000E
00001C
000038
000070
0000E0
0001C0
000380
000700
000E00
001C00
003800
007000
40E000
41C000
438000
470000
CE0000
DC0000
F80000
F00000
FFC000
FC0000
ENDCHAR
STARTCHAR 21C4
ENCODING 8644
SWIDTH 1000 0
DWIDTH 32 0
BBX 28 24 2 0
BITMAP
00001C00
00000600
00000300
000001C0
000000E0
FFFFFFF0
000000E0
000001C0
00000380
00000600
00000C00
00000000
00000000
03000000
06000000
1C000000
38000000
70000000
FFFFFFF0
70000000
38000000
0C000000
06000000
03800000
ENDCHAR
STARTCHAR 21D2
ENCODING 8658
SWIDTH 750 0
DWIDTH 24 0
BBX 19 14 2 4
BITMAP
000C00
000600
000300
000180
FFFFC0
000060
000020
000060
000040
FFFFC0
000380
000300
000600
000400
ENDCHAR
STARTCHAR 21D4
ENCODING 8660
SWIDTH 750 0
DWIDTH 24 0
BBX 19 14 2 4
BITMAP
060C00
0E0600
0C0300
180180
3FFFC0
600060
C00020
C00020
600060
3FFFC0
180180
0C0300
060600
020400
ENDCHAR
STARTCHAR 21E6
ENCODING 8678
SWIDTH 1000 0
DWIDTH 32 0
BBX 25 10 3 8
BITMAP
01800000
06800000
08800000
30FFFF80
40000080
C0000080
30FFFF00
0C800000
03800000
00800000
ENDCHAR
STARTCHAR 21E7
ENCODING 8679
SWIDTH 1000 0
DWIDTH 32 0
BBX 10 25 11 1
BITMAP
0800
0C00
1200
3100
2100
4080
8040
8040
7380
1200
1200
1200
1200
1200
1200
1200
1200
1200
1200
1200
1200
1200
1200
1200
1E00
ENDCHAR
STARTCHAR 21E8
ENCODING 8680
SWIDTH 1000 0
DWIDTH 32 0
BBX 25 10 4 8
BITMAP
0000C000
0000B000
00008800
FFFF8600
80000100
80000180
7FFF8600
00009800
0000E000
00008000
ENDCHAR
STARTCHAR 21E9
ENCODING 8681
SWIDTH 1000 0
DWIDTH 32 0
BBX 10 25 11 -1
BITMAP
1E00
1200
1200
1200
1200
1200
1200
1200
1200
1200
1200
1200
1200
1200
1200
1200
1200
F3C0
8040
8080
4080
2100
2200
1200
0C00
ENDCHAR
STARTCHAR 2200
ENCODING 8704
SWIDTH 750 0
DWIDTH 24 0
BBX 22 23 1 0
BITMAP
C0000C
C00018
600018
600030
300030
300060
180060
180040
0FFFC0
0C0080
040180
060100
020300
030200
010600
018400
008C00
00CC00
005800
007800
003000
003000
002000
ENDCHAR
STARTCHAR 2202
ENCODING 8706
SWIDTH 593 0
DWIDTH 19 0
BBX 15 25 2 -1
BITMAP
03E0
0438
0808
000C
000C
0006
0006
0006
0006
0006
0F86
1866
302E
601E
600E
C00C
C00C
C01C
C018
C018
C030
6070
6060
31C0
1F00
ENDCHAR
STARTCHAR 2203
ENCODING 8707
SWIDTH 750 0
DWIDTH 24 0
BBX 17 23 2 0
BITMAP
FFFF80
000180
000180
000180
000180
000180
000180
000180
000180
000180
000180
FFFF80
000180
000180
000180
000180
000180
000180
000180
000180
000180
000180
FFFF80
ENDCHAR
STARTCHAR 2205
ENCODING 8709
SWIDTH 781 0
DWIDTH 25 0
BBX 21 20 2 2
BITMAP
01FC10
060730
0801E0
3000C0
2001E0
400330
400610
800C18
801808
803008
806008
80C008
818008
430010
660010
2C0020
380060
3C0080
670300
41FC00
ENDCHAR
STARTCHAR 2207
ENCODING 8711
SWIDTH 750 0
DWIDTH 24 0
BBX 20 23 2 -1
BITMAP
FFFFF0
FFFFF0
E00020
600060
700040
3000C0
380080
180180
1C0180
0C0300
0E0300
0E0200
060600
070400
030C00
038800
019800
01D000
00F000
00F000
00E000
006000
004000
ENDCHAR
STARTCHAR 2208
ENCODING 8712
SWIDTH 687 0
DWIDTH 22 0
BBX 17 16 2 2
BITMAP
07FF80
1C0000
300000
600000
400000
C00000
C00000
FFFF80
C00000
C00000
C00000
400000
600000
300000
1C0000
07FF80
ENDCHAR
STARTCHAR 2209
ENCODING 8713
SWIDTH 687 0
DWIDTH 22 0
BBX 17 20 2 0
BITMAP
000C00
000C00
07FF80
1C1800
301000
603000
402000
C06000
C06000
FFFF80
C0C000
C08000
C18000
418000
610000
330000
1F0000
07FF80
060000
040000
ENDCHAR
STARTCHAR 220B
ENCODING 8715
SWIDTH 687 0
DWIDTH 22 0
BBX 18 16 2 2
BITMAP
FFF000
000C00
000300
000180
000180
0000C0
0000C0
FFFFC0
0000C0
0000C0
0000C0
000180
000180
000300
000E00
FFF800
ENDCHAR
STARTCHAR 2212
ENCODING 8722
SWIDTH 687 0
DWIDTH 22 0
BBX 17 1 2 10
BITMAP
FFFF80
ENDCHAR
STARTCHAR 2213
ENCODING 8723
SWIDTH 687 0
DWIDTH 22 0
BBX 18 18 2 1
BITMAP
FFFFC0
000000
000000
00C000
00C000
00C000
00C000
00C000
00C000
00C000
FFFFC0
00C000
00C000
00C000
00C000
00C000
00C000
00C000
ENDCHAR
STARTCHAR 2219
ENCODING 8729
SWIDTH 250 0
DWIDTH 8 0
BBX 3 3 2 8
BITMAP
E0
E0
E0
ENDCHAR
STARTCHAR 221A
ENCODING 8730
SWIDTH 531 0
DWIDTH 17 0
BBX 16 29 1 -1
BITMAP
0001
0003
0003
0002
0006
0004
0004
000C
0008
0008
0018
0010
0010
0030
0020
0060
2060
3040
30C0
70C0
5880
5980
8900
0D00
0F00
0600
0600
0600
0400
ENDCHAR
STARTCHAR 221D
ENCODING 8733
SWIDTH 687 0
DWIDTH 22 0
BBX 16 10 3 5
BITMAP
3C0E
7F19
C330
81A0
80E0
80C0
80E0
41E0
4330
3E0F
ENDCHAR
STARTCHAR 221E
ENCODING 8734
SWIDTH 687 0
DWIDTH 22 0
BBX 18 10 2 6
BITMAP
3C0F00
7E1180
C72080
81E040
81C040
80C040
80E0C0
C17080
433F80
3C1E00
ENDCHAR
STARTCHAR 221F
ENCODING 8735
SWIDTH 687 0
DWIDTH 22 0
BBX 17 19 3 2
BITMAP
C00000
C00000
C00000
C00000
C00000
C00000
C00000
C00000
C00000
C00000
C00000
C00000
C00000
C00000
C00000
C00000
C00000
C00000
FFFF80
ENDCHAR
STARTCHAR 2220
ENCODING 8736
SWIDTH 687 0
DWIDTH 22 0
BBX 18 19 2 3
BITMAP
002000
006000
004000
00C000
018000
018000
030000
030000
060000
060000
0C0000
080000
180000
300000
300000
600000
600000
C00000
FFFFC0
ENDCHAR
STARTCHAR 2225
ENCODING 8741
SWIDTH 687 0
DWIDTH 22 0
BBX 15 28 3 -2
BITMAP
0062
0062
0046
00C4
0084
008C
0188
0108
0118
0310
0210
0230
0620
0420
0460
0C40
0840
08C0
1880
1180
1180
3100
2300
2300
6200
4600
C600
C400
ENDCHAR
STARTCHAR 2226
ENCODING 8742
SWIDTH 687 0
DWIDTH 22 0
BBX 15 29 3 -2
BITMAP
0002
0062
0042
0046
00C4
0084
008C
C188
6118
3118
1B10
0E30
0630
0720
05E0
0CE0
0C60
08E0
18D0
1888
1184
3186
3102
2300
6300
6200
4600
C400
C400
ENDCHAR
STARTCHAR 2227
ENCODING 8743
SWIDTH 687 0
DWIDTH 22 0
BBX 17 17 2 1
BITMAP
00C000
01C000
01E000
032000
033000
021000
061800
041800
0C0C00
080C00
180600
100600
300200
200300
600100
600180
C00080
ENDCHAR
STARTCHAR 2228
ENCODING 8744
SWIDTH 687 0
DWIDTH 22 0
BBX 16 17 3 1
BITMAP
8001
8003
C003
4006
6006
6004
300C
3008
1818
1810
0830
0C20
0460
0640
02C0
0380
0180
ENDCHAR
STARTCHAR 2229
ENCODING 8745
SWIDTH 687 0
DWIDTH 22 0
BBX 15 19 3 1
BITMAP
07C0
1830
3018
600C
600C
C006
C006
C006
C006
C006
C006
C006
C006
C006
C006
C006
C006
C006
C006
ENDCHAR
STARTCHAR 222A
ENCODING 8746
SWIDTH 687 0
DWIDTH 22 0
BBX 15 19 3 1
BITMAP
C006
C006
C006
C006
C006
C006
C006
C006
C006
C006
C006
C006
C006
C006
600C
600C
3018
1830
07C0
ENDCHAR
STARTCHAR 222B
ENCODING 8747
SWIDTH 562 0
DWIDTH 18 0
BBX 16 29 1 -6
BITMAP
001C
0023
0063
00C3
00C0
00C0
00C0
00C0
01C0
0180
0180
0180
0180
0180
0180
0180
0180
0180
0180
0180
0180
0180
0300
0300
E300
E300
E200
4600
3800
ENDCHAR
STARTCHAR 222C
ENCODING 8748
SWIDTH 875 0
DWIDTH 28 0
BBX 27 29 1 -6
BITMAP
001C0780
00230CE0
006308E0
00C310E0
00C01000
00C03000
00C03000
00C03000
01C03000
01803000
01802000
01802000
01802000
01802000
01806000
01806000
01806000
01806000
01806000
01806000
01806000
01806000
03006000
03004000
E3384000
E338C000
E2388000
46118000
380E0000
ENDCHAR
STARTCHAR 222E
ENCODING 8750
SWIDTH 562 0
DWIDTH 18 0
BBX 16 29 1 -6
BITMAP
001C
0023
0063
0043
00C0
00C0
00C0
00C0
0180
0180
07E0
0590
0988
0988
0988
0988
0590
07E0
0180
0180
0180
0180
0100
0300
E300
E200
E200
4400
3800
ENDCHAR
STARTCHAR 2234
ENCODING 8756
SWIDTH 687 0
DWIDTH 22 0
BBX 17 16 2 2
BITMAP
00C000
01E000
01E000
00C000
000000
000000
000000
000000
000000
000000
000000
000000
600300
F00780
F00780
600300
ENDCHAR
STARTCHAR 2235
ENCODING 8757
SWIDTH 687 0
DWIDTH 22 0
BBX 17 16 2 2
BITMAP
600300
F00780
F00780
600300
000000
000000
000000
000000
000000
000000
000000
000000
00C000
01E000
01E000
00C000
ENDCHAR
STARTCHAR 223C
ENCODING 8764
SWIDTH 500 0
DWIDTH 16 0
BBX 9 3 4 20
BITMAP
7000
9880
8700
ENDCHAR
STARTCHAR 223D
ENCODING 8765
SWIDTH 687 0
DWIDTH 22 0
BBX 18 9 2 5
BITMAP
381F00
403F80
8070C0
80E040
80C040
81C040
C38040
7F0080
3E0700
ENDCHAR
STARTCHAR 2243
ENCODING 8771
SWIDTH 687 0
DWIDTH 22 0
BBX 18 8 2 7
BITMAP
3F00C0
7FE180
C1FF80
003E00
000000
000000
000000
FFFFC0
ENDCHAR
STARTCHAR 2245
ENCODING 8773
SWIDTH 687 0
DWIDTH 22 0
BBX 18 12 2 5
BITMAP
3E00C0
7FE180
C1FF80
003E00
000000
000000
FFFFC0
000000
000000
000000
000000
FFFFC0
ENDCHAR
STARTCHAR 2248
ENCODING 8776
SWIDTH 687 0
DWIDTH 22 0
BBX 18 10 2 4
BITMAP
1E0000
7F81C0
61FF80
C03F00
000000
000000
3E0000
7FE180
61FF80
803E00
ENDCHAR
STARTCHAR 2252
ENCODING 8786
SWIDTH 687 0
DWIDTH 22 0
BBX 17 20 2 0
BITMAP
180000
3C0000
3C0000
180000
000000
000000
FFFF80
000000
000000
000000
000000
000000
000000
FFFF80
000000
000000
000600
000F00
000F00
000600
ENDCHAR
STARTCHAR 2260
ENCODING 8800
SWIDTH 687 0
DWIDTH 22 0
BBX 17 19 2 0
BITMAP
001000
001800
001000
003000
002000
006000
FFFF80
004000
00C000
00C000
00C000
008000
018000
FFFF80
010000
030000
020000
060000
060000
ENDCHAR
STARTCHAR 2261
ENCODING 8801
SWIDTH 687 0
DWIDTH 22 0
BBX 17 12 2 4
BITMAP
FFFF80
000000
000000
000000
000000
FFFF80
000000
000000
000000
000000
000000
FFFF80
ENDCHAR
STARTCHAR 2262
ENCODING 8802
SWIDTH 687 0
DWIDTH 22 0
BBX 17 19 2 0
BITMAP
001000
001800
001000
003000
FFFF80
006000
006000
004000
00C000
FFFF80
008000
018000
018000
018000
010000
FFFF80
020000
060000
060000
ENDCHAR
STARTCHAR 2266
ENCODING 8806
SWIDTH 687 0
DWIDTH 22 0
BBX 18 19 2 2
BITMAP
000080
000780
003C00
01E000
1F0000
F80000
E00000
3C0000
078000
00F000
001E00
0003C0
000000
000000
FFFFC0
000000
000000
000000
FFFFC0
ENDCHAR
STARTCHAR 2267
ENCODING 8807
SWIDTH 687 0
DWIDTH 22 0
BBX 18 19 2 2
BITMAP
C00000
F80000
0F0000
01E000
003C00
000780
0001C0
000F00
007800
07C000
3E0000
F00000
800000
000000
FFFFC0
000000
000000
000000
FFFFC0
ENDCHAR
STARTCHAR 226A
ENCODING 8810
SWIDTH 687 0
DWIDTH 22 0
BBX 18 17 2 1
BITMAP
002000
0061C0
01C300
038600
061C00
1C3000
386000
61C000
C30000
C38000
70C000
187000
0C3800
070C00
018600
00C380
0060C0
ENDCHAR
STARTCHAR 226B
ENCODING 8811
SWIDTH 687 0
DWIDTH 22 0
BBX 18 17 2 1
BITMAP
810000
C38000
70C000
187000
0C1800
070C00
018700
00C380
0060C0
0061C0
01C300
038600
061C00
0C3800
386000
61C000
C38000
ENDCHAR
STARTCHAR 2276
ENCODING 8822
SWIDTH 687 0
DWIDTH 22 0
BBX 18 21 2 1
BITMAP
0003C0
001F00
00F000
0F8000
780000
E00000
3C0000
07C000
00F800
C00F80
F801C0
0F8000
01F000
001E00
000180
000780
007C00
03E000
3E0000
F00000
800000
ENDCHAR
STARTCHAR 2277
ENCODING 8823
SWIDTH 687 0
DWIDTH 22 0
BBX 18 20 2 1
BITMAP
E00000
3E0000
07C000
007800
000F80
000180
000F00
00F800
0F8000
7C00C0
E00FC0
007C00
03C000
3E0000
E00000
F80000
0F0000
01F000
003E00
0003C0
ENDCHAR
STARTCHAR 2282
ENCODING 8834
SWIDTH 687 0
DWIDTH 22 0
BBX 17 16 2 2
BITMAP
07FF80
1C0000
300000
600000
600000
C00000
C00000
C00000
C00000
C00000
C00000
600000
600000
300000
1C0000
07FF80
ENDCHAR
STARTCHAR 2283
ENCODING 8835
SWIDTH 687 0
DWIDTH 22 0
BBX 18 16 2 2
BITMAP
FFF000
000C00
000300
000180
000180
0000C0
0000C0
0000C0
0000C0
0000C0
0000C0
000180
000180
000300
000E00
FFF800
ENDCHAR
STARTCHAR 2284
ENCODING 8836
SWIDTH 687 0
DWIDTH 22 0
BBX 17 20 2 0
BITMAP
000600
000600
07FF80
1C0C00
300800
601800
601000
C03000
C03000
C02000
C06000
C06000
C04000
60C000
608000
318000
1D8000
07FF80
030000
020000
ENDCHAR
STARTCHAR 2285
ENCODING 8837
SWIDTH 687 0
DWIDTH 22 0
BBX 18 20 2 0
BITMAP
003000
003000
FFF800
006E00
004300
00C180
008180
0180C0
0180C0
0100C0
0300C0
0300C0
0200C0
060180
060180
0C0300
0C0E00
FFF000
180000
100000
ENDCHAR
STARTCHAR 2286
ENCODING 8838
SWIDTH 687 0
DWIDTH 22 0
BBX 17 19 2 2
BITMAP
0FFF80
380000
700000
600000
C00000
C00000
C00000
C00000
C00000
C00000
600000
600000
380000
0FFF80
000000
000000
000000
000000
FFFF80
ENDCHAR
STARTCHAR 2287
ENCODING 8839
SWIDTH 687 0
DWIDTH 22 0
BBX 18 19 2 2
BITMAP
FFF800
000600
000300
000180
0000C0
0000C0
0000C0
0000C0
0000C0
0000C0
000180
000380
000700
FFFC00
000000
000000
000000
000000
FFFF80
ENDCHAR
STARTCHAR 228A
ENCODING 8842
SWIDTH 687 0
DWIDTH 22 0
BBX 17 21 2 -1
BITMAP
0FFF80
380000
600000
600000
C00000
C00000
C00000
C00000
C00000
600000
600000
380000
0FFF80
000000
000000
002000
006000
006000
FFFF80
018000
010000
ENDCHAR
STARTCHAR 228B
ENCODING 8843
SWIDTH 687 0
DWIDTH 22 0
BBX 18 21 2 -1
BITMAP
FFF800
000600
000380
000180
0000C0
0000C0
0000C0
0000C0
0000C0
000180
000180
000700
FFFC00
000000
000000
002000
006000
006000
FFFF80
018000
010000
ENDCHAR
STARTCHAR 2295
ENCODING 8853
SWIDTH 843 0
DWIDTH 27 0
BBX 24 23 2 0
BITMAP
007E00
0381C0
040020
081810
101808
201804
401802
401802
801801
801801
8FFFF1
801801
801801
801801
801803
401802
401806
20180C
30180C
180038
0C0070
0301C0
00FF00
ENDCHAR
STARTCHAR 2296
ENCODING 8854
SWIDTH 843 0
DWIDTH 27 0
BBX 24 23 2 0
BITMAP
007E00
0381C0
040060
080010
100008
200004
400002
400002
800001
800001
8FFFF1
800001
800001
800003
800003
400006
40000E
20000C
300018
180030
0C0060
0701C0
00FE00
ENDCHAR
STARTCHAR 2297
ENCODING 8855
SWIDTH 843 0
DWIDTH 27 0
BBX 24 23 2 0
BITMAP
007E00
0381C0
040060
080010
100008
2600E4
4301C2
418382
80C701
806E01
803C01
803801
807C01
80E601
81C303
438182
4700C6
26004C
300018
180038
0C0060
0701C0
00FE00
ENDCHAR
STARTCHAR 22A5
ENCODING 8869
SWIDTH 687 0
DWIDTH 22 0
BBX 18 19 2 2
BITMAP
00C000
00C000
00C000
00C000
00C000
00C000
00C000
00C000
00C000
00C000
00C000
00C000
00C000
00C000
00C000
00C000
00C000
00C000
FFFFC0
ENDCHAR
STARTCHAR 22BF
ENCODING 8895
SWIDTH 687 0
DWIDTH 22 0
BBX 19 19 1 3
BITMAP
000020
000060
0000E0
0001E0
000360
000660
000C60
001860
003060
006060
00C060
018060
030060
060060
0C0060
180060
300060
600060
FFFFE0
ENDCHAR
STARTCHAR 22DA
ENCODING 8922
SWIDTH 687 0
DWIDTH 22 0
BBX 18 22 2 1
BITMAP
000FC0
00FC00
1F8000
F00000
F00000
1F8000
00FC00
000FC0
000000
000000
FFFFC0
000000
800000
F80000
1FC000
00FC00
0007C0
0003C0
007E00
0FE000
FC0000
C00000
ENDCHAR
STARTCHAR 22DB
ENCODING 8923
SWIDTH 687 0
DWIDTH 22 0
BBX 18 23 2 0
BITMAP
800000
FC0000
0FC000
007E00
0007C0
0007C0
00FE00
1FC000
F80000
800000
000000
FFFFC0
000000
000000
0007C0
00FE00
0FC000
F80000
F00000
3F8000
01F800
001FC0
000080
ENDCHAR
STARTCHAR 2305
ENCODING 8965
SWIDTH 687 0
DWIDTH 22 0
BBX 18 13 2 2
BITMAP
FFFFC0
01C000
01E000
016000
032000
023000
061000
061800
0C1800
0C0C00
080C00
180600
100600
ENDCHAR
STARTCHAR 2306
ENCODING 8966
SWIDTH 687 0
DWIDTH 22 0
BBX 18 19 2 0
BITMAP
FFFFC0
000000
000000
000000
FFFFC0
00C000
01E000
016000
032000
033000
023000
061800
041800
0C0800
0C0C00
080C00
180400
180600
000400
ENDCHAR
STARTCHAR 2312
ENCODING 8978
SWIDTH 1000 0
DWIDTH 32 0
BBX 30 7 1 18
BITMAP
003FF000
01C00E00
06000180
18000060
60000018
C000000C
80000004
ENDCHAR
STARTCHAR 2318
ENCODING 8984
SWIDTH 1000 0
DWIDTH 32 0
BBX 28 28 2 -2
BITMAP
3C0003C0
42000420
83000810
81000810
81000810
81000810
41000860
3FFFFFC0
01000800
01000800
01000800
01000800
01000800
01000800
01000800
01000800
01000800
01000800
01000800
01000800
3FFFFFC0
61000820
81000810
81000810
81000810
81000C10
42000420
3C0003C0
ENDCHAR
STARTCHAR 23BE
ENCODING 9150
SWIDTH 1000 0
DWIDTH 32 0
BBX 17 32 15 -4
BITMAP
FFFF80
C00000
C00000
C00000
C00000
C00000
C00000
C00000
C00000
C00000
C00000
C00000
C00000
C00000
C00000
C00000
C00000
C00000
C00000
C00000
C00000
C00000
C00000
C00000
C00000
C00000
C00000
C00000
C00000
C00000
C00000
C00000
ENDCHAR
STARTCHAR 23BF
ENCODING 9151
SWIDTH 1000 0
DWIDTH 32 0
BBX 17 32 15 -4
BITMAP
C00000
C00000
C00000
C00000
C00000
C00000
C00000
C00000
C00000
C00000
C00000
C00000
C00000
C00000
C00000
C00000
C00000
C00000
C00000
C00000
C00000
C00000
C00000
C00000
C00000
C00000
C00000
C00000
C00000
C00000
C00000
FFFF80
ENDCHAR
STARTCHAR 23C0
ENCODING 9152
SWIDTH 1000 0
DWIDTH 32 0
BBX 26 32 3 -3
BITMAP
000C0000
000C0000
000C0000
000C0000
00FFC000
038C7000
060C1800
0C0C0C00
180C0600
300C0300
600C0180
600C0180
C00C0180
C00C00C0
C00C00C0
C00C00C0
C00C00C0
C00C00C0
C00C00C0
600C0180
600C0180
600C0180
300C0300
180C0600
0C0C0C00
060C3800
01EDF000
007F8000
000C0000
000C0000
000C0000
000C0000
ENDCHAR
STARTCHAR 23C1
ENCODING 9153
SWIDTH 1000 0
DWIDTH 32 0
BBX 32 32 0 -4
BITMAP
FFFFFFFF
00018000
00018000
00018000
001FF800
00718E00
00C18300
018181C0
030180C0
06018060
0C018030
0C018030
18018018
18018018
18018018
18018018
18018018
18018018
18018018
0C018030
0C018030
0C018030
06018060
030180C0
01818180
00E18700
003FFC00
0007F000
00018000
00018000
00018000
00018000
ENDCHAR
STARTCHAR 23C2
ENCODING 9154
SWIDTH 1000 0
DWIDTH 32 0
BBX 32 32 0 -4
BITMAP
00018000
00018000
00018000
00018000
0007E000
003FFC00
00E18700
01818180
030180C0
06018060
06018060
0C018030
0C018030
18018018
18018018
18018018
18018018
18018018
18018018
18018018
0C018030
0C018030
06018060
070180E0
038181C0
01C18380
00718E00
001FF800
00018000
00018000
00018000
FFFFFFFF
ENDCHAR
STARTCHAR 23C3
ENCODING 9155
SWIDTH 1000 0
DWIDTH 32 0
BBX 28 32 2 -5
BITMAP
00060000
00060000
00060000
00060000
00060000
00060000
000F0000
001F8000
00168000
0036C000
00264000
00666000
00C63000
00C61000
01861800
01060800
03060C00
06060400
06060600
0C060300
08060100
18060180
10060080
300600C0
60060060
40060020
FFFFFFF0
00060000
00060000
00060000
00060000
00060000
ENDCHAR
STARTCHAR 23C4
ENCODING 9156
SWIDTH 1000 0
DWIDTH 32 0
BBX 32 32 0 -5
BITMAP
FFFFFFFF
00018000
00018000
00018000
00018000
0003C000
0003C000
0007E000
0005A000
000DB000
00199800
00118800
00318C00
00218400
00618600
00C18200
00C18300
01818180
01018080
030180C0
02018040
06018060
0C018030
0C018030
18018018
10018008
3FFFFFFC
00018000
00018000
00018000
00018000
00018000
ENDCHAR
STARTCHAR 23C5
ENCODING 9157
SWIDTH 1000 0
DWIDTH 32 0
BBX 32 32 0 -4
BITMAP
00018000
00018000
00018000
00018000
00018000
00018000
0003C000
0007E000
0005A000
000DB000
00099000
00199800
00318C00
00318400
00618600
00418200
00C18300
01818100
01818180
030180C0
02018040
06018060
04018020
0C018030
18018018
10018008
3FFFFFFC
00018000
00018000
00018000
00018000
FFFFFFFF
ENDCHAR
STARTCHAR 23C6
ENCODING 9158
SWIDTH 1000 0
DWIDTH 32 0
BBX 28 32 2 -3
BITMAP
00060000
00060000
00060000
00060000
00060000
00060000
00060000
00060000
00060000
00060000
00060000
00060000
1F860000
60E60000
803E0000
000E0000
00070000
0006C030
00067060
00060F80
00060000
00060000
00060000
00060000
00060000
00060000
00060000
00060000
00060000
00060000
00060000
00060000
ENDCHAR
STARTCHAR 23C7
ENCODING 9159
SWIDTH 1000 0
DWIDTH 32 0
BBX 32 32 0 -4
BITMAP
FFFFFFFF
00018000
00018000
00018000
00018000
00018000
00018000
00018000
00018000
00018000
00018000
00018000
07E18000
18398000
200F8000
00038000
0001C004
0001B00C
00019C18
000183E0
00018000
00018000
00018000
00018000
00018000
00018000
00018000
00018000
00018000
00018000
00018000
00018000
ENDCHAR
STARTCHAR 23C8
ENCODING 9160
SWIDTH 1000 0
DWIDTH 32 0
BBX 32 32 0 -4
BITMAP
00018000
00018000
00018000
00018000
00018000
00018000
00018000
00018000
00018000
00018000
00018000
00018000
07C18000
18398000
300D8000
20038000
0001C000
0001E004
00019C18
000187E0
00018000
00018000
00018000
00018000
00018000
00018000
00018000
00018000
00018000
00018000
00018000
FFFFFFFF
ENDCHAR
STARTCHAR 23C9
ENCODING 9161
SWIDTH 1000 0
DWIDTH 32 0
BBX 32 32 0 -4
BITMAP
FFFFFFFF
00018000
00018000
00018000
00018000
00018000
00018000
00018000
00018000
00018000
00018000
00018000
00018000
00018000
00018000
00018000
00018000
00018000
00018000
00018000
00018000
00018000
00018000
00018000
00018000
00018000
00018000
00018000
00018000
00018000
00018000
00018000
ENDCHAR
STARTCHAR 23CA
ENCODING 9162
SWIDTH 1000 0
DWIDTH 32 0
BBX 32 32 0 -4
BITMAP
00018000
00018000
00018000
00018000
00018000
00018000
00018000
00018000
00018000
00018000
00018000
00018000
00018000
00018000
00018000
00018000
00018000
00018000
00018000
00018000
00018000
00018000
00018000
00018000
00018000
00018000
00018000
00018000
00018000
00018000
00018000
FFFFFFFF
ENDCHAR
STARTCHAR 23CB
ENCODING 9163
SWIDTH 1000 0
DWIDTH 32 0
BBX 17 32 0 -4
BITMAP
FFFF80
000180
000180
000180
000180
000180
000180
000180
000180
000180
000180
000180
000180
000180
000180
000180
000180
000180
000180
000180
000180
000180
000180
000180
000180
000180
000180
000180
000180
000180
000180
000180
ENDCHAR
STARTCHAR 23CC
ENCODING 9164
SWIDTH 1000 0
DWIDTH 32 0
BBX 17 32 0 -4
BITMAP
000180
000180
000180
000180
000180
000180
000180
000180
000180
000180
000180
000180
000180
000180
000180
000180
000180
000180
000180
000180
000180
000180
000180
000180
000180
000180
000180
000180
000180
000180
000180
FFFF80
ENDCHAR
STARTCHAR 23CE
ENCODING 9166
SWIDTH 1000 0
DWIDTH 32 0
BBX 27 27 2 -3
BITMAP
0000FFE0
0000C060
0000C060
0000C060
0000C060
0000C060
0000C060
0000C060
0020C060
0060C060
00E0C060
0360C060
0660C060
0C7F8060
18000060
20000060
C0000060
80000060
600000C0
300001C0
18000380
0C7FFE00
02600000
01600000
00E00000
00600000
00200000
ENDCHAR
STARTCHAR 2423
ENCODING 9251
SWIDTH 1000 0
DWIDTH 32 0
BBX 24 6 4 0
BITMAP
C00003
C00003
C00003
C00003
C00003
FFFFFF
ENDCHAR
STARTCHAR 2460
ENCODING 9312
SWIDTH 1000 0
DWIDTH 32 0
BBX 29 29 1 -2
BITMAP
001FC000
00E03800
01800600
06000300
0C000180
18070040
301F0060
20030020
40030010
40030010
40030010
80030008
80030008
80030008
80030008
80030008
80030008
80030008
40030010
40030010
60030010
20030020
30030040
181FE040
0C000080
06000300
01800600
00E03800
001FC000
ENDCHAR
STARTCHAR 2461
ENCODING 9313
SWIDTH 1000 0
DWIDTH 32 0
BBX 29 28 2 -2
BITMAP
001FC000
00E03800
03000600
04000300
080F8080
10306040
20603060
60E01820
40E01810
40E01810
C0E01808
80003008
80003008
80006008
8000C008
80018008
80030008
80040018
40080810
40100810
20200820
20401860
10FFF8C0
08000180
04000300
03000E00
00E03800
001FC000
ENDCHAR
STARTCHAR 2462
ENCODING 9314
SWIDTH 1000 0
DWIDTH 32 0
BBX 28 29 2 -2
BITMAP
003F8000
00E07000
03000800
06000600
0C000300
181F8180
3070E080
20406040
60E03020
40E03020
40E03020
80003010
80006010
8001C010
800F0010
8000E010
80003010
80001810
80001820
41C01820
41E01820
41C01840
20C03040
1060E080
081F8100
04000200
03000400
00C03800
003FC000
ENDCHAR
STARTCHAR 2463
ENCODING 9315
SWIDTH 1000 0
DWIDTH 32 0
BBX 29 29 1 -2
BITMAP
001FE000
00603800
01800600
06000300
0C00C180
1800C0C0
3001C060
2002C020
4006C010
400CC010
4008C010
8010C008
8030C008
8060C008
8040C008
8080C008
8180C008
83FFFC08
4000C010
4000C010
6000C010
3000C020
1001C040
1807F840
0C000080
06000100
01800600
00E01800
001FE000
ENDCHAR
STARTCHAR 2464
ENCODING 9316
SWIDTH 1000 0
DWIDTH 32 0
BBX 28 28 2 -1
BITMAP
003F8000
00C07000
03000C00
04000600
08000100
107FE080
204000C0
20400040
40400020
40400020
C0400020
804F8010
80706010
80E03010
80403010
80001810
80001810
80001810
40E01820
40E01820
40C03040
20407040
1030E080
081F8100
04000200
03000400
00C03800
003FC000
ENDCHAR
STARTCHAR 2465
ENCODING 9317
SWIDTH 1000 0
DWIDTH 32 0
BBX 28 29 2 -2
BITMAP
003F8000
00E07000
03000800
06000600
0C000300
180FC180
30186080
20307040
60607020
40E07020
40C00020
80C00010
81CF8010
81D0C010
81E06010
81807010
81803010
81803010
81803020
41803020
40C03020
40C06040
20606040
1030C080
081F0100
04000200
03000400
00C03800
003FC000
ENDCHAR
STARTCHAR 2466
ENCODING 9318
SWIDTH 1000 0
DWIDTH 32 0
BBX 29 28 1 -2
BITMAP
001FC000
00E03800
03000600
06000300
08000080
107FF840
30601860
20401020
40403010
40402010
80406008
8000C008
8000C008
80008008
80018008
80018008
80030008
C0030010
40030010
40070010
20070020
30070060
18060040
0C060080
06000300
03800600
00E03800
001FC000
ENDCHAR
STARTCHAR 2467
ENCODING 9319
SWIDTH 1000 0
DWIDTH 32 0
BBX 28 29 2 -2
BITMAP
003F8000
00E07000
03000800
06000600
0C000300
181F8180
3070E080
20606040
60C03020
40C03020
40C03020
80606010
8070C010
801D8010
800F0010
8031C010
80606010
80C03010
81801820
41801820
41801820
41803840
20C03040
1070E080
081F8100
04000200
03000400
00C03800
003FC000
ENDCHAR
STARTCHAR 2468
ENCODING 9320
SWIDTH 1000 0
DWIDTH 32 0
BBX 28 29 2 -2
BITMAP
003F8000
00E07000
03000800
06000600
0C000300
181F8180
3030C080
20606040
60E07020
40C03020
40C03820
80C03810
80C03810
80C03810
80607810
8030F810
801F3810
80003810
80003820
40E03020
40E07020
40E06040
20E0E040
1061C080
081F0100
04000200
03000400
00C03800
003FC000
ENDCHAR
STARTCHAR 2469
ENCODING 9321
SWIDTH 1000 0
DWIDTH 32 0
BBX 29 29 2 -2
BITMAP
001FC000
00E03000
01800C00
06000300
0C000180
184078C0
13C0CC40
20C18620
60C18610
40C10210
40C30310
80C30308
80C30308
80C30308
80C30308
80C30308
80C30308
80C30308
40C30310
40C10210
40C18610
20C18620
20C0CC60
13F07840
08000080
06000100
03000600
00E03800
001FC000
ENDCHAR
STARTCHAR 246A
ENCODING 9322
SWIDTH 1000 0
DWIDTH 32 0
BBX 28 29 2 -2
BITMAP
001F8000
00E07000
01800800
06000600
0C000100
18401080
33C0F080
20C03040
60C03020
40C03020
40C03020
80C03010
80C03010
80C03010
80C03010
80C03010
80C03010
80C03010
40C03020
40C03020
40C03020
20C03040
20C030C0
13F0FC80
08000100
04000600
03000C00
00C07000
003FC000
ENDCHAR
STARTCHAR 246B
ENCODING 9323
SWIDTH 1000 0
DWIDTH 32 0
BBX 29 28 2 -2
BITMAP
001FC000
00E03800
03000400
06000300
08000180
10C0F840
33C10C60
20C30620
40C38610
40C38610
C0C00610
80C00608
80C00C08
80C00C08
80C01808
80C03008
80C02008
80C04018
40C0C210
40C18210
40C10220
20C20660
13F3FE40
08000080
04000300
03000600
00E03800
001FC000
ENDCHAR
STARTCHAR 246C
ENCODING 9324
SWIDTH 1000 0
DWIDTH 32 0
BBX 29 29 2 -2
BITMAP
001FC000
00E03000
01800C00
06000300
0C000180
1840F8C0
13C18C40
20C30620
60C30610
40C38610
40C38610
80C00608
80C00C08
80C01808
80C0F008
80C00C08
80C00C08
80C00608
40C00610
40C70610
40C70610
20C60C20
20C31C60
13F1F040
08000080
06000100
03000600
00E03800
001FC000
ENDCHAR
STARTCHAR 246D
ENCODING 9325
SWIDTH 1000 0
DWIDTH 32 0
BBX 28 28 2 -2
BITMAP
003FC000
00C03000
03000C00
04000200
08000100
11C03080
23C07040
20C07040
40C0F020
40C0B020
80C1B010
80C13010
80C33010
80C23010
80C63010
80C43010
80CC3010
80CFFE10
40C03020
40C03020
20C03040
20C03040
13F0FC80
08000100
04000200
03000C00
00C03000
003FC000
ENDCHAR
STARTCHAR 246E
ENCODING 9326
SWIDTH 1000 0
DWIDTH 32 0
BBX 29 28 1 -2
BITMAP
001FE000
00E03800
03000600
04000300
08000080
13C1FE40
30C10060
20C30020
40C30010
40C30010
80C30018
80C37808
80C38E08
80C30608
80C00308
80C00308
80C00308
C0C00308
40C30310
40C30610
20C30620
30C10C20
13F0F840
0C000080
06000100
03000600
00E01800
001FE000
ENDCHAR
STARTCHAR 246F
ENCODING 9327
SWIDTH 1000 0
DWIDTH 32 0
BBX 29 29 1 -2
BITMAP
001FC000
00603800
01800400
02000300
0C000180
184038C0
13C0C440
20C08620
60C18610
40C10610
40C10010
80C30008
80C30008
80C37C08
80C3C608
80C30608
80C30308
80C30308
40C30310
40C30310
40C10310
20C18620
30C0C640
13F07840
08000080
06000100
03000600
00E01800
001FE000
ENDCHAR
STARTCHAR 2470
ENCODING 9328
SWIDTH 1000 0
DWIDTH 32 0
BBX 28 28 2 -2
BITMAP
003FC000
00C03000
03000C00
04000200
08000100
13C7FE80
20C60440
20C40440
40C40820
40C40820
80C01810
80C01010
80C03010
80C03010
80C02010
80C06010
80C06010
80C06010
40C0E020
40C0C020
20C0C040
20C0C040
13F0C080
08000100
04000200
03000C00
00C03000
003FC000
ENDCHAR
STARTCHAR 2471
ENCODING 9329
SWIDTH 1000 0
DWIDTH 32 0
BBX 29 29 2 -2
BITMAP
001FC000
00E03000
01800C00
06000300
0C000180
1840F8C0
13C18C40
20C30620
60C30610
40C30610
40C30610
80C18C08
80C1C808
80C0F008
80C07008
80C19C08
80C30E08
80C60708
40C60310
40C60310
40C60310
20C70220
20C38660
13F0F840
08000080
06000100
03000600
00E03800
001FC000
ENDCHAR
STARTCHAR 2472
ENCODING 9330
SWIDTH 1000 0
DWIDTH 32 0
BBX 29 29 2 -2
BITMAP
001FC000
00E03000
01800C00
06000300
0C000180
184078C0
13C0CC40
20C18620
60C30610
40C30310
40C30310
80C30308
80C30308
80C30308
80C18308
80C18F08
80C0F708
80C00708
40C00710
40C38610
40C38610
20C38C20
20C11C60
13F0F040
08000080
06000100
03000600
00E03800
001FC000
ENDCHAR
STARTCHAR 2473
ENCODING 9331
SWIDTH 1000 0
DWIDTH 32 0
BBX 29 28 1 -2
BITMAP
001FC000
00E03800
01800600
06000300
0C000080
19F01C40
33182260
260C6320
470C4310
470CC190
C00CC190
800CC188
8018C188
8018C188
8030C188
8060C188
8040C188
80C0C188
4084C190
41044110
23046320
220C2220
17FC1C40
08000080
06000100
03000600
00E01800
001FE000
ENDCHAR
STARTCHAR 24D0
ENCODING 9424
SWIDTH 1000 0
DWIDTH 32 0
BBX 29 29 1 -2
BITMAP
001FC000
00603800
01800C00
02000300
0C000180
180000C0
10000040
20000020
600F8010
4010C010
40306010
80306008
80306008
8000E008
800F6008
80386008
80606008
80606008
80606010
4070E410
401F7810
20000020
20000020
10000040
08000080
06000100
03000600
00E01800
001FE000
ENDCHAR
STARTCHAR 24D1
ENCODING 9425
SWIDTH 1000 0
DWIDTH 32 0
BBX 29 29 2 -2
BITMAP
001FC000
00603000
01800C00
02000200
0C000180
187000C0
10300040
20300020
60300010
40300010
4033C010
80343008
80381808
80301808
80300C08
80300C08
80300C08
80300C08
80300C10
40300C10
40301810
20381820
203C3020
1023C040
08000080
06000100
03000600
00E01800
001FE000
ENDCHAR
STARTCHAR 24D2
ENCODING 9426
SWIDTH 1000 0
DWIDTH 32 0
BBX 28 29 2 -2
BITMAP
003F8000
00E07000
03000800
06000600
0C000300
18000180
30000080
20000040
600F8020
4030C020
4060E020
8060E010
80C0E010
80C00010
80C00010
80C00010
80C00010
80E00010
80602020
40304020
401F8020
40000040
20000040
10000080
08000100
04000200
03000400
00C03800
003FC000
ENDCHAR
STARTCHAR 24D3
ENCODING 9427
SWIDTH 1000 0
DWIDTH 32 0
BBX 29 29 1 -2
BITMAP
001FC000
00603800
01800400
02000300
04000180
1800E0C0
1001E040
20006020
60006010
40006010
401E6010
8031E008
80606008
80606008
80C06008
80C06008
80C06008
80C06008
40C06010
40C06010
40606010
2060E020
30317820
101E4040
08000080
06000100
03000600
00E01800
001FE000
ENDCHAR
STARTCHAR 24D4
ENCODING 9428
SWIDTH 1000 0
DWIDTH 32 0
BBX 28 28 2 -2
BITMAP
003FC000
01C07800
02000C00
0C000600
18000100
10000080
20000040
60000040
401F8020
40204020
80606010
80C03010
80C03010
80FFC010
80C00010
80C00010
80E01010
80602030
40384020
400F8020
20000040
20000040
10000080
08000100
04000200
03000C00
00C07000
003FC000
ENDCHAR
STARTCHAR 24D5
ENCODING 9429
SWIDTH 1000 0
DWIDTH 32 0
BBX 29 29 1 -3
BITMAP
001FE000
00E03800
01000600
06000300
0C000080
1001E040
30033060
20063020
40060010
40060010
C0060010
801F8008
80060008
80060008
80060008
80060008
80060008
C0060008
40060010
40060010
60060030
30060020
101F8040
180000C0
0C000180
06000300
01800C00
00E03800
001FC000
ENDCHAR
STARTCHAR 24D6
ENCODING 9430
SWIDTH 1000 0
DWIDTH 32 0
BBX 28 29 2 -2
BITMAP
003F8000
00E07000
03000800
06000600
0C000300
18000180
30000080
201F7840
60319820
4060C020
4060C020
8060C010
8060C010
80318010
803F0010
80600010
807F8010
803FE010
80C07020
40C03020
40C03020
40706040
203F8040
10000080
08000100
04000200
03000400
00C03800
003FC000
ENDCHAR
STARTCHAR 24D7
ENCODING 9431
SWIDTH 1000 0
DWIDTH 32 0
BBX 30 29 1 -3
BITMAP
001FE000
00E01C00
03000700
04000180
080000C0
10F00060
20300030
20300010
40300008
40300008
C033E008
80343004
80383804
80301804
80301804
80301804
80301804
80301804
40301808
40301808
60301818
20301810
10FC7E20
18000060
0C0000C0
06000380
01800600
00603C00
001FE000
ENDCHAR
STARTCHAR 24D8
ENCODING 9432
SWIDTH 1000 0
DWIDTH 32 0
BBX 29 29 1 -3
BITMAP
001FE000
00E03C00
03000600
04000380
08000080
10070040
30070060
20070020
40000010
40000010
C0010018
800F0008
80030008
80030008
80030008
80030008
80030008
80030008
40030010
40030010
60030030
20030020
100FC040
180000C0
0C000180
06000300
01800C00
00E03800
001FC000
ENDCHAR
STARTCHAR 24D9
ENCODING 9433
SWIDTH 1000 0
DWIDTH 32 0
BBX 29 29 1 -2
BITMAP
001FC000
00603800
01800400
03000300
04038180
080380C0
10038040
20000020
60000010
40008010
40078010
80018008
80018008
80018008
80018008
80018008
80018008
80018008
40018010
40018010
40018010
20018020
30318020
18318040
0C330080
061E0100
03800200
00E01C00
001FE000
ENDCHAR
STARTCHAR 24DA
ENCODING 9434
SWIDTH 1000 0
DWIDTH 32 0
BBX 29 29 2 -2
BITMAP
001FC000
00E03000
01800C00
06000200
0C000100
18700080
30700040
20300020
60300020
40300010
40300010
8031F808
80306008
8030C008
80310008
80320008
80370008
80398008
8030C010
4030C010
40306010
20303020
20FCFC60
100000C0
08000180
04000300
03000600
00E03800
001FC000
ENDCHAR
STARTCHAR 24DB
ENCODING 9435
SWIDTH 1000 0
DWIDTH 32 0
BBX 29 29 1 -3
BITMAP
001FE000
00E03C00
03000600
04000380
08000080
100F0040
30030060
20030020
40030010
40030010
C0030018
80030008
80030008
80030008
80030008
80030008
80030008
80030008
40030010
40030010
60030030
20030020
100FC040
180000C0
0C000180
06000300
01800C00
00E03800
001FC000
ENDCHAR
STARTCHAR 24DC
ENCODING 9436
SWIDTH 1000 0
DWIDTH 32 0
BBX 30 29 1 -2
BITMAP
001FC000
00703800
01800600
03000100
04000080
18000040
10000020
20000010
609E3C10
47A34608
41C1C208
81818304
81818304
81818304
81818304
81818304
81818304
81818304
41818308
41818308
47E7EFC8
20000010
20000020
10000020
08000040
06000180
01800200
00E01C00
001FE000
ENDCHAR
STARTCHAR 24DD
ENCODING 9437
SWIDTH 1000 0
DWIDTH 32 0
BBX 30 29 1 -2
BITMAP
001FC000
00701800
01800600
02000100
0C000080
18000040
10000020
20000010
6013E010
40F43008
40383008
80301804
80301804
80301804
80301804
80301804
80301804
80301804
40301808
40301808
40FC7E08
20000010
20000020
10000020
08000040
06000080
01800300
00E01C00
001FE000
ENDCHAR
STARTCHAR 24DE
ENCODING 9438
SWIDTH 1000 0
DWIDTH 32 0
BBX 28 29 2 -2
BITMAP
003F8000
00E07000
03000800
06000600
0C000300
18000180
30000080
20000040
600F0020
4030C020
40606020
80606010
80C03010
80C03010
80C03010
80C03010
80C03010
80E03010
80606020
4030C020
401F8020
40000040
20000040
10000080
08000100
04000200
03000400
00C03800
003FC000
ENDCHAR
STARTCHAR 24DF
ENCODING 9439
SWIDTH 1000 0
DWIDTH 32 0
BBX 29 28 2 -2
BITMAP
003FC000
01C03800
02000E00
0C000300
18000180
100000C0
2013E060
60F43020
40381810
40301C10
80300C18
80300C08
80300C08
80300C08
80301C08
80301808
803C3008
8033E010
40300010
40300010
40300020
20300020
10FC0040
08000080
04000100
03000600
00E03800
001FC000
ENDCHAR
STARTCHAR 24E0
ENCODING 9440
SWIDTH 1000 0
DWIDTH 32 0
BBX 29 28 1 -2
BITMAP
001FE000
00E03C00
03000600
04000380
080001C0
10000040
201E0060
6061E030
40C06010
41C06010
81806018
81806008
81806008
81806008
81C06008
80C06008
8060E008
803F6010
40006010
40006010
20006020
30006020
1001F840
08000080
06000100
03000200
00E01C00
001FE000
ENDCHAR
STARTCHAR 24E1
ENCODING 9441
SWIDTH 1000 0
DWIDTH 32 0
BBX 29 29 2 -2
BITMAP
001FC000
00E03000
01800C00
06000200
0C000180
180000C0
10000040
20000020
60047010
403DB810
400E3810
800C0008
800C0008
800C0008
800C0008
800C0008
800C0008
800C0008
800C0010
400C0010
403F0010
20000020
20000060
10000040
08000080
06000100
03000600
00E03800
001FC000
ENDCHAR
STARTCHAR 24E2
ENCODING 9442
SWIDTH 1000 0
DWIDTH 32 0
BBX 29 29 2 -2
BITMAP
001FC000
00E03000
03000C00
06000200
0C000100
18000080
30000040
20000020
600F8020
4018E010
40306010
80302008
80382008
801E0008
800F8008
8003E008
80407008
80403008
80603010
40602010
40584010
40078020
20000060
10000040
08000080
04000100
03000600
00E03800
001FC000
ENDCHAR
STARTCHAR 24E3
ENCODING 9443
SWIDTH 1000 0
DWIDTH 32 0
BBX 29 29 2 -2
BITMAP
001FC000
00E03000
01800C00
02000200
0C000100
18000080
10040040
20040020
600C0020
401C0010
407FC010
800C0008
800C0008
800C0008
800C0008
800C0008
800C0008
800C0008
800C0010
400C0010
400C2010
200E4020
20078020
10000040
08000080
04000100
03000200
00E01C00
001FE000
ENDCHAR
STARTCHAR 24E4
ENCODING 9444
SWIDTH 1000 0
DWIDTH 32 0
BBX 28 29 2 -2
BITMAP
001F8000
00E07000
01800800
06000600
0C000100
18000180
30000080
20000040
60602020
41E1E020
40606020
80606010
80606010
80606010
80606010
80606010
80606010
80606010
80606020
4031E020
401F7820
40000040
20000040
10000080
08000100
04000200
03000400
00C03800
003FC000
ENDCHAR
STARTCHAR 24E5
ENCODING 9445
SWIDTH 1000 0
DWIDTH 32 0
BBX 28 29 2 -2
BITMAP
003FC000
00C07000
03000C00
04000600
08000100
10000080
300000C0
20000040
40000020
43F0FC20
C0E03020
80602010
80706010
80304010
8030C010
80188010
80188010
800D0010
800D0020
40060020
40060020
20000040
200000C0
10000080
08000100
04000200
03000C00
00C03000
003FC000
ENDCHAR
STARTCHAR 24E6
ENCODING 9446
SWIDTH 1000 0
DWIDTH 32 0
BBX 28 29 2 -2
BITMAP
003FC000
00C07000
03000C00
04000600
08000100
10000080
200000C0
20000040
40000020
4FCF9F20
C3020420
81020410
81870810
81850810
80850810
80C99010
80C89010
8068D010
8070E020
40706020
40306020
20204040
200000C0
10000080
08000100
04000200
03000C00
00C03000
003FC000
ENDCHAR
STARTCHAR 24E7
ENCODING 9447
SWIDTH 1000 0
DWIDTH 32 0
BBX 28 28 2 -2
BITMAP
003FC000
01C07800
06000C00
0C000700
18000100
10000080
200000C0
60000060
41F9F820
40606020
8030C030
80198010
800F0010
80060010
80070010
80098010
8010C010
8020E010
40C07020
43F9FC20
40000040
20000040
10000080
08000100
04000200
03000400
00C03800
003FC000
ENDCHAR
STARTCHAR 24E8
ENCODING 9448
SWIDTH 1000 0
DWIDTH 32 0
BBX 28 29 2 -3
BITMAP
003FC000
01C07800
06000C00
0C000700
18000100
10000080
200000C0
61F8FC40
40601020
40201020
80302030
80182010
80084010
800C4010
80068010
80068010
80030010
80030010
40020020
40020020
40640060
206C0040
20380080
10000180
08000300
06000600
03001C00
00E07000
003FC000
ENDCHAR
STARTCHAR 24E9
ENCODING 9449
SWIDTH 1000 0
DWIDTH 32 0
BBX 29 28 2 -2
BITMAP
003FC000
01C03800
02000E00
0C000300
18000180
100000C0
20000060
60000020
407FF010
40606010
8040C018
80418008
80030008
80070008
800E0008
800C1008
80181008
80301008
40607010
40FFF010
40000020
20000020
10000040
08000080
04000100
03000600
00E03800
001FC000
ENDCHAR
STARTCHAR 24EB
ENCODING 9451
SWIDTH 1000 0
DWIDTH 32 0
BBX 30 29 1 -2
BITMAP
001FC000
007FF800
01FFFE00
03FFFF00
0FFFFF80
1FBFFBC0
1C3F83E0
3F3FF3F0
7F3FF3F0
7F3FF3F8
7F3FF3F8
FF3FF3FC
FF3FF3FC
FF3FF3FC
FF3FF3FC
FF3FF3FC
FF3FF3FC
FF3FF3FC
7F3FF3F8
7F3FF3F8
7F3FF3F8
3F3FF3F0
1F3FF3E0
1C0780E0
0FFFFFC0
07FFFF80
01FFFE00
00FFFC00
001FE000
ENDCHAR
STARTCHAR 24EC
ENCODING 9452
SWIDTH 1000 0
DWIDTH 32 0
BBX 29 29 1 -2
BITMAP
001FE000
00FFF800
01FFFE00
07FFFF00
0FFFFF80
1F3F83C0
3C3F79E0
3F3E7CE0
7F3E3CF0
7F3E3CF0
7F3E3CF0
FF3FF8F8
FF3FF9F8
FF3FF1F8
FF3FF3F8
FF3FE7F8
FF3FCFF8
FF3FDFF8
7F3FBEF0
7F3F3EF0
7F3F7EF0
3F3EFCE0
3F3C00C0
1C0C00C0
0FFFFF80
07FFFF00
01FFFE00
00FFF800
001FC000
ENDCHAR
STARTCHAR 24ED
ENCODING 9453
SWIDTH 1000 0
DWIDTH 32 0
BBX 29 29 1 -2
BITMAP
001FC000
007FF800
01FFFC00
03FFFF00
0FFFFF80
1FBF87C0
1C3E79C0
3F3CFDE0
7F3C7CF0
7F3C7CF0
7F3C7CF0
FF3FFCF8
FF3FF9F8
FF3FF3F8
FF3F87F8
FF3FF1F8
FF3FF9F8
FF3FFCF8
7F3FFCF0
7F3C7CF0
7F3C7CF0
3F3CF9E0
3F3E71E0
1C0F07C0
0FFFFF80
07FFFF00
03FFFE00
00FFF800
001FC000
ENDCHAR
STARTCHAR 24EE
ENCODING 9454
SWIDTH 1000 0
DWIDTH 32 0
BBX 30 28 1 -2
BITMAP
001FE000
00FFFC00
03FFFF00
07FFFF80
0FFFFFC0
1E3FF3E0
3C3FE3F0
3F3FE3F0
7F3FD3F8
7F3FD3F8
FF3FB3FC
FF3F33FC
FF3F73FC
FF3E73FC
FF3EF3FC
FF3DF3FC
FF3DF3FC
7F380078
7F3FF3F8
7F3FF3F8
3F3FF3F0
3F3FF3F0
1C0FC0E0
0FFFFFC0
07FFFF80
01FFFE00
00FFFC00
001FE000
ENDCHAR
STARTCHAR 24EF
ENCODING 9455
SWIDTH 1000 0
DWIDTH 32 0
BBX 30 28 1 -2
BITMAP
001FE000
00FFFC00
01FFFE00
07FFFF80
0FFFFFC0
1C3E01E0
3F3EFFF0
3F3EFFF0
7F3EFFF8
7F3EFFF8
FF3EFFFC
FF3E87FC
FF3E71FC
FF3EF9FC
FF3FFCFC
FF3FFCFC
FF3FFCFC
7F3FFCFC
7F3C7CF8
7F3C7DF8
3F3CF9F0
3F3E73F0
1C0F07E0
0FFFFFC0
07FFFF80
01FFFE00
00FFFC00
001FE000
ENDCHAR
STARTCHAR 24F0
ENCODING 9456
SWIDTH 1000 0
DWIDTH 32 0
BBX 30 29 1 -2
BITMAP
001FC000
007FF800
01FFFE00
03FFFF00
07FFFF80
0FBFC3C0
1C3F99E0
3F3F3CF0
7F3E78F0
7F3E78F8
7F3E7FF8
FF3C7FFC
FF3C7FFC
FF3CC3FC
FF3C39FC
FF3C79FC
FF3CFCFC
FF3CFCFC
7F3C7CF8
7F3C7CF8
7F3E7CF8
3F3E79F0
1F3F3BE0
1C0F87E0
0FFFFFC0
07FFFF80
01FFFE00
00FFFC00
001FE000
ENDCHAR
STARTCHAR 24F1
ENCODING 9457
SWIDTH 1000 0
DWIDTH 32 0
BBX 29 28 1 -2
BITMAP
001FC000
00FFF800
03FFFE00
07FFFF00
0FFFFF80
1C3C00C0
3F3CFDE0
3F3DFDE0
7F3DFBF0
7F3DFBF0
FF3FF3F8
FF3FF7F8
FF3FE7F8
FF3FE7F8
FF3FEFF8
FF3FCFF8
FF3FCFF8
FF3FCFF8
7F3F8FF0
7F3F9FF0
3F3F9FE0
3F3F9FE0
1C0F9FC0
0FFFFF80
07FFFF00
03FFFE00
00FFF800
001FC000
ENDCHAR
STARTCHAR 24F2
ENCODING 9458
SWIDTH 1000 0
DWIDTH 32 0
BBX 29 29 1 -2
BITMAP
001FC000
007FF800
01FFFC00
03FFFF00
0FFFFF80
1FBF83C0
1C3F39C0
3F3E7CE0
7F3E7CF0
7F3E7CF0
7F3E7CF0
FF3E39F8
FF3F3BF8
FF3F87F8
FF3FC7F8
FF3F23F8
FF3E79F8
FF3CF8F8
7F3CFCF0
7F3CFCF0
7F3CFCF0
3F3C7DE0
3F3E39E0
1C0F87C0
0FFFFF80
07FFFF00
03FFFE00
00FFF800
001FC000
ENDCHAR
STARTCHAR 24F3
ENCODING 9459
SWIDTH 1000 0
DWIDTH 32 0
BBX 29 29 1 -2
BITMAP
001FC000
007FF800
01FFFC00
03FFFF00
0FFFFF80
1FBF87C0
1C3F33C0
3F3E79E0
7F3CF9F0
7F3CFCF0
7F3CFCF0
FF3CFCF8
FF3CFCF8
FF3CFCF8
FF3E7CF8
FF3E38F8
FF3F84F8
FF3FFCF8
7F3FFDF0
7F3C7DF0
7F3C79F0
3F3C7BE0
3F3E77E0
1C0F0FC0
0FFFFF80
07FFFF00
03FFFE00
00FFF800
001FC000
ENDCHAR
STARTCHAR 24F4
ENCODING 9460
SWIDTH 1000 0
DWIDTH 32 0
BBX 29 29 2 -2
BITMAP
003FC000
00FFF000
03FFFC00
07FFFF00
0FFFFF80
1C1FC7C0
39CFBBC0
33E739E0
71E779F0
71E67CF0
FFE67CF0
FFE67CF8
FFCE7CF8
FFCE7CF8
FF9E7CF8
FFBE7CF8
FF7E7CF8
FE7E7CF8
7EF67CF0
7DF67CF0
79F739F0
3BE739E0
3007BBC0
1007C7C0
0FFFFF80
07FFFF00
01FFFE00
00FFF800
001FC000
ENDCHAR
STARTCHAR 24F5
ENCODING 9461
SWIDTH 1000 0
DWIDTH 32 0
BBX 30 30 1 -3
BITMAP
003FE000
00C01800
031FC600
04703980
19800640
23010320
261F01A0
4C0300D0
88030050
90030028
90030028
30030024
20030014
20030014
20030014
20030014
20030014
20030014
B0030028
90030028
90030028
48030050
4C0300F0
261FE1A0
13000340
09800680
06703B00
010FC600
00E03800
001FE000
ENDCHAR
STARTCHAR 24F6
ENCODING 9462
SWIDTH 1000 0
DWIDTH 32 0
BBX 30 30 1 -3
BITMAP
001FE000
00603800
01800600
063FE100
08C01880
13000640
240FC120
48386090
50203050
90601848
A0701828
20701824
40001814
40003014
40007014
4000E014
4001C014
40030014
20060034
A00C0828
A0180828
50300850
486018D0
24FFF9A0
12000340
09800EC0
04603900
031FE600
00E03800
001FE000
ENDCHAR
STARTCHAR 24F7
ENCODING 9463
SWIDTH 1000 0
DWIDTH 32 0
BBX 30 30 1 -3
BITMAP
001FE000
00601800
019FC600
02703980
0D8006C0
1B0FC360
161871A0
2C3030D0
68601850
50701828
50701828
B0001824
A0003014
A000E014
A0078014
A0007014
A0001814
A0000C14
B0000C24
50700C28
50700C28
28601850
2C3030D0
160FC1A0
1B000340
0D8006C0
06703900
018FC600
00601800
001FE000
ENDCHAR
STARTCHAR 24F8
ENCODING 9464
SWIDTH 1000 0
DWIDTH 32 0
BBX 30 31 1 -3
BITMAP
001FE000
00601800
01800600
021FC100
04E03880
09000640
1200C120
2401C090
2803C050
4802C048
5004C028
D008C028
A018C024
A030C014
A020C014
A040C014
A080C014
A180C014
A1FFFC14
7000C028
5000C028
5800C068
2800C050
2C00C0D0
1607F9A0
0B000340
05800680
02703900
018FC600
00601800
001FE000
ENDCHAR
STARTCHAR 24F9
ENCODING 9465
SWIDTH 1000 0
DWIDTH 32 0
BBX 30 30 1 -3
BITMAP
001FE000
00601800
019FC600
02703980
0D8006C0
1B000360
163FF1A0
2C2000D0
68200050
50200028
50200028
B0200024
A027C014
A0383014
A0301814
A0000C14
A0000C14
A0000C14
B0000C24
50700C28
50701828
28603850
2C3070D0
160FC1A0
1B000340
0D800680
06703900
018FC600
00601800
001FE000
ENDCHAR
STARTCHAR 24FA
ENCODING 9466
SWIDTH 1000 0
DWIDTH 32 0
BBX 30 30 1 -3
BITMAP
001FE000
00601800
019FC600
02703980
0D8006C0
1B03E360
160C31A0
2C1838D0
68103850
50303828
50300028
B0600024
A067C014
A0686014
A0703014
A0601814
A0601814
A0601814
B0601824
50301828
50303028
28103050
2C1860D0
1607C1A0
1B000340
0D8006C0
06703900
018FC600
00601800
001FE000
ENDCHAR
STARTCHAR 24FB
ENCODING 9467
SWIDTH 1000 0
DWIDTH 32 0
BBX 31 30 1 -3
BITMAP
000FE000
00701C00
018FE300
02301880
04C00640
09000120
123FFC90
24300848
68201848
50201024
50203024
90202012
A0006012
A0006012
A000C012
A000C012
A0008012
A0018012
90018014
50018024
50038024
28030048
24030050
12030090
09030120
0CC00640
02301880
018FE300
00701C00
001FE000
ENDCHAR
STARTCHAR 24FC
ENCODING 9468
SWIDTH 1000 0
DWIDTH 32 0
BBX 30 30 1 -3
BITMAP
001FE000
00601800
019FC600
02703980
0D8006C0
1B0F8360
163861A0
2C3030D0
68601850
50601828
50601828
B0303024
A0386014
A01EC014
A0078014
A018E014
A0607014
A0C03814
B0C01824
50C01828
50C01828
28603050
2C3060D0
161FC1A0
1B000340
0D8006C0
06703900
018FC600
00601800
001FE000
ENDCHAR
STARTCHAR 24FD
ENCODING 9469
SWIDTH 1000 0
DWIDTH 32 0
BBX 30 30 1 -3
BITMAP
001FE000
00601800
019FC600
02703980
0D8006C0
1B0F8360
161861A0
2C3020D0
68303050
50603028
50601828
B0601824
A0601814
A0601814
A0303814
A0187814
A00F9814
A0001814
B0001024
50703028
50703028
28706050
2C30C0D0
161F81A0
1B000340
0D8006C0
06703900
018FC600
00601800
001FE000
ENDCHAR
STARTCHAR 24FE
ENCODING 9470
SWIDTH 1000 0
DWIDTH 32 0
BBX 30 30 1 -3
BITMAP
001FE000
00601800
019FC600
02703900
0D8006C0
1B000340
166079A0
2DE0CCD0
68618650
50618628
50630228
B0630324
A0630314
A0630314
A0630314
A0630314
A0630314
A0630314
B0630324
50630328
50618628
28618658
2C60CCD0
17F879A0
1B000360
0D8006C0
06703980
018FC600
00601C00
001FE000
ENDCHAR
STARTCHAR 2500
ENCODING 9472
SWIDTH 1000 0
DWIDTH 32 0
BBX 32 1 0 12
BITMAP
FFFFFFFF
ENDCHAR
STARTCHAR 2501
ENCODING 9473
SWIDTH 1000 0
DWIDTH 32 0
BBX 32 4 0 10
BITMAP
FFFFFFFF
FFFFFFFF
FFFFFFFF
FFFFFFFF
ENDCHAR
STARTCHAR 2502
ENCODING 9474
SWIDTH 1000 0
DWIDTH 32 0
BBX 1 32 15 -3
BITMAP
80
80
80
80
80
80
80
80
80
80
80
80
80
80
80
80
80
80
80
80
80
80
80
80
80
80
80
80
80
80
80
80
ENDCHAR
STARTCHAR 2503
ENCODING 9475
SWIDTH 1000 0
DWIDTH 32 0
BBX 4 32 14 -4
BITMAP
F0
F0
F0
F0
F0
F0
F0
F0
F0
F0
F0
F0
F0
F0
F0
F0
F0
F0
F0
F0
F0
F0
F0
F0
F0
F0
F0
F0
F0
F0
F0
F0
ENDCHAR
STARTCHAR 250C
ENCODING 9484
SWIDTH 1000 0
DWIDTH 32 0
BBX 16 16 15 -4
BITMAP
FFFF
8000
8000
8000
8000
8000
8000
8000
8000
8000
8000
8000
8000
8000
8000
8000
ENDCHAR
STARTCHAR 250F
ENCODING 9487
SWIDTH 1000 0
DWIDTH 32 0
BBX 18 18 14 -4
BITMAP
FFFFC0
FFFFC0
FFFFC0
FFFFC0
F00000
F00000
F00000
F00000
F00000
F00000
F00000
F00000
F00000
F00000
F00000
F00000
F00000
F00000
ENDCHAR
STARTCHAR 2510
ENCODING 9488
SWIDTH 1000 0
DWIDTH 32 0
BBX 16 16 1 -4
BITMAP
FFFF
0001
0001
0001
0001
0001
0001
0001
0001
0001
0001
0001
0001
0001
0001
0001
ENDCHAR
STARTCHAR 2513
ENCODING 9491
SWIDTH 1000 0
DWIDTH 32 0
BBX 18 18 0 -4
BITMAP
FFFFC0
FFFFC0
FFFFC0
FFFFC0
0003C0
0003C0
0003C0
0003C0
0003C0
0003C0
0003C0
0003C0
0003C0
0003C0
0003C0
0003C0
0003C0
0003C0
ENDCHAR
STARTCHAR 2514
ENCODING 9492
SWIDTH 1000 0
DWIDTH 32 0
BBX 16 16 15 13
BITMAP
8000
8000
8000
8000
8000
8000
8000
8000
8000
8000
8000
8000
8000
8000
8000
FFFF
ENDCHAR
STARTCHAR 2517
ENCODING 9495
SWIDTH 1000 0
DWIDTH 32 0
BBX 18 18 14 10
BITMAP
F00000
F00000
F00000
F00000
F00000
F00000
F00000
F00000
F00000
F00000
F00000
F00000
F00000
F00000
FFFFC0
FFFFC0
FFFFC0
FFFFC0
ENDCHAR
STARTCHAR 2518
ENCODING 9496
SWIDTH 1000 0
DWIDTH 32 0
BBX 16 16 1 13
BITMAP
0001
0001
0001
0001
0001
0001
0001
0001
0001
0001
0001
0001
0001
0001
0001
FFFF
ENDCHAR
STARTCHAR 251B
ENCODING 9499
SWIDTH 1000 0
DWIDTH 32 0
BBX 18 18 0 10
BITMAP
0003C0
0003C0
0003C0
0003C0
0003C0
0003C0
0003C0
0003C0
0003C0
0003C0
0003C0
0003C0
0003C0
0003C0
FFFFC0
FFFFC0
FFFFC0
FFFFC0
ENDCHAR
STARTCHAR 251C
ENCODING 9500
SWIDTH 1000 0
DWIDTH 32 0
BBX 16 31 15 -3
BITMAP
8000
8000
8000
8000
8000
8000
8000
8000
8000
8000
8000
8000
8000
8000
8000
FFFF
8000
8000
8000
8000
8000
8000
8000
8000
8000
8000
8000
8000
8000
8000
8000
ENDCHAR
STARTCHAR 251D
ENCODING 9501
SWIDTH 1000 0
DWIDTH 32 0
BBX 17 32 15 -4
BITMAP
800000
800000
800000
800000
800000
800000
800000
800000
800000
800000
800000
800000
800000
800000
FFFF80
FFFF80
FFFF80
FFFF80
800000
800000
800000
800000
800000
800000
800000
800000
800000
800000
800000
800000
800000
800000
ENDCHAR
STARTCHAR 2520
ENCODING 9504
SWIDTH 1000 0
DWIDTH 32 0
BBX 18 32 14 -4
BITMAP
F00000
F00000
F00000
F00000
F00000
F00000
F00000
F00000
F00000
F00000
F00000
F00000
F00000
F00000
F00000
FFFFC0
F00000
F00000
F00000
F00000
F00000
F00000
F00000
F00000
F00000
F00000
F00000
F00000
F00000
F00000
F00000
F00000
ENDCHAR
STARTCHAR 2523
ENCODING 9507
SWIDTH 1000 0
DWIDTH 32 0
BBX 18 32 14 -4
BITMAP
F00000
F00000
F00000
F00000
F00000
F00000
F00000
F00000
F00000
F00000
F00000
F00000
F00000
F00000
FFFFC0
FFFFC0
FFFFC0
FFFFC0
F00000
F00000
F00000
F00000
F00000
F00000
F00000
F00000
F00000
F00000
F00000
F00000
F00000
F00000
ENDCHAR
STARTCHAR 2524
ENCODING 9508
SWIDTH 1000 0
DWIDTH 32 0
BBX 16 31 1 -3
BITMAP
0001
0001
0001
0001
0001
0001
0001
0001
0001
0001
0001
0001
0001
0001
0001
FFFF
0001
0001
0001
0001
0001
0001
0001
0001
0001
0001
0001
0001
0001
0001
0001
ENDCHAR
STARTCHAR 2525
ENCODING 9509
SWIDTH 1000 0
DWIDTH 32 0
BBX 17 32 0 -4
BITMAP
000080
000080
000080
000080
000080
000080
000080
000080
000080
000080
000080
000080
000080
000080
FFFF80
FFFF80
FFFF80
FFFF80
000080
000080
000080
000080
000080
000080
000080
000080
000080
000080
000080
000080
000080
000080
ENDCHAR
STARTCHAR 2528
ENCODING 9512
SWIDTH 1000 0
DWIDTH 32 0
BBX 18 32 0 -4
BITMAP
0003C0
0003C0
0003C0
0003C0
0003C0
0003C0
0003C0
0003C0
0003C0
0003C0
0003C0
0003C0
0003C0
0003C0
0003C0
FFFFC0
0003C0
0003C0
0003C0
0003C0
0003C0
0003C0
0003C0
0003C0
0003C0
0003C0
0003C0
0003C0
0003C0
0003C0
0003C0
0003C0
ENDCHAR
STARTCHAR 252B
ENCODING 9515
SWIDTH 1000 0
DWIDTH 32 0
BBX 18 32 0 -4
BITMAP
0003C0
0003C0
0003C0
0003C0
0003C0
0003C0
0003C0
0003C0
0003C0
0003C0
0003C0
0003C0
0003C0
0003C0
FFFFC0
FFFFC0
FFFFC0
FFFFC0
0003C0
0003C0
0003C0
0003C0
0003C0
0003C0
0003C0
0003C0
0003C0
0003C0
0003C0
0003C0
0003C0
0003C0
ENDCHAR
STARTCHAR 252C
ENCODING 9516
SWIDTH 1000 0
DWIDTH 32 0
BBX 31 16 0 -4
BITMAP
FFFFFFFE
00010000
00010000
00010000
00010000
00010000
00010000
00010000
00010000
00010000
00010000
00010000
00010000
00010000
00010000
00010000
ENDCHAR
STARTCHAR 252F
ENCODING 9519
SWIDTH 1000 0
DWIDTH 32 0
BBX 32 18 0 -5
BITMAP
FFFFFFFF
FFFFFFFF
FFFFFFFF
FFFFFFFF
00010000
00010000
00010000
00010000
00010000
00010000
00010000
00010000
00010000
00010000
00010000
00010000
00010000
00010000
ENDCHAR
STARTCHAR 2530
ENCODING 9520
SWIDTH 1000 0
DWIDTH 32 0
BBX 32 17 0 -4
BITMAP
FFFFFFFF
0003C000
0003C000
0003C000
0003C000
0003C000
0003C000
0003C000
0003C000
0003C000
0003C000
0003C000
0003C000
0003C000
0003C000
0003C000
0003C000
ENDCHAR
STARTCHAR 2533
ENCODING 9523
SWIDTH 1000 0
DWIDTH 32 0
BBX 32 18 0 -4
BITMAP
FFFFFFFF
FFFFFFFF
FFFFFFFF
FFFFFFFF
0003C000
0003C000
0003C000
0003C000
0003C000
0003C000
0003C000
0003C000
0003C000
0003C000
0003C000
0003C000
0003C000
0003C000
ENDCHAR
STARTCHAR 2534
ENCODING 9524
SWIDTH 1000 0
DWIDTH 32 0
BBX 31 16 0 13
BITMAP
00010000
00010000
00010000
00010000
00010000
00010000
00010000
00010000
00010000
00010000
00010000
00010000
00010000
00010000
00010000
FFFFFFFE
ENDCHAR
STARTCHAR 2537
ENCODING 9527
SWIDTH 1000 0
DWIDTH 32 0
BBX 32 18 0 11
BITMAP
00010000
00010000
00010000
00010000
00010000
00010000
00010000
00010000
00010000
00010000
00010000
00010000
00010000
00010000
FFFFFFFF
FFFFFFFF
FFFFFFFF
FFFFFFFF
ENDCHAR
STARTCHAR 2538
ENCODING 9528
SWIDTH 1000 0
DWIDTH 32 0
BBX 32 16 0 12
BITMAP
0003C000
0003C000
0003C000
0003C000
0003C000
0003C000
0003C000
0003C000
0003C000
0003C000
0003C000
0003C000
0003C000
0003C000
0003C000
FFFFFFFF
ENDCHAR
STARTCHAR 253B
ENCODING 9531
SWIDTH 1000 0
DWIDTH 32 0
BBX 32 18 0 10
BITMAP
0003C000
0003C000
0003C000
0003C000
0003C000
0003C000
0003C000
0003C000
0003C000
0003C000
0003C000
0003C000
0003C000
0003C000
FFFFFFFF
FFFFFFFF
FFFFFFFF
FFFFFFFF
ENDCHAR
STARTCHAR 253C
ENCODING 9532
SWIDTH 1000 0
DWIDTH 32 0
BBX 31 31 0 -3
BITMAP
00010000
00010000
00010000
00010000
00010000
00010000
00010000
00010000
00010000
00010000
00010000
00010000
00010000
00010000
00010000
FFFFFFFE
00010000
00010000
00010000
00010000
00010000
00010000
00010000
00010000
00010000
00010000
00010000
00010000
00010000
00010000
00010000
ENDCHAR
STARTCHAR 253F
ENCODING 9535
SWIDTH 1000 0
DWIDTH 32 0
BBX 32 32 0 -4
BITMAP
00010000
00010000
00010000
00010000
00010000
00010000
00010000
00010000
00010000
00010000
00010000
00010000
00010000
00010000
FFFFFFFF
FFFFFFFF
FFFFFFFF
FFFFFFFF
00010000
00010000
00010000
00010000
00010000
00010000
00010000
00010000
00010000
00010000
00010000
00010000
00010000
00010000
ENDCHAR
STARTCHAR 2542
ENCODING 9538
SWIDTH 1000 0
DWIDTH 32 0
BBX 32 32 0 -4
BITMAP
0003C000
0003C000
0003C000
0003C000
0003C000
0003C000
0003C000
0003C000
0003C000
0003C000
0003C000
0003C000
0003C000
0003C000
0003C000
FFFFFFFF
0003C000
0003C000
0003C000
0003C000
0003C000
0003C000
0003C000
0003C000
0003C000
0003C000
0003C000
0003C000
0003C000
0003C000
0003C000
0003C000
ENDCHAR
STARTCHAR 254B
ENCODING 9547
SWIDTH 1000 0
DWIDTH 32 0
BBX 32 32 0 -4
BITMAP
0003C000
0003C000
0003C000
0003C000
0003C000
0003C000
0003C000
0003C000
0003C000
0003C000
0003C000
0003C000
0003C000
0003C000
FFFFFFFF
FFFFFFFF
FFFFFFFF
FFFFFFFF
0003C000
0003C000
0003C000
0003C000
0003C000
0003C000
0003C000
0003C000
0003C000
0003C000
0003C000
0003C000
0003C000
0003C000
ENDCHAR
STARTCHAR 25A0
ENCODING 9632
SWIDTH 1000 0
DWIDTH 32 0
BBX 24 24 4 0
BITMAP
FFFFFF
FFFFFF
FFFFFF
FFFFFF
FFFFFF
FFFFFF
FFFFFF
FFFFFF
FFFFFF
FFFFFF
FFFFFF
FFFFFF
FFFFFF
FFFFFF
FFFFFF
FFFFFF
FFFFFF
FFFFFF
FFFFFF
FFFFFF
FFFFFF
FFFFFF
FFFFFF
FFFFFF
ENDCHAR
STARTCHAR 25A1
ENCODING 9633
SWIDTH 1000 0
DWIDTH 32 0
BBX 24 24 4 0
BITMAP
FFFFFF
C00003
C00003
C00003
C00003
C00003
C00003
C00003
C00003
C00003
C00003
C00003
C00003
C00003
C00003
C00003
C00003
C00003
C00003
C00003
C00003
C00003
C00003
FFFFFF
ENDCHAR
STARTCHAR 25B1
ENCODING 9649
SWIDTH 1000 0
DWIDTH 32 0
BBX 28 12 2 6
BITMAP
07FFFFF0
04000030
0C000020
08000060
18000040
100000C0
30000080
20000180
60000100
40000300
C0000200
FFFFFE00
ENDCHAR
STARTCHAR 25B2
ENCODING 9650
SWIDTH 1000 0
DWIDTH 32 0
BBX 26 24 3 1
BITMAP
000C0000
000C0000
001E0000
001E0000
003F0000
003F0000
007F8000
007F8000
00FFC000
00FFC000
01FFE000
01FFE000
03FFF000
03FFF000
07FFF800
0FFFFC00
0FFFFC00
1FFFFE00
1FFFFE00
3FFFFF00
3FFFFF00
7FFFFF80
7FFFFF80
FFFFFFC0
ENDCHAR
STARTCHAR 25B3
ENCODING 9651
SWIDTH 1000 0
DWIDTH 32 0
BBX 26 24 3 1
BITMAP
000C0000
000C0000
001E0000
00120000
00330000
00210000
00618000
00408000
00C0C000
00804000
01806000
01002000
03003000
02001000
06001800
04000800
0C000C00
18000600
18000600
30000300
30000300
60000180
60000180
FFFFFFC0
ENDCHAR
STARTCHAR 25B6
ENCODING 9654
SWIDTH 1000 0
DWIDTH 32 0
BBX 24 26 4 0
BITMAP
800000
E00000
F80000
FE0000
FF8000
FFE000
FFF800
FFFE00
FFFF80
FFFFC0
FFFFF0
FFFFFC
FFFFFF
FFFFFF
FFFFFC
FFFFF0
FFFFC0
FFFF00
FFFC00
FFF000
FFC000
FF0000
FC0000
F00000
E00000
800000
ENDCHAR
STARTCHAR 25B7
ENCODING 9655
SWIDTH 1000 0
DWIDTH 32 0
BBX 25 26 4 0
BITMAP
80000000
E0000000
D8000000
C6000000
C1800000
C0600000
C0380000
C00E0000
C0038000
C000E000
C0003800
C0000E00
C0000380
C0000700
C0001C00
C0003000
C000C000
C0030000
C00C0000
C0300000
C0C00000
C3800000
CE000000
F8000000
E0000000
80000000
ENDCHAR
STARTCHAR 25BC
ENCODING 9660
SWIDTH 1000 0
DWIDTH 32 0
BBX 26 24 3 -1
BITMAP
FFFFFFC0
7FFFFF80
7FFFFF80
3FFFFF00
3FFFFF00
1FFFFE00
1FFFFE00
0FFFFC00
0FFFFC00
07FFF800
03FFF800
03FFF000
01FFE000
01FFE000
00FFC000
00FFC000
007F8000
007F8000
003F0000
003F0000
001E0000
001E0000
000C0000
000C0000
ENDCHAR
STARTCHAR 25BD
ENCODING 9661
SWIDTH 1000 0
DWIDTH 32 0
BBX 26 24 3 -1
BITMAP
FFFFFFC0
60000180
60000180
30000300
30000300
18000600
18000600
0C000C00
04000C00
06001800
02001000
03003000
01002000
01806000
00804000
00C0C000
00408000
00618000
00210000
00330000
00120000
001E0000
000C0000
000C0000
ENDCHAR
STARTCHAR 25C0
ENCODING 9664
SWIDTH 1000 0
DWIDTH 32 0
BBX 24 26 4 0
BITMAP
000001
000007
00001F
00007F
0001FF
0007FF
001FFF
007FFF
01FFFF
03FFFF
0FFFFF
3FFFFF
FFFFFF
FFFFFF
3FFFFF
0FFFFF
03FFFF
00FFFF
003FFF
000FFF
0003FF
0000FF
00003F
00000F
000003
000001
ENDCHAR
STARTCHAR 25C1
ENCODING 9665
SWIDTH 1000 0
DWIDTH 32 0
BBX 25 26 3 0
BITMAP
00000080
00000380
00000D80
00003180
0000C180
00038180
000E0180
00380180
00E00180
03800180
0E000180
38000180
E0000180
70000180
1C000180
06000180
01800180
00600180
00180180
00060180
00018180
0000E180
00003980
00000F80
00000380
00000080
ENDCHAR
STARTCHAR 25C6
ENCODING 9670
SWIDTH 1000 0
DWIDTH 32 0
BBX 28 28 2 -2
BITMAP
00060000
000F0000
001F8000
003FC000
007FE000
00FFF000
01FFF800
03FFFC00
07FFFE00
0FFFFF00
1FFFFF80
3FFFFFC0
7FFFFFE0
FFFFFFF0
FFFFFFF0
7FFFFFE0
3FFFFFC0
1FFFFF80
0FFFFF00
07FFFE00
03FFFC00
01FFF800
00FFF000
007FE000
003FC000
001F8000
000F0000
00060000
ENDCHAR
STARTCHAR 25C7
ENCODING 9671
SWIDTH 1000 0
DWIDTH 32 0
BBX 28 28 2 -2
BITMAP
00060000
000F0000
00198000
0030C000
00606000
00C03000
01801800
03000C00
06000600
0C000300
18000180
300000C0
60000060
C0000030
C0000030
60000060
300000C0
18000180
0C000300
06000600
03000C00
01801800
00C03000
00606000
0030C000
00198000
000F0000
00060000
ENDCHAR
STARTCHAR 25C9
ENCODING 9673
SWIDTH 1000 0
DWIDTH 32 0
BBX 27 27 3 -1
BITMAP
003F8000
01C06000
03001800
06000C00
0C000600
18000300
303F0180
60FFC080
61FFE0C0
63FFF0C0
C3FFF060
C7FFF860
C7FFF860
C7FFF860
C7FFF860
C7FFF860
C7FFF860
63FFF0C0
63FFF0C0
61FFE080
30FFC180
383F0100
1C000200
0E000400
07001800
03C06000
007F8000
ENDCHAR
STARTCHAR 25CB
ENCODING 9675
SWIDTH 1000 0
DWIDTH 32 0
BBX 26 27 3 -1
BITMAP
003F0000
01C0E000
03003000
0E001C00
1C000E00
38000600
30000300
60000180
60000180
60000180
C00000C0
C00000C0
C00000C0
C00000C0
C00000C0
C00000C0
C00000C0
40000180
40000180
40000380
20000300
30000600
10000E00
0C001C00
02003800
0180E000
007F8000
ENDCHAR
STARTCHAR 25CE
ENCODING 9678
SWIDTH 1000 0
DWIDTH 32 0
BBX 27 27 3 -1
BITMAP
003F8000
01C06000
03001800
06000C00
0C000600
18000300
303F0180
60E1C080
61C060C0
638030C0
C3003060
C6001860
C6001860
C6001860
C6001860
C6001860
C6001860
630030C0
630030C0
61806080
30E1C180
383F0100
1C000200
0E000400
07001800
03C06000
007F8000
ENDCHAR
STARTCHAR 25CF
ENCODING 9679
SWIDTH 1000 0
DWIDTH 32 0
BBX 27 27 3 -1
BITMAP
003F8000
01FFF000
03FFF800
0FFFFC00
1FFFFE00
1FFFFF00
3FFFFF80
7FFFFFC0
7FFFFFC0
7FFFFFC0
FFFFFFE0
FFFFFFE0
FFFFFFE0
FFFFFFE0
FFFFFFE0
FFFFFFE0
FFFFFFE0
7FFFFFC0
7FFFFFC0
7FFFFFC0
3FFFFF80
1FFFFF00
1FFFFE00
0FFFFE00
03FFF800
01FFF000
003F8000
ENDCHAR
STARTCHAR 25D0
ENCODING 9680
SWIDTH 1000 0
DWIDTH 32 0
BBX 27 27 3 -1
BITMAP
003F8000
01FFE000
03F83800
07F81C00
0FF80600
1FF80300
3FF80180
7FF80180
7FF800C0
7FF800C0
FFF80060
FFF80060
FFF80060
FFF80060
FFF80060
FFF80060
FFF80060
7FF800C0
7FF800C0
7FF80080
3FF80180
3FF80300
1FF80200
0FF80400
07F81800
03F86000
007F8000
ENDCHAR
STARTCHAR 25D1
ENCODING 9681
SWIDTH 1000 0
DWIDTH 32 0
BBX 27 27 2 -1
BITMAP
003F8000
00FFE000
0383F800
0703FC00
0C03FE00
1803FF00
3003FF80
7003FF80
6003FFC0
6003FFC0
C003FFE0
C003FFE0
C003FFE0
C003FFE0
C003FFE0
C003FFE0
C003FFE0
6003FFE0
6003FFC0
6003FFC0
3003FFC0
1803FF80
1C03FF00
0E03FE00
0303FC00
01C3F000
003FC000
ENDCHAR
STARTCHAR 25D2
ENCODING 9682
SWIDTH 1000 0
DWIDTH 32 0
BBX 27 28 3 -2
BITMAP
003F8000
00C0E000
03001800
04000C00
08000600
10000300
20000180
40000080
400000C0
80000040
80000060
80000060
80000060
80000060
FFFFFFE0
FFFFFFE0
FFFFFFE0
FFFFFFC0
7FFFFFC0
7FFFFF80
3FFFFF80
3FFFFF00
1FFFFF00
0FFFFE00
07FFFC00
03FFF000
00FFE000
003F0000
ENDCHAR
STARTCHAR 25D3
ENCODING 9683
SWIDTH 1000 0
DWIDTH 32 0
BBX 27 28 3 -2
BITMAP
003F8000
00FFE000
03FFF800
07FFFC00
0FFFFE00
1FFFFF00
3FFFFF80
7FFFFF80
7FFFFFC0
7FFFFFC0
FFFFFFE0
FFFFFFE0
FFFFFFE0
FFFFFFE0
80000060
80000060
80000060
80000040
800000C0
40000080
40000080
20000100
10000300
08000600
04000C00
02001000
01C0E000
003F0000
ENDCHAR
STARTCHAR 25E6
ENCODING 9702
SWIDTH 1000 0
DWIDTH 32 0
BBX 10 11 11 7
BITMAP
1E00
3300
6180
C0C0
C0C0
C0C0
C0C0
C0C0
6180
3300
1E00
ENDCHAR
STARTCHAR 25EF
ENCODING 9711
SWIDTH 1000 0
DWIDTH 32 0
BBX 28 29 2 -2
BITMAP
003F8000
00E07000
03000800
06000600
0C000300
18000180
30000080
20000040
60000020
40000020
40000020
80000010
80000010
80000010
80000010
80000010
80000010
80000010
80000020
40000020
40000020
40000040
20000040
10000080
08000100
04000200
03000400
00C03800
003FC000
ENDCHAR
STARTCHAR 2600
ENCODING 9728
SWIDTH 1000 0
DWIDTH 32 0
BBX 30 29 1 -2
BITMAP
00030000
00030000
00030000
00030000
08030040
04000080
020FC100
013FF200
007FF800
00FFFC00
00FFFC00
01FFFE00
01FFFE00
01FFFE00
F9FFFE7C
01FFFE00
01FFFE00
00FFFC00
00FFFC00
007FF800
003FF000
010FC200
02000100
04000080
08030040
00030000
00030000
00030000
00030000
ENDCHAR
STARTCHAR 2601
ENCODING 9729
SWIDTH 1000 0
DWIDTH 32 0
BBX 28 22 2 -1
BITMAP
003E0000
00FF0000
01FF8000
01FFC000
03FFE000
03FFE000
03FFF3C0
03FFF7E0
07FFFFF0
07FFFFF0
1FFFFFF0
7FFFFFF0
7FFFFFE0
FFFFFF80
FFFFFFE0
FFFFFFF0
FFFFFFF0
FFF3FFF0
7FF3FFF0
3FC1FFE0
1F00FFC0
00003F00
ENDCHAR
STARTCHAR 2602
ENCODING 9730
SWIDTH 1000 0
DWIDTH 32 0
BBX 30 29 1 -2
BITMAP
00030000
00030000
00030000
003FF000
01FFFE00
07FFFF80
0FFFFFC0
1FFFFFE0
3FFFFFF0
7FFFFFF0
7FFFFFF8
47CFCF88
8387870C
81030204
81030204
00030000
00030000
00030000
00030000
00030000
00030000
00030000
00030000
00030000
00030000
00030000
00230000
00230000
003E0000
ENDCHAR
STARTCHAR 2603
ENCODING 9731
SWIDTH 1000 0
DWIDTH 32 0
BBX 30 29 1 -2
BITMAP
C00E1018
400A2818
81842418
02804200
01008100
000100C0
30020080
303E0100
00C10130
0100E230
01001E00
021CE100
021CE100
721CE100
52000100
21084200
0087841C
0300030C
C4000080
C8000040
08038040
10038020
10038020
10000020
10038020
18038060
080380C0
06000180
01FFFE00
ENDCHAR
STARTCHAR 2605
ENCODING 9733
SWIDTH 1000 0
DWIDTH 32 0
BBX 30 28 1 -1
BITMAP
00020000
00030000
00030000
00030000
00078000
00078000
00078000
000FC000
000FC000
000FC000
FFFFFFFC
3FFFFFF0
1FFFFFE0
07FFFF80
03FFFF00
01FFFE00
007FF800
007FF800
00FFFC00
00FFFC00
00FFFC00
01FCFE00
01F87E00
01F03E00
03C00F00
03800700
03000300
04000080
ENDCHAR
STARTCHAR 2606
ENCODING 9734
SWIDTH 1000 0
DWIDTH 32 0
BBX 30 28 1 -1
BITMAP
00020000
00030000
00030000
00030000
00048000
00048000
00048000
000C4000
00084000
00084000
FFF87FFC
30000030
18000060
06000180
03000300
00C00C00
00400800
00400800
00C00C00
00800400
00830400
018CC600
01186200
01303200
03C00F00
03800700
03000300
04000080
ENDCHAR
STARTCHAR 260E
ENCODING 9742
SWIDTH 1000 0
DWIDTH 32 0
BBX 30 24 1 0
BITMAP
07FFFF80
1FFFFFE0
3FFFFFF0
7FFFFFF8
7F703BF8
FC7038FC
F870387C
F87FF87C
00FFFC00
01FFFE00
03F87F00
03E01F00
03C00F00
07800780
07800780
0F8007C0
1F8007E0
3F8007E0
3FC00FF0
3FE01FF0
7FF07FF8
7FFFFFF8
7FFFFFF8
7FFFFFF8
ENDCHAR
STARTCHAR 2616
ENCODING 9750
SWIDTH 1000 0
DWIDTH 32 0
BBX 26 25 3 1
BITMAP
001E0000
00330000
00C0C000
03807000
0E001C00
18000600
30000300
30000300
30000300
20000100
20000100
20000100
20000100
20000100
60000180
60000180
60000180
60000180
40000080
40000080
40000080
40000080
C00000C0
C00000C0
FFFFFFC0
ENDCHAR
STARTCHAR 2617
ENCODING 9751
SWIDTH 1000 0
DWIDTH 32 0
BBX 26 26 3 0
BITMAP
000C0000
001E0000
007F8000
01FFE000
03FFF000
0FFFFC00
3FFFFF00
3FFFFF00
3FFFFF00
3FFFFF00
3FFFFF00
3FFFFF00
3FFFFF00
3FFFFF00
3FFFFF00
7FFFFF80
7FFFFF80
7FFFFF80
7FFFFF80
7FFFFF80
7FFFFF80
7FFFFF80
7FFFFF80
FFFFFF80
FFFFFFC0
FFFFFFC0
ENDCHAR
STARTCHAR 261E
ENCODING 9758
SWIDTH 1000 0
DWIDTH 32 0
BBX 28 13 2 6
BITMAP
7C3FFFE0
47C04010
86006010
84049FE0
841BE400
87E3C200
8802A200
88029C00
84058400
8B066400
8AC21800
44391000
3807E000
ENDCHAR
STARTCHAR 2640
ENCODING 9792
SWIDTH 1000 0
DWIDTH 32 0
BBX 20 28 6 -2
BITMAP
01F000
030C00
060600
0C0300
180180
180180
180180
180180
180180
1C0380
0E0700
070E00
03FC00
00F000
006000
006000
006000
006000
FFFFF0
006000
006000
006000
006000
006000
006000
006000
006000
006000
ENDCHAR
STARTCHAR 2642
ENCODING 9794
SWIDTH 1000 0
DWIDTH 32 0
BBX 26 25 2 0
BITMAP
0003FFC0
000003C0
000007C0
00000EC0
00001CC0
000038C0
000070C0
0000E0C0
0001C0C0
000380C0
000700C0
07CE0000
187C0000
30380000
60180000
C00C0000
C00C0000
C00C0000
C00C0000
C00C0000
C0080000
60180000
30300000
18600000
0FC00000
ENDCHAR
STARTCHAR 2660
ENCODING 9824
SWIDTH 1000 0
DWIDTH 32 0
BBX 24 29 4 -2
BITMAP
001800
003C00
007E00
00FF00
01FF80
03FFC0
03FFC0
07FFE0
0FFFF0
1FFFF8
1FFFF8
3FFFFC
7FFFFE
7FFFFE
FFFFFF
FFFFFF
FFFFFF
FFFFFF
FFFFFF
FFFFFF
7FDBFE
3F99FC
1F18F8
001800
003C00
003C00
007C00
007E00
008100
ENDCHAR
STARTCHAR 2661
ENCODING 9825
SWIDTH 1000 0
DWIDTH 32 0
BBX 26 26 3 -2
BITMAP
0FC0FC00
38618700
70120380
600C0180
C00C00C0
C00000C0
C00000C0
C00000C0
C00000C0
C00000C0
60000180
60000180
30000300
30000300
18000600
18000E00
0C000C00
06001800
03003000
03003000
01806000
00C0C000
00618000
00330000
001E0000
000C0000
ENDCHAR
STARTCHAR 2662
ENCODING 9826
SWIDTH 1000 0
DWIDTH 32 0
BBX 24 30 4 -3
BITMAP
001800
003C00
006600
004200
008100
018180
0300C0
020040
040020
0C0030
180018
30000C
200004
600006
C00003
400006
200004
30000C
180018
080010
040020
060060
0300C0
010080
018100
00C300
004600
002400
003C00
001800
ENDCHAR
STARTCHAR 2663
ENCODING 9827
SWIDTH 1000 0
DWIDTH 32 0
BBX 28 30 2 -3
BITMAP
000F0000
003FC000
007FE000
007FE000
00FFF000
00FFF000
00FFF000
00FFF000
00FFF000
007FE000
007FE000
0F3FCF00
3FDFBFC0
7FEF7FE0
7FFFFFE0
FFFFFFF0
FFFFFFF0
FFFFFFF0
FFFFFFF0
FFFFFFF0
7FF6FFE0
7FE67FE0
3FC63FC0
0F061F00
00060000
000F0000
000F0000
001F0000
001F8000
00204000
ENDCHAR
STARTCHAR 2664
ENCODING 9828
SWIDTH 1000 0
DWIDTH 32 0
BBX 24 30 4 -2
BITMAP
001800
003800
002400
004200
00C300
018180
0300C0
060060
0C0060
0C0030
180018
30000C
30000C
600006
600006
C00003
C00003
C00003
C00003
C00003
C02403
606606
30E70C
1F24F8
002400
006200
004200
004200
00FF00
000100
ENDCHAR
STARTCHAR 2665
ENCODING 9829
SWIDTH 1000 0
DWIDTH 32 0
BBX 26 26 3 -2
BITMAP
0F807C00
3FE1FF00
7FF3FF80
7FF3FF80
FFFFFFC0
FFFFFFC0
FFFFFFC0
FFFFFFC0
FFFFFFC0
FFFFFFC0
7FFFFF80
7FFFFF80
3FFFFF00
3FFFFF00
1FFFFE00
0FFFFC00
0FFFF800
07FFF800
03FFF000
01FFE000
00FFC000
00FF8000
007F8000
003F0000
001E0000
000C0000
ENDCHAR
STARTCHAR 2666
ENCODING 9830
SWIDTH 1000 0
DWIDTH 32 0
BBX 24 30 4 -3
BITMAP
001800
003C00
007C00
007E00
00FF00
01FF80
03FFC0
03FFC0
07FFE0
0FFFF0
1FFFF8
1FFFF8
3FFFFC
7FFFFE
FFFFFF
7FFFFE
3FFFFC
3FFFFC
1FFFF8
0FFFF0
07FFE0
07FFE0
03FFC0
01FF80
00FF00
00FF00
007E00
003C00
001800
001800
ENDCHAR
STARTCHAR 2667
ENCODING 9831
SWIDTH 1000 0
DWIDTH 32 0
BBX 28 30 2 -3
BITMAP
001F8000
0030C000
00606000
00C03000
01801800
01801800
01801800
01801800
01801800
00801000
00C03000
0FC03F00
386061C0
60108060
60000060
C0000030
C0000030
C0000030
C0000030
C0090030
60198060
6039C060
386961C0
0F891F00
00090000
00108000
00108000
00308000
003FC000
00004000
ENDCHAR
STARTCHAR 2668
ENCODING 9832
SWIDTH 1000 0
DWIDTH 32 0
BBX 26 24 3 2
BITMAP
00080000
02102000
04302000
0C306000
0C306000
0C306000
0C306000
0E186000
06183000
070C3000
030C3800
03861800
01861800
21861900
61861880
C10618C0
C30410C0
C20420C0
C00800C0
60100180
70000380
38000600
0F003C00
01FFC000
ENDCHAR
STARTCHAR 2669
ENCODING 9833
SWIDTH 1000 0
DWIDTH 32 0
BBX 9 27 9 -1
BITMAP
0080
0080
0080
0080
0080
0080
0080
0080
0080
0080
0080
0080
0080
0080
0080
0080
0080
0080
0080
0080
0080
3E80
7F80
FF80
FF80
FF00
7C00
ENDCHAR
STARTCHAR 266A
ENCODING 9834
SWIDTH 1000 0
DWIDTH 32 0
BBX 21 27 6 -1
BITMAP
008000
008000
00C000
00E000
00F000
00BC00
009E00
008F00
0087C0
0081E0
0080F0
008070
008038
008018
008018
008010
008030
008060
008080
008100
008000
3E8000
7F8000
FF8000
FF0000
FF0000
7C0000
ENDCHAR
STARTCHAR 266B
ENCODING 9835
SWIDTH 1000 0
DWIDTH 32 0
BBX 24 30 2 -3
BITMAP
000001
00001F
0003FF
007FFF
00FFFF
00FFC1
00FC01
008001
008001
008001
008001
008001
008001
008001
008001
008001
008001
008001
008001
008001
00807F
0080FF
0081FF
0081FE
3F81FE
7F80F8
FF8000
FF0000
FF0000
7C0000
ENDCHAR
STARTCHAR 266C
ENCODING 9836
SWIDTH 1000 0
DWIDTH 32 0
BBX 24 30 2 -3
BITMAP
000001
00001F
0003FF
007FFF
00FFFD
00FF81
00F001
00801F
0083FF
00BFFF
00FFFD
00FF81
00F001
008001
008001
008001
008001
008001
008001
008001
00807F
0080FF
0081FF
0081FE
3F81FE
7F80F8
FF8000
FF0000
FF0000
7C0000
ENDCHAR
STARTCHAR 266D
ENCODING 9837
SWIDTH 1000 0
DWIDTH 32 0
BBX 11 27 11 -2
BITMAP
8000
8000
8000
8000
8000
8000
8000
8000
8000
8000
8F00
B1C0
C0C0
80E0
80E0
80E0
80E0
80E0
81C0
81C0
8380
8700
8600
8C00
9800
E000
C000
ENDCHAR
STARTCHAR 266E
ENCODING 9838
SWIDTH 1000 0
DWIDTH 32 0
BBX 8 27 12 -2
BITMAP
80
80
80
80
80
80
80
87
9F
FF
F9
C1
81
81
81
81
8F
FF
FD
F1
81
01
01
01
01
01
01
ENDCHAR
STARTCHAR 266F
ENCODING 9839
SWIDTH 1000 0
DWIDTH 32 0
BBX 18 27 7 -2
BITMAP
000800
040800
040800
040800
040800
040800
0408C0
041FC0
07FF00
3FF800
FE0800
E40800
040800
040800
040800
040800
040BC0
047FC0
07FE00
FFC800
FC0800
840800
040800
040800
040800
040800
040000
ENDCHAR
STARTCHAR 2713
ENCODING 10003
SWIDTH 1000 0
DWIDTH 32 0
BBX 21 21 7 3
BITMAP
000008
000010
000030
000020
000040
000080
000180
000300
000600
000C00
000800
001800
403000
E06000
E0C000
718000
738000
3F0000
3E0000
1C0000
180000
ENDCHAR
STARTCHAR 2756
ENCODING 10070
SWIDTH 1000 0
DWIDTH 32 0
BBX 28 28 2 -2
BITMAP
00060000
000F0000
001F8000
003FC000
007FE000
00FFF000
00FFF000
007FE000
063FC600
0F1F8F00
1F8F1F80
3FC63FC0
7FE07FE0
FFF0FFF0
FFF0FFF0
7FE07FE0
3FC63FC0
1F8F1F80
0F1F8F00
063FC600
007FE000
00FFF000
00FFF000
007FE000
003FC000
001F8000
000F0000
00060000
ENDCHAR
STARTCHAR 2776
ENCODING 10102
SWIDTH 1000 0
DWIDTH 32 0
BBX 29 29 1 -2
BITMAP
001FC000
00FFF800
01FFFE00
07FFFF00
0FFFFF80
1FF8FFC0
3FE0FFE0
3FFCFFE0
7FFCFFF0
7FFCFFF0
7FFCFFF0
FFFCFFF8
FFFCFFF8
FFFCFFF8
FFFCFFF8
FFFCFFF8
FFFCFFF8
FFFCFFF8
7FFCFFF0
7FFCFFF0
7FFCFFF0
3FFCFFE0
3FFCFFC0
1FE01FC0
0FFFFF80
07FFFF00
01FFFE00
00FFF800
001FC000
ENDCHAR
STARTCHAR 2777
ENCODING 10103
SWIDTH 1000 0
DWIDTH 32 0
BBX 29 28 2 -2
BITMAP
001FC000
00FFF800
03FFFE00
07FFFF00
0FF07F80
1FCF1FC0
3F9F8FE0
7F1FC7E0
7F1FC7F0
7F1FC7F0
FF1FC7F8
FFFF8FF8
FFFF8FF8
FFFF1FF8
FFFE3FF8
FFFC7FF8
FFF8FFF8
FFF1FFF8
7FE7F7F0
7FEFF7F0
3FDFF7E0
3FBFE7E0
1F0007C0
0FFFFF80
07FFFF00
03FFFE00
00FFF800
001FC000
ENDCHAR
STARTCHAR 2778
ENCODING 10104
SWIDTH 1000 0
DWIDTH 32 0
BBX 28 29 2 -2
BITMAP
003F8000
00FFF000
03FFF800
07FFFE00
0FFFFF00
1FE07F80
3F8F1F80
3FBF9FC0
7F1FCFE0
7F1FCFE0
7F1FCFE0
FFFFCFF0
FFFF9FF0
FFFE3FF0
FFF0FFF0
FFFF1FF0
FFFFCFF0
FFFFE7F0
7FFFE7E0
7E3FE7E0
7E1FE7E0
3E3FE7C0
3F3FCFC0
1F9F1F80
0FE07F00
07FFFE00
03FFFC00
00FFF000
003FC000
ENDCHAR
STARTCHAR 2779
ENCODING 10105
SWIDTH 1000 0
DWIDTH 32 0
BBX 29 29 1 -2
BITMAP
001FE000
007FF800
01FFFE00
07FFFF00
0FFF3F80
1FFF3FC0
3FFE3FE0
3FFD3FE0
7FF93FF0
7FFB3FF0
7FF73FF0
FFEF3FF8
FFCF3FF8
FFDF3FF8
FFBF3FF8
FF7F3FF8
FEFF3FF8
FE0003F8
7E0003F0
7FFF3FF0
7FFF3FF0
3FFF3FE0
1FFF3FC0
1FF807C0
0FFFFF80
07FFFF00
01FFFC00
00FFF800
001FC000
ENDCHAR
STARTCHAR 277A
ENCODING 10106
SWIDTH 1000 0
DWIDTH 32 0
BBX 28 29 2 -2
BITMAP
003F8000
00FFF000
03FFFC00
07FFFE00
0FFFFF00
1F801F80
3F801FC0
3FBFFFC0
7FBFFFE0
7FBFFFE0
FFBFFFE0
FFBFFFF0
FFB07FF0
FF8F1FF0
FFBF8FF0
FFBFCFF0
FFFFC7F0
FFFFC7F0
7FFFC7E0
7F1FC7E0
7F1FC7E0
3F3F8FC0
3FBF8FC0
1F9F1F80
0FE07F00
07FFFE00
03FFFC00
00FFF000
003FC000
ENDCHAR
STARTCHAR 277B
ENCODING 10107
SWIDTH 1000 0
DWIDTH 32 0
BBX 28 29 2 -2
BITMAP
003F8000
00FFF000
03FFF800
07FFFE00
0FFFFF00
1FF07F80
3FE79F80
3FCF8FC0
7F9F8FE0
7F1F8FE0
7F3FFFE0
FF3FFFF0
FE307FF0
FE2F3FF0
FE1F9FF0
FE3FCFF0
FE3FCFF0
FE3FCFF0
7E3FCFE0
7E3FCFE0
7F3FCFE0
3F1F9FC0
3F9F9FC0
1FCF3F80
0FE0FF00
07FFFE00
03FFFC00
00FFF000
003FC000
ENDCHAR
STARTCHAR 277C
ENCODING 10108
SWIDTH 1000 0
DWIDTH 32 0
BBX 29 28 1 -2
BITMAP
001FC000
00FFF800
03FFFE00
07FFFF00
0FFFFF80
1F8007C0
3F9FE7E0
3FBFEFE0
7FBFCFF0
7FBFDFF0
FFBF9FF8
FFFFBFF8
FFFF3FF8
FFFF7FF8
FFFE7FF8
FFFE7FF8
FFFCFFF8
FFFCFFF8
7FFCFFF0
7FF8FFF0
3FF8FFE0
3FF8FFE0
1FF9FFC0
0FF9FF80
07FFFF00
03FFFE00
00FFF800
001FC000
ENDCHAR
STARTCHAR 277D
ENCODING 10109
SWIDTH 1000 0
DWIDTH 32 0
BBX 28 29 2 -2
BITMAP
003F8000
00FFF000
03FFF800
07FFFE00
0FFFFF00
1FE07F80
3F8F1F80
3F9F9FC0
7F3FCFE0
7F3FCFE0
7F3FCFE0
FF9F9FF0
FF8F3FF0
FFE27FF0
FFF0FFF0
FFCE3FF0
FFBF1FF0
FF3FCFF0
7E7FE7E0
7E7FE7E0
7E7FE7E0
3E7FC7C0
3F3F8FC0
1F8F1F80
0FE07F00
07FFFE00
03FFFC00
00FFF000
003FC000
ENDCHAR
STARTCHAR 277E
ENCODING 10110
SWIDTH 1000 0
DWIDTH 32 0
BBX 28 29 2 -2
BITMAP
003F8000
00FFF000
03FFF800
07FFFE00
0FFFFF00
1FF07F80
3FCF3F80
3F9F9FC0
7F9FCFE0
7F3FCFE0
7F3FC7E0
FF3FC7F0
FF3FE7F0
FF3FC7F0
FF9FC7F0
FFCF47F0
FFE0C7F0
FFFFC7F0
7FFFC7E0
7F1FCFE0
7F1F8FE0
3F1F9FC0
3F9F1FC0
1F9E3F80
0FE0FF00
07FFFE00
03FFFC00
00FFF000
003FC000
ENDCHAR
STARTCHAR 277F
ENCODING 10111
SWIDTH 1000 0
DWIDTH 32 0
BBX 29 29 2 -2
BITMAP
001FC000
00FFF000
03FFFC00
07FFFE00
0FFFFF00
1F7F0F80
387E77C0
3E7C73E0
7E7CF3E0
7E7CFBF0
7E78F9F0
FE78F9F8
FE78F9F8
FE78F9F8
FE78F9F8
FE78F9F8
FE78F9F8
FE78F9F8
7E78F9F0
7E7CF9F0
7E7C73F0
3E7C73E0
3E7E77E0
181F0FC0
0FFFFF80
07FFFF00
03FFFE00
00FFF800
001FC000
ENDCHAR
STARTCHAR 2934
ENCODING 10548
SWIDTH 1000 0
DWIDTH 32 0
BBX 26 23 3 1
BITMAP
00001800
00003C00
00007E00
0000DB00
00019980
000318C0
000318C0
00021840
00001800
00001800
00001800
00001800
00001800
00001800
00001800
00001800
00001800
00003000
00003000
00006000
0000C000
00038000
FFFE0000
ENDCHAR
STARTCHAR 2935
ENCODING 10549
SWIDTH 1000 0
DWIDTH 32 0
BBX 26 24 3 -1
BITMAP
FFFE0000
00038000
0000C000
00006000
00003000
00003000
00001800
00001800
00001800
00001800
00001800
00001800
00001800
00001800
00001800
00001800
00021840
000318C0
00019980
0000DB00
00005A00
00007E00
00003C00
00001800
ENDCHAR
STARTCHAR 29BF
ENCODING 10687
SWIDTH 1000 0
DWIDTH 32 0
BBX 27 27 3 -1
BITMAP
003F8000
01C06000
03001800
06000C00
0C000600
18000300
30000180
60000080
600000C0
600E00C0
C03F8060
C07F8060
C07FC060
C07FC060
C07FC060
C07FC060
C03F8060
601F00C0
600000C0
60000080
30000180
38000100
1C000200
0E000400
07001800
03C06000
007F8000
ENDCHAR
STARTCHAR 29FA
ENCODING 10746
SWIDTH 1000 0
DWIDTH 32 0
BBX 18 17 7 1
BITMAP
061800
061800
061800
061800
061800
061800
061800
061800
FFFFC0
061800
061800
061800
061800
061800
061800
061800
061800
ENDCHAR
STARTCHAR 29FB
ENCODING 10747
SWIDTH 1000 0
DWIDTH 32 0
BBX 17 17 8 1
BITMAP
198C00
198C00
198C00
198C00
198C00
198C00
198C00
198C00
FFFF80
198C00
198C00
198C00
198C00
198C00
198C00
198C00
198C00
ENDCHAR
STARTCHAR 2E83
ENCODING 11907
SWIDTH 1000 0
DWIDTH 32 0
BBX 21 24 7 1
BITMAP
E00000
C00000
C00000
C00000
C00000
C00000
C00000
C00000
C00000
C00000
C00000
C00000
C00000
C00000
C00000
C00000
C00010
C00030
C00030
C00030
C00030
C00070
FFFFF8
7FFFF0
ENDCHAR
STARTCHAR 2E85
ENCODING 11909
SWIDTH 1000 0
DWIDTH 32 0
BBX 17 27 6 -2
BITMAP
000780
000700
000C00
001C00
001800
003000
007000
006000
00F000
01F000
036000
066000
0C6000
186000
306000
606000
806000
006000
006000
006000
006000
006000
006000
006000
006000
006000
006000
ENDCHAR
STARTCHAR 2E87
ENCODING 11911
SWIDTH 1000 0
DWIDTH 32 0
BBX 30 27 1 -2
BITMAP
08000180
0FFFFFC0
0C000180
0C000180
0C000180
0C000180
0C000180
0C000180
0C000180
0C000180
0C000180
0C000180
0C000180
0C000180
0C000180
0C000080
080000C0
180000C4
180000C4
180000C8
180000C8
30000068
30000068
20000078
60000038
4000001C
8000000C
ENDCHAR
STARTCHAR 2E89
ENCODING 11913
SWIDTH 1000 0
DWIDTH 32 0
BBX 12 26 11 -1
BITMAP
0070
0060
E060
C060
C060
C060
C060
C060
C060
C060
C060
C060
C060
C060
C060
C060
C060
C060
C060
C060
0060
0060
0060
0060
1FE0
01C0
ENDCHAR
STARTCHAR 2E8E
ENCODING 11918
SWIDTH 1000 0
DWIDTH 32 0
BBX 27 25 3 -1
BITMAP
00000080
000001C0
FFFFFFE0
00C18000
00C18000
00C18000
00C18000
00C18000
00C18000
00C18000
00C18000
00C18000
00C18000
01818000
01818000
01818000
03818080
03018080
03018080
06018080
0C018080
1C0180C0
3801FFE0
6000FFC0
C0000000
ENDCHAR
STARTCHAR 2E8F
ENCODING 11919
SWIDTH 1000 0
DWIDTH 32 0
BBX 27 27 3 -2
BITMAP
00010000
00C0C000
01E06000
01803000
03001800
07000C00
06000600
0C000700
18000380
30E1C180
60C18180
C0C18000
00C18000
00C18000
00C18000
00C18000
00C18000
00C18000
01818000
01818040
01818040
03018040
070180C0
0E0180C0
1C01FFE0
7000FFC0
80000000
ENDCHAR
STARTCHAR 2E90
ENCODING 11920
SWIDTH 1000 0
DWIDTH 32 0
BBX 27 27 3 -1
BITMAP
001C0000
00180000
00180000
00180000
00180000
00180080
001801C0
FFFFFFC0
001B0000
001B8000
001B0000
001B0000
001B0000
00330000
00330000
00330000
00330000
00630000
00630000
00C30040
00C30040
018300C0
030300C0
060300C0
0C0301E0
3003FFE0
E001FFC0
ENDCHAR
STARTCHAR 2E92
ENCODING 11922
SWIDTH 1000 0
DWIDTH 32 0
BBX 23 25 7 0
BITMAP
800060
FFFFF0
C00060
C00060
C00060
C00060
C00060
C00060
C00060
C00060
FFFFE0
C00060
C00060
C00000
C00000
C00000
C00008
C00008
C00008
C00008
C0000C
C0000C
C0001E
FFFFFE
7FFFFC
ENDCHAR
STARTCHAR 2E93
ENCODING 11923
SWIDTH 1000 0
DWIDTH 32 0
BBX 25 27 4 -1
BITMAP
00080000
001E0000
00180000
00380000
00300000
00600000
00600000
00C07000
61807800
3900E000
0E01C000
07018000
03830000
01870000
01CE0000
00CC0000
00180000
00306000
00603000
00C01800
01800E00
01000700
02003F00
3FFFE380
FFF00180
C0000180
80000000
ENDCHAR
STARTCHAR 2E94
ENCODING 11924
SWIDTH 1000 0
DWIDTH 32 0
BBX 23 25 7 1
BITMAP
0E0000
0C0000
0C0000
180000
180000
180180
1FFFC0
180180
180300
300300
300300
300300
300300
300300
600300
600600
7FFE00
600600
C00600
C00600
000600
000600
000C00
000C0C
000C1E
ENDCHAR
STARTCHAR 2E96
ENCODING 11926
SWIDTH 1000 0
DWIDTH 32 0
BBX 13 27 9 -1
BITMAP
0380
0300
0300
0300
0340
1320
3330
3330
3318
3318
7318
7318
E300
C300
0300
0300
0300
0300
0300
0300
0300
0300
0300
0300
0300
0300
0300
ENDCHAR
STARTCHAR 2E97
ENCODING 11927
SWIDTH 1000 0
DWIDTH 32 0
BBX 28 27 2 -1
BITMAP
00700000
00700000
00600000
00600000
00600000
00600000
00600000
00600000
10620400
10610200
10618300
10608180
1060C180
1060C0C0
306060E0
30606060
60607070
60603070
E0603030
C0603030
00600000
00600000
00600000
00600000
0FE00000
01E00000
01000000
ENDCHAR
STARTCHAR 2E98
ENCODING 11928
SWIDTH 1000 0
DWIDTH 32 0
BBX 19 28 8 -3
BITMAP
00E000
00C000
00C000
00C000
00C000
00C080
00C1C0
7FFE00
00C000
00C000
00C000
00C000
00C020
00C3C0
00FE00
0FE000
FEC000
E0C000
80C000
00C000
00C000
00C000
00C000
00C000
00C000
30C000
0FC000
038000
ENDCHAR
STARTCHAR 2E99
ENCODING 11929
SWIDTH 1000 0
DWIDTH 32 0
BBX 26 29 3 -3
BITMAP
00800000
01E00000
01800000
01800000
03800000
03000100
03000380
07FFFFC0
06003000
0E003000
0E007000
19006000
19006000
3080C000
60C0C000
40418000
80618000
00330000
001F0000
000E0000
000E0000
001F0000
0031C000
0060E000
01C07C00
07001F00
1C0007C0
70000180
80000000
ENDCHAR
STARTCHAR 2E9B
ENCODING 11931
SWIDTH 1000 0
DWIDTH 32 0
BBX 26 27 3 -2
BITMAP
00000400
00000E00
3FFFFE00
000C0000
000C0000
000C0000
0E0C0000
180C0000
180C0000
180C0000
180C0300
300C0780
3FFFFF80
30180000
60180000
601F0000
003E0000
00360000
00360000
00660000
00E60080
01C60080
01860080
07060180
0E0601C0
3807FFC0
E003FF80
ENDCHAR
STARTCHAR 2E9E
ENCODING 11934
SWIDTH 1000 0
DWIDTH 32 0
BBX 27 29 3 -3
BITMAP
00030000
00038000
00030000
000300C0
000300E0
0003FFE0
00030000
00630000
00730000
00C30200
01C30300
01FFFF80
03800700
07000E00
06000C00
0F001C00
18C03800
30707000
40386000
801CC000
000F8000
00070000
000E0000
001C0000
00700000
01E00000
07800000
1E000000
70000000
ENDCHAR
STARTCHAR 2E9F
ENCODING 11935
SWIDTH 1000 0
DWIDTH 32 0
BBX 29 26 1 -1
BITMAP
02000300
03FFFF80
03000300
03000300
031C0300
03070300
03038300
06018300
06000310
06000338
FFFFFFF8
06000300
06200600
06180600
040C0600
0C060600
0C030600
0C030600
0C000630
0C000630
0FFFFFF8
18000600
18000600
00030C00
0000FC00
00001800
ENDCHAR
STARTCHAR 2EA0
ENCODING 11936
SWIDTH 1000 0
DWIDTH 32 0
BBX 28 28 2 -2
BITMAP
0C000300
0FFFFF80
0C000300
0C000300
0C000300
0C000300
0C000300
0FFFFF00
0C030300
0C030300
0C030000
0C030000
0C030040
0C0100E0
0FFFFF00
0C018000
0C01C000
0C00C000
0C00E000
0C007020
0C003020
0C013820
0C0E1C20
0DF80F60
7F8007E0
FC0001F0
C00000F0
40000000
ENDCHAR
STARTCHAR 2EA1
ENCODING 11937
SWIDTH 1000 0
DWIDTH 32 0
BBX 13 28 10 -2
BITMAP
1800
0E00
0700
0380
0180
0008
0008
C010
7010
3820
1860
1840
00C0
0080
0180
0300
0300
0600
0E00
7C00
3C00
1800
1800
1C00
1C00
1C00
1C00
1C00
ENDCHAR
STARTCHAR 2EA3
ENCODING 11939
SWIDTH 1000 0
DWIDTH 32 0
BBX 28 8 2 9
BITMAP
04410600
04418300
0820C180
082060C0
18306060
30307070
F0303030
E0303030
ENDCHAR
STARTCHAR 2EA4
ENCODING 11940
SWIDTH 1000 0
DWIDTH 32 0
BBX 24 16 4 6
BITMAP
000008
00007C
000FFE
01FF00
FF8000
000006
00600F
40300C
30381C
381818
1C1C38
0E0C30
0E0C60
060040
0000C0
000080
ENDCHAR
STARTCHAR 2EA6
ENCODING 11942
SWIDTH 1000 0
DWIDTH 32 0
BBX 14 28 6 -3
BITMAP
0010
001C
0018
0018
0018
3018
1818
0C18
0618
0718
0718
0318
0018
0018
0018
0078
01D8
0718
3E18
F818
E018
4018
0018
0018
0018
0018
0018
0018
ENDCHAR
STARTCHAR 2EA8
ENCODING 11944
SWIDTH 1000 0
DWIDTH 32 0
BBX 15 27 7 -2
BITMAP
040C
021E
0338
0170
00E0
01C0
03C0
0660
0C30
3030
4030
0038
0078
00F8
01CC
038C
060C
0C0C
180C
600C
C00C
000C
0018
0018
0C38
03F0
00E0
ENDCHAR
STARTCHAR 2EAA
ENCODING 11946
SWIDTH 1000 0
DWIDTH 32 0
BBX 18 27 6 -1
BITMAP
000180
7FFFC0
0003C0
000700
000C00
001000
007000
006000
1C6000
186000
186000
186300
187F80
186000
186000
186000
186000
186000
186000
186000
186380
187E00
19F000
7F8000
F80000
400000
400000
ENDCHAR
STARTCHAR 2EAB
ENCODING 11947
SWIDTH 1000 0
DWIDTH 32 0
BBX 25 15 4 5
BITMAP
80000300
FFFFFF80
C1830300
C1830300
C1830300
C1830300
C1830300
C1830300
C1830300
C1830300
C1830300
C1830300
FFFFFF00
C0000300
C0000300
ENDCHAR
STARTCHAR 2EAD
ENCODING 11949
SWIDTH 1000 0
DWIDTH 32 0
BBX 19 28 6 -2
BITMAP
007000
006000
006000
006000
006000
006180
1F9FC0
000300
000600
000E00
001C00
001800
003000
006000
00F800
03E700
066380
0C60C0
386060
606060
806000
006000
006000
006000
006000
006000
006000
006000
ENDCHAR
STARTCHAR 2EB2
ENCODING 11954
SWIDTH 1000 0
DWIDTH 32 0
BBX 25 15 4 5
BITMAP
80000300
FFFFFF80
C1830300
C1830300
C1830300
C1830300
C1830300
C1830300
C1830300
C1830300
C1830300
C1830300
FFFFFF00
C0000300
C0000300
ENDCHAR
ENDFONT
